SplineFontDB: 3.0
FontName: PedanticTelugu
FullName: Pedantic Telugu
FamilyName: Pedantic Indic
Weight: Book
Copyright: Based on Pothana2000 by K. Desikachary, 2006, GNU GPL V.2 or later (with Font Exception).\n\nValapalagilaka added in 2017 by C. Li.
Version: 1.0
ItalicAngle: 0
UnderlinePosition: -1310
UnderlineWidth: 60
Ascent: 1000
Descent: 250
InvalidEm: 0
sfntRevision: 0x00010000
woffMajor: 1
woffMinor: 0
LayerCount: 2
Layer: 0 1 "Back" 1
Layer: 1 1 "Fore" 0
XUID: [1021 231 -1607738659 12204889]
StyleMap: 0x0040
FSType: 0
OS2Version: 3
OS2_WeightWidthSlopeOnly: 0
OS2_UseTypoMetrics: 0
CreationTime: 974638961
ModificationTime: 1514385122
PfmFamily: 81
TTFWeight: 400
TTFWidth: 5
LineGap: 0
VLineGap: 0
Panose: 0 0 4 0 0 0 0 0 0 0
OS2TypoAscent: 1100
OS2TypoAOffset: 0
OS2TypoDescent: -1050
OS2TypoDOffset: 0
OS2TypoLinegap: 0
OS2WinAscent: 1100
OS2WinAOffset: 0
OS2WinDescent: 1050
OS2WinDOffset: 0
HheadAscent: 1100
HheadAOffset: 0
HheadDescent: -1050
HheadDOffset: 0
OS2SubXSize: 875
OS2SubYSize: 812
OS2SubXOff: 0
OS2SubYOff: 179
OS2SupXSize: 875
OS2SupYSize: 812
OS2SupXOff: 0
OS2SupYOff: 600
OS2StrikeYSize: 62
OS2StrikeYPos: 323
OS2Vendor: '    '
OS2CodePages: 00000000.00000000
OS2UnicodeRanges: 00200000.00000000.00000000.00000000
Lookup: 1 0 0 "'aalt' Access All Alternates lookup 0" { "'aalt' Access All Alternates lookup 0 subtable"  } ['aalt' ('DFLT' <'dflt' > 'latn' <'dflt' > 'telu' <'dflt' > ) ]
Lookup: 4 0 1 "'rlig' Required Ligatures lookup 1" { "'rlig' Required Ligatures lookup 1 subtable"  } ['rlig' ('DFLT' <'dflt' > 'latn' <'dflt' > 'telu' <'dflt' > ) ]
Lookup: 1 0 0 "Single Substitution lookup 2" { "Single Substitution lookup 2 subtable"  } []
Lookup: 1 0 0 "Single Substitution lookup 3" { "Single Substitution lookup 3 subtable"  } []
Lookup: 1 0 0 "Single Substitution lookup 4" { "Single Substitution lookup 4 subtable"  } []
Lookup: 1 0 0 "Single Substitution lookup 5" { "Single Substitution lookup 5 subtable"  } []

StartChar: .notdef
Encoding: 65536 -1 0
Width: 772
GlyphClass: 2
Flags: W
LayerCount: 2
Fore
SplineSet
730 494 m 1,0,-1
 668 449 l 1,1,2
 638 500 638 500 589 531 c 1,3,-1
 632 595 l 1,4,5
 693 555 693 555 730 494 c 1,0,-1
528 642 m 1,6,-1
 516 566 l 1,7,8
 489 572 489 572 461 572 c 0,9,10
 431 572 431 572 404 566 c 1,11,-1
 392 642 l 1,12,13
 427 651 427 651 460 651 c 0,14,15
 494 651 494 651 528 642 c 1,6,-1
772 325 m 0,16,17
 772 291 772 291 764 254 c 1,18,-1
 691 267 l 1,19,20
 697 295 697 295 697 325 c 256,21,22
 697 355 697 355 691 383 c 1,23,-1
 764 397 l 1,24,25
 772 360 772 360 772 325 c 0,16,17
730 157 m 1,26,27
 692 95 692 95 632 56 c 1,28,-1
 589 120 l 1,29,30
 638 151 638 151 668 202 c 1,31,-1
 730 157 l 1,26,27
331 531 m 1,32,33
 282 500 282 500 253 449 c 1,34,-1
 191 494 l 1,35,36
 228 555 228 555 288 595 c 1,37,-1
 331 531 l 1,32,33
230 267 m 1,38,-1
 155 254 l 1,39,40
 148 288 148 288 148 325 c 256,41,42
 148 362 148 362 155 397 c 1,43,-1
 230 383 l 1,44,45
 223 355 223 355 223 325 c 256,46,47
 223 295 223 295 230 267 c 1,38,-1
528 8 m 1,48,49
 494 0 494 0 460 0 c 0,50,51
 427 0 427 0 392 8 c 1,52,-1
 404 85 l 1,53,54
 431 78 431 78 461 78 c 0,55,56
 489 78 489 78 516 85 c 1,57,-1
 528 8 l 1,48,49
331 120 m 1,58,-1
 288 56 l 1,59,60
 228 95 228 95 191 157 c 1,61,-1
 253 202 l 1,62,63
 282 151 282 151 331 120 c 1,58,-1
EndSplineSet
Validated: 1
EndChar

StartChar: exclam
Encoding: 33 33 4
Width: 289
GlyphClass: 2
Flags: W
LayerCount: 2
Fore
SplineSet
286 664 m 2,0,-1
 238 179 l 1,1,-1
 204 179 l 1,2,-1
 156 664 l 2,3,4
 153 692 153 692 153 712 c 0,5,6
 153 801 153 801 222 801 c 0,7,8
 289 801 289 801 289 704 c 0,9,10
 289 692 289 692 286 664 c 2,0,-1
220 -50 m 0,11,12
 191 -50 191 -50 172 -28 c 128,-1,13
 153 -6 153 -6 153 24 c 256,14,15
 153 54 153 54 173 75 c 128,-1,16
 193 96 193 96 220 96 c 256,17,18
 247 96 247 96 267 75 c 128,-1,19
 287 54 287 54 287 24 c 0,20,21
 287 -50 287 -50 220 -50 c 0,11,12
EndSplineSet
Validated: 1
EndChar

StartChar: quotedbl
Encoding: 34 34 5
Width: 447
GlyphClass: 2
Flags: W
LayerCount: 2
Fore
SplineSet
436 765 m 2,0,-1
 405 600 l 1,1,-1
 369 600 l 1,2,-1
 328 831 l 1,3,-1
 328 857 l 2,4,5
 328 930 328 930 388 930 c 0,6,7
 447 930 447 930 447 866 c 0,8,9
 447 819 447 819 436 765 c 2,0,-1
244 765 m 2,10,-1
 214 600 l 1,11,-1
 180 600 l 1,12,-1
 151 767 l 2,13,14
 139 831 139 831 139 857 c 0,15,16
 139 930 139 930 196 930 c 0,17,18
 256 930 256 930 256 864 c 0,19,20
 256 837 256 837 244 765 c 2,10,-1
EndSplineSet
Validated: 1
EndChar

StartChar: numbersign
Encoding: 35 35 6
Width: 711
GlyphClass: 2
Flags: W
LayerCount: 2
Fore
SplineSet
551 269 m 1,0,-1
 497 0 l 1,1,-1
 433 0 l 1,2,-1
 487 269 l 1,3,-1
 303 269 l 1,4,-1
 249 0 l 1,5,-1
 183 0 l 1,6,-1
 238 269 l 1,7,-1
 140 269 l 1,8,-1
 140 333 l 1,9,-1
 250 333 l 1,10,-1
 287 520 l 1,11,-1
 140 520 l 1,12,-1
 140 582 l 1,13,-1
 302 582 l 1,14,-1
 356 851 l 1,15,-1
 420 851 l 1,16,-1
 367 582 l 1,17,-1
 548 582 l 1,18,-1
 606 851 l 1,19,-1
 670 851 l 1,20,-1
 614 582 l 1,21,-1
 711 582 l 1,22,-1
 711 520 l 1,23,-1
 602 520 l 1,24,-1
 564 333 l 1,25,-1
 711 333 l 1,26,-1
 711 269 l 1,27,-1
 551 269 l 1,0,-1
353 520 m 1,28,-1
 316 333 l 1,29,-1
 498 333 l 1,30,-1
 537 520 l 1,31,-1
 353 520 l 1,28,-1
EndSplineSet
Validated: 1
EndChar

StartChar: dollar
Encoding: 36 36 7
Width: 524
GlyphClass: 2
Flags: W
LayerCount: 2
Fore
SplineSet
351 72 m 1,0,-1
 351 0 l 1,1,-1
 308 0 l 1,2,-1
 308 70 l 1,3,4
 234 73 234 73 193.5 123.5 c 128,-1,5
 153 174 153 174 153 283 c 1,6,-1
 188 283 l 1,7,8
 203 137 203 137 308 122 c 1,9,-1
 308 427 l 1,10,11
 230 488 230 488 199 528 c 0,12,13
 153 589 153 589 153 666 c 0,14,15
 153 739 153 739 195.5 788.5 c 128,-1,16
 238 838 238 838 308 850 c 1,17,-1
 308 901 l 1,18,-1
 351 901 l 1,19,-1
 351 850 l 1,20,21
 380 846 380 846 407 838 c 0,22,23
 425 834 425 834 464 797.5 c 128,-1,24
 503 761 503 761 503 630 c 1,25,-1
 465 624 l 1,26,27
 454 778 454 778 351 797 c 1,28,-1
 351 533 l 1,29,30
 447 451 447 451 467 426 c 0,31,32
 524 358 524 358 524 277 c 0,33,34
 524 195 524 195 477 138.5 c 128,-1,35
 430 82 430 82 351 72 c 1,0,-1
308 795 m 1,36,37
 238 781 238 781 238 701 c 0,38,39
 238 634 238 634 308 570 c 1,40,-1
 308 795 l 1,36,37
351 390 m 1,41,-1
 351 123 l 1,42,43
 439 149 439 149 439 248 c 0,44,45
 439 310 439 310 351 390 c 1,41,-1
EndSplineSet
Validated: 1
EndChar

StartChar: percent
Encoding: 37 37 8
Width: 845
GlyphClass: 2
Flags: W
LayerCount: 2
Fore
SplineSet
712 0 m 0,0,1
 647 0 647 0 610 54 c 0,2,3
 577 102 577 102 577 167 c 0,4,5
 577 272 577 272 646 315 c 0,6,7
 679 336 679 336 710 336 c 0,8,9
 776 336 776 336 814 282 c 0,10,11
 845 236 845 236 845 167 c 0,12,13
 845 99 845 99 814 53 c 0,14,15
 778 0 778 0 712 0 c 0,0,1
298 0 m 1,16,-1
 241 0 l 1,17,-1
 688 651 l 1,18,-1
 745 651 l 1,19,-1
 298 0 l 1,16,-1
275 312 m 0,20,21
 211 312 211 312 173 366 c 0,22,23
 140 414 140 414 140 482 c 0,24,25
 140 588 140 588 209 632 c 0,26,27
 242 651 242 651 277 651 c 0,28,29
 341 651 341 651 377 596 c 0,30,31
 409 549 409 549 409 482 c 0,32,33
 409 413 409 413 377 366 c 0,34,35
 341 312 341 312 275 312 c 0,20,21
710 297 m 0,36,37
 662 297 662 297 662 164 c 0,38,39
 662 39 662 39 710 39 c 0,40,41
 761 39 761 39 761 167 c 0,42,43
 761 297 761 297 710 297 c 0,36,37
275 612 m 0,44,45
 226 612 226 612 226 482 c 0,46,47
 226 350 226 350 274 350 c 0,48,49
 325 350 325 350 325 479 c 0,50,51
 325 612 325 612 275 612 c 0,44,45
EndSplineSet
Validated: 1
EndChar

StartChar: ampersand
Encoding: 38 38 9
Width: 753
GlyphClass: 2
Flags: W
LayerCount: 2
Fore
SplineSet
622 0 m 0,0,1
 555 0 555 0 480 90 c 1,2,3
 393 0 393 0 305 0 c 0,4,5
 240 0 240 0 197.5 44 c 128,-1,6
 155 88 155 88 155 155 c 0,7,8
 155 290 155 290 318 402 c 1,9,10
 289 488 289 488 289 546 c 0,11,12
 289 616 289 616 328.5 666.5 c 128,-1,13
 368 717 368 717 435 717 c 0,14,15
 488 717 488 717 520 680 c 128,-1,16
 552 643 552 643 552 589 c 0,17,18
 552 498 552 498 422 406 c 1,19,20
 469 306 469 306 518 219 c 1,21,22
 588 316 588 316 588 379 c 0,23,24
 588 418 588 418 592 437 c 1,25,-1
 637 418 l 1,26,27
 649 408 649 408 649 385 c 0,28,29
 649 359 649 359 635 320 c 0,30,31
 601 243 601 243 549 174 c 1,32,33
 606 93 606 93 657 93 c 0,34,35
 709 93 709 93 728 173 c 1,36,-1
 753 147 l 1,37,38
 725 0 725 0 622 0 c 0,0,1
435 666 m 0,39,40
 373 666 373 666 373 586 c 0,41,42
 373 544 373 544 403 454 c 1,43,44
 496 514 496 514 496 592 c 0,45,46
 496 666 496 666 435 666 c 0,39,40
339 352 m 1,47,48
 253 290 253 290 253 202 c 0,49,50
 253 154 253 154 277 118 c 0,51,52
 302 77 302 77 349 77 c 0,53,54
 390 77 390 77 451 134 c 1,55,56
 377 256 377 256 339 352 c 1,47,48
EndSplineSet
Validated: 1
EndChar

StartChar: quotesingle
Encoding: 39 39 10
Width: 248
GlyphClass: 2
Flags: W
LayerCount: 2
Fore
SplineSet
236 765 m 2,0,-1
 209 600 l 1,1,-1
 178 600 l 1,2,-1
 151 765 l 2,3,4
 140 830 140 830 140 857 c 0,5,6
 140 930 140 930 193 930 c 0,7,8
 248 930 248 930 248 864 c 0,9,10
 248 837 248 837 236 765 c 2,0,-1
EndSplineSet
Validated: 1
EndChar

StartChar: parenleft
Encoding: 40 40 11
Width: 412
GlyphClass: 2
Flags: W
LayerCount: 2
Fore
SplineSet
181 240 m 0,0,1
 154 321 154 321 154 459 c 0,2,3
 154 641 154 641 216 763 c 0,4,5
 288 904 288 904 412 968 c 1,6,-1
 412 929 l 1,7,8
 300 856 300 856 266 673 c 0,9,10
 244 560 244 560 244 473 c 0,11,12
 244 270 244 270 290 150 c 0,13,14
 327 57 327 57 412 -13 c 1,15,-1
 412 -50 l 1,16,17
 245 49 245 49 181 240 c 0,0,1
EndSplineSet
Validated: 1
EndChar

StartChar: parenright
Encoding: 41 41 12
Width: 404
GlyphClass: 2
Flags: W
LayerCount: 2
Fore
SplineSet
376 240 m 0,0,1
 312 49 312 49 146 -50 c 1,2,-1
 146 -13 l 1,3,4
 231 56 231 56 266 150 c 0,5,6
 312 273 312 273 312 473 c 0,7,8
 312 556 312 556 290 673 c 0,9,10
 258 856 258 856 146 929 c 1,11,-1
 146 968 l 1,12,13
 271 902 271 902 341 764 c 0,14,15
 404 643 404 643 404 459 c 0,16,17
 404 321 404 321 376 240 c 0,0,1
EndSplineSet
Validated: 1
EndChar

StartChar: asterisk
Encoding: 42 42 13
Width: 590
GlyphClass: 2
Flags: W
LayerCount: 2
Fore
SplineSet
470 366 m 0,0,1
 439 359 439 359 414 350 c 1,2,3
 438 340 438 340 470 334 c 0,4,5
 588 311 588 311 588 252 c 0,6,7
 588 201 588 201 537 201 c 0,8,9
 494 201 494 201 436 270 c 0,10,11
 417 294 417 294 391 313 c 1,12,13
 393 287 393 287 402 258 c 0,14,15
 425 188 425 188 425 164 c 0,16,17
 425 100 425 100 374 100 c 0,18,19
 314 100 314 100 314 164 c 0,20,21
 314 191 314 191 326 228 c 2,22,-1
 345 287 l 2,23,24
 346 297 346 297 348 313 c 1,25,26
 322 295 322 295 303 273 c 0,27,28
 239 201 239 201 204 201 c 0,29,30
 148 201 148 201 148 252 c 0,31,32
 148 292 148 292 201 316 c 1,33,34
 244 327 244 327 324 351 c 1,35,36
 298 361 298 361 268 367 c 0,37,38
 198 382 198 382 177 396 c 0,39,40
 148 418 148 418 148 449 c 0,41,42
 148 498 148 498 199 498 c 0,43,44
 244 498 244 498 298 434 c 0,45,46
 324 406 324 406 350 386 c 1,47,48
 346 417 346 417 335 447 c 0,49,50
 314 506 314 506 314 529 c 0,51,52
 314 599 314 599 372 599 c 0,53,54
 425 599 425 599 425 530 c 0,55,56
 425 506 425 506 412 460 c 0,57,58
 394 402 394 402 393 386 c 1,59,60
 415 404 415 404 434 426 c 0,61,62
 495 497 495 497 537 497 c 0,63,64
 590 497 590 497 590 444 c 0,65,66
 590 393 590 393 470 366 c 0,0,1
EndSplineSet
Validated: 1
EndChar

StartChar: plus
Encoding: 43 43 14
Width: 796
GlyphClass: 2
Flags: W
LayerCount: 2
Fore
SplineSet
505 311 m 1,0,-1
 505 20 l 1,1,-1
 438 20 l 1,2,-1
 438 311 l 1,3,-1
 148 311 l 1,4,-1
 148 378 l 1,5,-1
 438 378 l 1,6,-1
 438 668 l 1,7,-1
 505 668 l 1,8,-1
 505 378 l 1,9,-1
 796 378 l 1,10,-1
 796 311 l 1,11,-1
 505 311 l 1,0,-1
EndSplineSet
Validated: 1
EndChar

StartChar: comma
Encoding: 44 44 15
Width: 329
GlyphClass: 2
Flags: W
LayerCount: 2
Fore
SplineSet
152 -150 m 1,0,-1
 152 -97 l 1,1,2
 270 -57 270 -57 270 47 c 0,3,4
 270 63 270 63 267 69 c 1,5,6
 266 63 266 63 255 50.5 c 128,-1,7
 244 38 244 38 221 38 c 0,8,9
 144 38 144 38 144 116 c 0,10,11
 144 155 144 155 169 175 c 0,12,13
 195 196 195 196 234 196 c 0,14,15
 331 196 331 196 331 64 c 0,16,17
 331 -87 331 -87 152 -150 c 1,0,-1
EndSplineSet
Validated: 1
EndChar

StartChar: hyphen
Encoding: 45 45 16
Width: 481
GlyphClass: 2
Flags: W
LayerCount: 2
Fore
SplineSet
140 300 m 1,0,-1
 140 366 l 1,1,-1
 481 366 l 1,2,-1
 481 300 l 1,3,-1
 140 300 l 1,0,-1
EndSplineSet
Validated: 1
EndChar

StartChar: period
Encoding: 46 46 17
Width: 279
GlyphClass: 2
Flags: W
LayerCount: 2
Fore
SplineSet
210 50 m 0,0,1
 179 49 179 49 159.5 69.5 c 128,-1,2
 140 90 140 90 140 119 c 0,3,4
 142 189 142 189 210 193 c 1,5,6
 278 191 278 191 279 119 c 0,7,8
 279 90 279 90 259 69.5 c 128,-1,9
 239 49 239 49 210 50 c 0,0,1
EndSplineSet
Validated: 33
EndChar

StartChar: slash
Encoding: 47 47 18
Width: 630
GlyphClass: 2
Flags: W
LayerCount: 2
Fore
SplineSet
218 -20 m 1,0,-1
 140 -20 l 1,1,-1
 556 874 l 1,2,-1
 630 874 l 1,3,-1
 218 -20 l 1,0,-1
EndSplineSet
Validated: 1
EndChar

StartChar: zero
Encoding: 48 48 19
Width: 591
GlyphClass: 2
Flags: W
LayerCount: 2
Fore
SplineSet
381 -4 m 0,0,1
 253 -4 253 -4 201 143 c 0,2,3
 159 261 159 261 159 409 c 0,4,5
 159 551 159 551 216 648 c 0,6,7
 287 769 287 769 392 769 c 0,8,9
 513 769 513 769 562 615 c 0,10,11
 600 495 600 495 600 358 c 0,12,13
 600 222 600 222 549 123 c 0,14,15
 484 -4 484 -4 381 -4 c 0,0,1
384 685 m 0,16,17
 317 685 317 685 273 586 c 0,18,19
 231 492 231 492 231 366 c 0,20,21
 231 275 231 275 259 197 c 0,22,23
 292 106 292 106 368 93 c 0,24,25
 374 92 374 92 381 92 c 0,26,27
 449 92 449 92 495 191 c 0,28,29
 531 268 531 268 531 375 c 0,30,31
 531 476 531 476 504 568 c 0,32,33
 470 685 470 685 384 685 c 0,16,17
EndSplineSet
Validated: 1
EndChar

StartChar: one
Encoding: 49 49 20
Width: 401
GlyphClass: 2
Flags: W
LayerCount: 2
Fore
SplineSet
315 -3 m 1,0,-1
 315 644 l 1,1,-1
 194 510 l 1,2,-1
 150 567 l 1,3,-1
 317 757 l 1,4,-1
 401 757 l 1,5,-1
 401 -5 l 1,6,-1
 315 -3 l 1,0,-1
EndSplineSet
Validated: 1
EndChar

StartChar: two
Encoding: 50 50 21
Width: 568
GlyphClass: 2
Flags: W
LayerCount: 2
Fore
SplineSet
143 -4 m 1,0,-1
 391 334 l 2,1,2
 481 459 481 459 481 552 c 0,3,4
 481 672 481 672 380 672 c 0,5,6
 334 672 334 672 295 632.5 c 128,-1,7
 256 593 256 593 256 530 c 1,8,-1
 184 543 l 1,9,10
 184 611 184 611 221 665 c 0,11,12
 291 767 291 767 394 767 c 0,13,14
 476 767 476 767 523 689 c 0,15,16
 559 630 559 630 559 555 c 0,17,18
 559 459 559 459 503 350 c 0,19,20
 469 284 469 284 442 249 c 2,21,-1
 317 95 l 1,22,-1
 568 95 l 1,23,-1
 568 -4 l 1,24,-1
 143 -4 l 1,0,-1
EndSplineSet
Validated: 1
EndChar

StartChar: three
Encoding: 51 51 22
Width: 537
GlyphClass: 2
Flags: W
LayerCount: 2
Fore
SplineSet
351 18 m 0,0,1
 251 11 251 11 195 92 c 0,2,3
 156 148 156 148 150 222 c 1,4,-1
 217 242 l 1,5,6
 237 113 237 113 353 114 c 0,7,8
 403 114 403 114 437 155.5 c 128,-1,9
 471 197 471 197 470 256 c 0,10,11
 468 327 468 327 412 361 c 0,12,13
 378 380 378 380 344 380 c 1,14,-1
 291 388 l 1,15,-1
 291 480 l 1,16,17
 376 499 376 499 399 509 c 0,18,19
 452 536 452 536 461 595 c 1,20,21
 464 651 464 651 425 684 c 0,22,23
 393 712 393 712 342 712 c 1,24,25
 228 701 228 701 229 584 c 1,26,-1
 171 596 l 1,27,28
 165 616 165 616 168 628 c 0,29,30
 169 707 169 707 227 756 c 0,31,32
 280 800 280 800 353 803 c 0,33,34
 437 806 437 806 493 745 c 128,-1,35
 549 684 549 684 538 588 c 0,36,37
 527 483 527 483 449 438 c 1,38,39
 548 382 548 382 546 250 c 0,40,41
 546 148 546 148 494.5 85.5 c 128,-1,42
 443 23 443 23 351 18 c 0,0,1
EndSplineSet
Validated: 33
EndChar

StartChar: four
Encoding: 52 52 23
Width: 652
GlyphClass: 2
Flags: W
LayerCount: 2
Fore
SplineSet
529 199 m 1,0,-1
 529 -10 l 1,1,-1
 431 -10 l 1,2,-1
 431 199 l 1,3,-1
 152 199 l 1,4,-1
 152 319 l 1,5,-1
 509 824 l 1,6,-1
 568 744 l 1,7,-1
 258 302 l 1,8,-1
 430 302 l 1,9,-1
 430 471 l 1,10,-1
 530 572 l 1,11,-1
 530 300 l 1,12,-1
 658 300 l 1,13,-1
 658 199 l 1,14,-1
 529 199 l 1,0,-1
EndSplineSet
Validated: 1
EndChar

StartChar: five
Encoding: 53 53 24
Width: 581
GlyphClass: 2
Flags: W
LayerCount: 2
Fore
SplineSet
158 153 m 1,0,-1
 192 151 l 1,1,2
 217 79 217 79 301 79 c 0,3,4
 322 79 322 79 347 84 c 0,5,6
 407 96 407 96 445 141.5 c 128,-1,7
 483 187 483 187 481 247 c 0,8,9
 478 356 478 356 419 400 c 0,10,11
 373 434 373 434 277 434 c 0,12,13
 245 434 245 434 187 430 c 1,14,-1
 187 741 l 1,15,-1
 571 741 l 1,16,-1
 571 640 l 1,17,-1
 282 640 l 1,18,-1
 282 510 l 1,19,-1
 312 511 l 2,20,21
 435 515 435 515 516 442 c 128,-1,22
 597 369 597 369 585 237 c 1,23,24
 585 135 585 135 518 67 c 128,-1,25
 451 -1 451 -1 344 -4 c 0,26,27
 256 -7 256 -7 206 33 c 0,28,29
 151 75 151 75 158 153 c 1,0,-1
EndSplineSet
Validated: 33
EndChar

StartChar: six
Encoding: 54 54 25
Width: 548
GlyphClass: 2
Flags: W
LayerCount: 2
Fore
SplineSet
391 -4 m 0,0,1
 253 -13 253 -13 193 107 c 0,2,3
 147 206 147 206 154 345 c 0,4,5
 168 566 168 566 283 676 c 0,6,7
 372 763 372 763 478 763 c 0,8,9
 522 763 522 763 561 733 c 1,10,11
 451 719 451 719 375 655 c 0,12,13
 252 556 252 556 242 365 c 1,14,15
 287 421 287 421 372 421 c 0,16,17
 482 421 482 421 531 343 c 0,18,19
 567 285 567 285 567 211 c 0,20,21
 567 122 567 122 519 61.5 c 128,-1,22
 471 1 471 1 391 -4 c 0,0,1
406 339 m 0,23,24
 385 344 385 344 363 344 c 1,25,26
 257 323 257 323 257 204 c 1,27,28
 273 88 273 88 383 88 c 1,29,30
 437 93 437 93 463 136 c 128,-1,31
 489 179 489 179 484 217 c 0,32,33
 480 317 480 317 406 339 c 0,23,24
EndSplineSet
Validated: 33
EndChar

StartChar: seven
Encoding: 55 55 26
Width: 580
GlyphClass: 2
Flags: W
LayerCount: 2
Fore
SplineSet
316 -7 m 1,0,-1
 248 -7 l 1,1,-1
 498 627 l 1,2,-1
 204 627 l 1,3,-1
 152 574 l 1,4,-1
 152 742 l 1,5,-1
 579 742 l 1,6,-1
 580 650 l 1,7,-1
 316 -7 l 1,0,-1
EndSplineSet
Validated: 1
EndChar

StartChar: eight
Encoding: 56 56 27
Width: 609
GlyphClass: 2
Flags: W
LayerCount: 2
Fore
SplineSet
383 -4 m 0,1,2
 287 -8 287 -8 222 46 c 0,3,4
 149 108 149 108 143 214 c 1,5,6
 149 353 149 353 272 425 c 1,7,8
 182 477 182 477 185 597 c 1,9,10
 196 688 196 688 261 741 c 1,11,12
 296 778 296 778 379 780 c 1,13,14
 461 786 461 786 519.5 724 c 128,-1,15
 578 662 578 662 568 572 c 0,16,17
 561 490 561 490 490 427 c 1,18,19
 548 400 548 400 583 343.5 c 128,-1,20
 618 287 618 287 615 217 c 0,21,22
 609 109 609 109 545 53 c 128,-1,0
 481 -3 481 -3 383 -4 c 0,1,2
380 702 m 0,23,24
 275 696 275 696 269 579 c 1,25,26
 275 529 275 529 309.5 498 c 128,-1,27
 344 467 344 467 394 470 c 1,28,29
 481 489 481 489 490 586 c 1,30,31
 490 639 490 639 459 671 c 128,-1,32
 428 703 428 703 380 702 c 0,23,24
484 325 m 1,33,34
 446 367 446 367 385 374 c 1,35,36
 322 376 322 376 278.5 336 c 128,-1,37
 235 296 235 296 232 226 c 256,38,39
 229 156 229 156 271 113.5 c 128,-1,40
 313 71 313 71 374 71 c 0,41,42
 430 71 430 71 471.5 110.5 c 128,-1,43
 513 150 513 150 513 222 c 0,44,45
 513 282 513 282 484 325 c 1,33,34
EndSplineSet
Validated: 33
EndChar

StartChar: nine
Encoding: 57 57 28
Width: 548
GlyphClass: 2
Flags: W
LayerCount: 2
Fore
SplineSet
316 763 m 0,0,1
 454 773 454 773 514 650 c 0,2,3
 560 552 560 552 553 413 c 0,4,5
 539 192 539 192 424 82 c 0,6,7
 335 -5 335 -5 229 -5 c 0,8,9
 185 -5 185 -5 146 25 c 1,10,11
 256 39 256 39 332 102 c 0,12,13
 455 201 455 201 465 392 c 1,14,15
 420 337 420 337 335 337 c 0,16,17
 225 337 225 337 176 415 c 0,18,19
 140 473 140 473 140 547 c 0,20,21
 140 636 140 636 188 696 c 128,-1,22
 236 756 236 756 316 763 c 0,0,1
301 419 m 0,23,24
 322 413 322 413 344 413 c 1,25,26
 450 435 450 435 447 555 c 1,27,28
 434 670 434 670 324 670 c 1,29,30
 270 664 270 664 244 621.5 c 128,-1,31
 218 579 218 579 223 541 c 0,32,33
 227 441 227 441 301 419 c 0,23,24
EndSplineSet
Validated: 33
EndChar

StartChar: colon
Encoding: 58 58 29
Width: 276
GlyphClass: 2
Flags: W
LayerCount: 2
Fore
SplineSet
209 445 m 0,0,1
 182 445 182 445 162 467.5 c 128,-1,2
 142 490 142 490 142 519 c 0,3,4
 142 549 142 549 161 571.5 c 128,-1,5
 180 594 180 594 209 594 c 0,6,7
 276 594 276 594 276 519 c 0,8,9
 276 490 276 490 257 467.5 c 128,-1,10
 238 445 238 445 209 445 c 0,0,1
209 50 m 256,11,12
 180 50 180 50 160 71.5 c 128,-1,13
 140 93 140 93 140 125 c 0,14,15
 140 156 140 156 160 177.5 c 128,-1,16
 180 199 180 199 209 199 c 256,17,18
 238 199 238 199 257 177.5 c 128,-1,19
 276 156 276 156 276 125 c 0,20,21
 276 95 276 95 257 72.5 c 128,-1,22
 238 50 238 50 209 50 c 256,11,12
EndSplineSet
Validated: 1
EndChar

StartChar: semicolon
Encoding: 59 59 30
Width: 325
GlyphClass: 2
Flags: W
LayerCount: 2
Fore
SplineSet
236 506 m 0,0,1
 200 509 200 509 182 531.5 c 128,-1,2
 164 554 164 554 164 587 c 0,3,4
 164 621 164 621 185 643.5 c 128,-1,5
 206 666 206 666 236 666 c 0,6,7
 313 666 313 666 316 589 c 0,8,9
 317 506 317 506 236 506 c 0,0,1
148 -40 m 1,10,-1
 148 3 l 1,11,12
 259 43 259 43 267 152 c 0,13,14
 268 170 268 170 267 181 c 1,15,16
 260 170 260 170 246 160 c 128,-1,17
 232 150 232 150 214 150 c 0,18,19
 144 157 144 157 148 226 c 0,20,21
 148 259 148 259 171.5 282.5 c 128,-1,22
 195 306 195 306 227 306 c 0,23,24
 273 306 273 306 303 261 c 0,25,26
 329 221 329 221 329 171 c 0,27,28
 329 26 329 26 148 -40 c 1,10,-1
EndSplineSet
Validated: 33
EndChar

StartChar: less
Encoding: 60 60 31
Width: 791
GlyphClass: 2
Flags: W
LayerCount: 2
Fore
SplineSet
143 290 m 1,0,-1
 143 330 l 1,1,-1
 791 621 l 1,2,-1
 791 549 l 1,3,-1
 257 307 l 1,4,-1
 791 70 l 1,5,-1
 791 0 l 1,6,-1
 143 290 l 1,0,-1
EndSplineSet
Validated: 1
EndChar

StartChar: equal
Encoding: 61 61 32
Width: 790
GlyphClass: 2
Flags: W
LayerCount: 2
Fore
SplineSet
140 384 m 1,0,-1
 140 445 l 1,1,-1
 790 445 l 1,2,-1
 790 384 l 1,3,-1
 140 384 l 1,0,-1
140 200 m 1,4,-1
 140 261 l 1,5,-1
 790 261 l 1,6,-1
 790 200 l 1,7,-1
 140 200 l 1,4,-1
EndSplineSet
Validated: 1
EndChar

StartChar: greater
Encoding: 62 62 33
Width: 788
GlyphClass: 2
Flags: W
LayerCount: 2
Fore
SplineSet
140 0 m 1,0,-1
 140 70 l 1,1,-1
 674 307 l 1,2,-1
 140 549 l 1,3,-1
 140 621 l 1,4,-1
 788 330 l 1,5,-1
 788 290 l 1,6,-1
 140 0 l 1,0,-1
EndSplineSet
Validated: 1
EndChar

StartChar: question
Encoding: 63 63 34
Width: 579
GlyphClass: 2
Flags: W
LayerCount: 2
Fore
SplineSet
489 424 m 0,0,1
 420 339 420 339 403 309 c 0,2,3
 375 254 375 254 371 166 c 1,4,-1
 332 166 l 1,5,6
 339 302 339 302 407 445 c 0,7,8
 460 554 460 554 460 619 c 0,9,10
 460 683 460 683 431 728 c 0,11,12
 398 782 398 782 339 782 c 0,13,14
 241 782 241 782 241 709 c 0,15,16
 241 693 241 693 258 657 c 128,-1,17
 275 621 275 621 275 605 c 0,18,19
 275 544 275 544 222 544 c 0,20,21
 188 544 188 544 169 581 c 0,22,23
 153 611 153 611 153 648 c 0,24,25
 153 731 153 731 217 784 c 0,26,27
 276 832 276 832 361 832 c 0,28,29
 455 832 455 832 517 777.5 c 128,-1,30
 579 723 579 723 579 630 c 0,31,32
 579 536 579 536 489 424 c 0,0,1
355 -44 m 1,33,34
 326 -48 326 -48 302 -24.5 c 128,-1,35
 278 -1 278 -1 277 29 c 0,36,37
 280 103 280 103 355 106 c 0,38,39
 385 106 385 106 406.5 83.5 c 128,-1,40
 428 61 428 61 427 29 c 0,41,42
 429 -2 429 -2 406 -25 c 128,-1,43
 383 -48 383 -48 355 -44 c 1,33,34
EndSplineSet
Validated: 33
EndChar

StartChar: at
Encoding: 64 64 35
Width: 841
GlyphClass: 2
Flags: W
LayerCount: 2
Fore
SplineSet
503 0 m 0,1,2
 287 0 287 0 196 171 c 0,3,4
 153 253 153 253 153 352 c 0,5,6
 153 579 153 579 337 688 c 0,7,8
 425 741 425 741 521 741 c 0,9,10
 705 741 705 741 774 605 c 0,11,12
 807 539 807 539 807 467 c 0,13,14
 807 398 807 398 780 330 c 0,15,16
 748 251 748 251 697 217.5 c 128,-1,17
 646 184 646 184 593 184 c 0,18,19
 527 184 527 184 527 245 c 0,20,21
 527 258 527 258 529 274 c 1,22,23
 451 184 451 184 395 184 c 0,24,25
 358 184 358 184 335 216 c 0,26,27
 318 243 318 243 318 282 c 0,28,29
 318 362 318 362 383 458 c 0,30,31
 455 562 455 562 534 562 c 0,32,33
 577 562 577 562 596 526 c 1,34,-1
 604 550 l 1,35,-1
 679 560 l 1,36,-1
 633 394 l 2,37,38
 598 267 598 267 598 250 c 0,39,40
 598 227 598 227 617 227 c 0,41,42
 694 227 694 227 743 342 c 0,43,44
 771 406 771 406 771 474 c 0,45,46
 771 614 771 614 655 675 c 0,47,48
 601 704 601 704 534 704 c 0,49,50
 356 704 356 704 268 525 c 0,51,52
 227 438 227 438 227 341 c 0,53,54
 227 147 227 147 359 75 c 0,55,56
 428 38 428 38 505 38 c 0,57,58
 715 38 715 38 803 254 c 1,59,-1
 841 254 l 1,60,61
 803 133 803 133 711.5 66.5 c 128,-1,0
 620 0 620 0 503 0 c 0,1,2
535 528 m 0,62,63
 471 528 471 528 414 381 c 0,64,65
 393 326 393 326 393 293 c 0,66,67
 393 246 393 246 428 246 c 0,68,69
 484 246 484 246 534 338 c 0,70,71
 577 418 577 418 577 480 c 0,72,73
 577 528 577 528 535 528 c 0,62,63
EndSplineSet
Validated: 1
EndChar

StartChar: bracketleft
Encoding: 91 91 36
Width: 412
GlyphClass: 2
Flags: W
LayerCount: 2
Fore
SplineSet
140 -50 m 1,0,-1
 140 952 l 1,1,-1
 407 952 l 1,2,-1
 407 873 l 1,3,-1
 222 873 l 1,4,-1
 222 30 l 1,5,-1
 412 30 l 1,6,-1
 412 -50 l 1,7,-1
 140 -50 l 1,0,-1
EndSplineSet
Validated: 1
EndChar

StartChar: backslash
Encoding: 92 92 37
Width: 590
GlyphClass: 2
Flags: W
LayerCount: 2
Fore
SplineSet
519 0 m 1,0,-1
 140 750 l 1,1,-1
 214 800 l 1,2,-1
 590 50 l 1,3,-1
 519 0 l 1,0,-1
EndSplineSet
Validated: 1
EndChar

StartChar: bracketright
Encoding: 93 93 38
Width: 412
GlyphClass: 2
Flags: W
LayerCount: 2
Fore
SplineSet
140 -50 m 1,0,-1
 140 30 l 1,1,-1
 330 30 l 1,2,-1
 330 873 l 1,3,-1
 145 873 l 1,4,-1
 145 952 l 1,5,-1
 412 952 l 1,6,-1
 412 -50 l 1,7,-1
 140 -50 l 1,0,-1
EndSplineSet
Validated: 1
EndChar

StartChar: asciicircum
Encoding: 94 94 39
Width: 914
GlyphClass: 2
Flags: W
LayerCount: 2
Fore
SplineSet
817 500 m 1,0,-1
 527 983 l 1,1,-1
 238 500 l 1,2,-1
 140 500 l 1,3,-1
 511 1116 l 1,4,-1
 548 1116 l 1,5,-1
 914 500 l 1,6,-1
 817 500 l 1,0,-1
EndSplineSet
Validated: 1
EndChar

StartChar: underscore
Encoding: 95 95 40
Width: 1060
GlyphClass: 2
Flags: W
LayerCount: 2
Fore
SplineSet
150 -635 m 1,0,-1
 150 -550 l 1,1,-1
 1060 -550 l 1,2,-1
 1060 -635 l 1,3,-1
 150 -635 l 1,0,-1
EndSplineSet
Validated: 1
EndChar

StartChar: graveaccent
Encoding: 96 96 41
Width: 290
GlyphClass: 2
Flags: W
LayerCount: 2
Fore
SplineSet
247 637 m 1,0,-1
 140 832 l 1,1,-1
 215 855 l 1,2,-1
 290 637 l 1,3,-1
 247 637 l 1,0,-1
EndSplineSet
Validated: 1
EndChar

StartChar: leftcurly
Encoding: 123 123 42
Width: 446
GlyphClass: 2
Flags: W
LayerCount: 2
Fore
SplineSet
300 16 m 0,0,1
 238 72 238 72 238 155 c 0,2,3
 238 182 238 182 249 235.5 c 128,-1,4
 260 289 260 289 260 315 c 0,5,6
 260 398 260 398 140 416 c 1,7,-1
 140 449 l 1,8,9
 194 457 194 457 225 480 c 0,10,11
 260 508 260 508 260 550 c 0,12,13
 260 576 260 576 249 629.5 c 128,-1,14
 238 683 238 683 238 710 c 0,15,16
 238 793 238 793 300 849 c 0,17,18
 354 902 354 902 446 915 c 1,19,-1
 446 880 l 1,20,21
 329 854 329 854 329 769 c 0,22,23
 329 744 329 744 341 689.5 c 128,-1,24
 353 635 353 635 353 608 c 0,25,26
 353 489 353 489 215 433 c 1,27,28
 353 376 353 376 353 257 c 0,29,30
 353 230 353 230 341 176.5 c 128,-1,31
 329 123 329 123 329 96 c 0,32,33
 329 11 329 11 446 -16 c 1,34,-1
 446 -50 l 1,35,36
 354 -37 354 -37 300 16 c 0,0,1
EndSplineSet
Validated: 1
EndChar

StartChar: bar
Encoding: 124 124 43
Width: 193
GlyphClass: 2
Flags: W
LayerCount: 2
Fore
SplineSet
140 0 m 1,0,-1
 140 925 l 1,1,-1
 193 925 l 1,2,-1
 193 0 l 1,3,-1
 140 0 l 1,0,-1
EndSplineSet
Validated: 1
EndChar

StartChar: rightcurly
Encoding: 125 125 44
Width: 447
GlyphClass: 2
Flags: W
LayerCount: 2
Fore
SplineSet
326 315 m 0,0,1
 326 289 326 289 337 235.5 c 128,-1,2
 348 182 348 182 348 155 c 0,3,4
 348 73 348 73 286 16 c 0,5,6
 230 -37 230 -37 140 -50 c 1,7,-1
 140 -16 l 1,8,9
 255 11 255 11 255 96 c 0,10,11
 255 123 255 123 244 176.5 c 128,-1,12
 233 230 233 230 233 257 c 0,13,14
 233 376 233 376 370 433 c 1,15,16
 233 489 233 489 233 608 c 0,17,18
 233 635 233 635 244 689.5 c 128,-1,19
 255 744 255 744 255 769 c 0,20,21
 255 854 255 854 140 880 c 1,22,-1
 140 915 l 1,23,24
 230 902 230 902 286 849 c 0,25,26
 348 792 348 792 348 710 c 0,27,28
 348 683 348 683 337 629.5 c 128,-1,29
 326 576 326 576 326 550 c 0,30,31
 326 507 326 507 364 478 c 0,32,33
 393 457 393 457 447 449 c 1,34,-1
 447 416 l 1,35,36
 326 398 326 398 326 315 c 0,0,1
EndSplineSet
Validated: 1
EndChar

StartChar: asciitilde
Encoding: 126 126 45
Width: 885
GlyphClass: 4
Flags: W
LayerCount: 2
Fore
SplineSet
854 691 m 1,0,-1
 885 691 l 1,1,2
 880 515 880 515 717 500 c 0,3,4
 670 497 670 497 461 583 c 0,5,6
 354 628 354 628 310 628 c 0,7,8
 208 628 208 628 182 502 c 1,9,-1
 152 502 l 1,10,11
 155 580 155 580 194 633 c 0,12,13
 237 694 237 694 312 694 c 0,14,15
 342 694 342 694 374 684 c 0,16,17
 398 678 398 678 555 614 c 0,18,19
 683 563 683 563 726 563 c 0,20,21
 842 563 842 563 854 691 c 1,0,-1
EndSplineSet
Validated: 33
EndChar

StartChar: Divide
Encoding: 247 247 46
Width: 964
GlyphClass: 2
Flags: W
LayerCount: 2
Fore
SplineSet
664 573 m 0,0,1
 624 542 624 542 570 544 c 0,2,3
 456 552 456 552 453 632 c 0,4,5
 450 678 450 678 485 705.5 c 128,-1,6
 520 733 520 733 568 734 c 0,7,8
 654 734 654 734 679.5 700.5 c 128,-1,9
 705 667 705 667 698 638 c 1,10,11
 698 598 698 598 664 573 c 0,0,1
153 427 m 1,12,-1
 153 509 l 1,13,-1
 964 509 l 1,14,-1
 964 427 l 1,15,-1
 153 427 l 1,12,-1
583 200 m 0,16,17
 460 202 460 202 455 286 c 0,18,19
 452 333 452 333 489 363 c 0,20,21
 521 389 521 389 571 392 c 1,22,23
 653 390 653 390 678 361 c 128,-1,24
 703 332 703 332 699 304 c 1,25,26
 702 259 702 259 663 229 c 0,27,28
 631 203 631 203 583 200 c 0,16,17
EndSplineSet
Validated: 33
EndChar

StartChar: Arasunna
Encoding: 3073 3073 47
Width: 374
GlyphClass: 2
Flags: W
LayerCount: 2
Fore
SplineSet
137 225 m 0,0,1
 137 301 137 301 191 365 c 0,2,3
 249 432 249 432 333 440 c 0,4,5
 377 444 377 444 377 433 c 0,6,7
 377 429 377 429 371 426 c 0,8,9
 283 384 283 384 249 335 c 0,10,11
 220 292 220 292 220 222 c 0,12,13
 220 164 220 164 245 113 c 0,14,15
 274 55 274 55 324 36 c 0,16,17
 370 19 370 19 370 8 c 0,18,19
 370 -2 370 -2 349 -2 c 0,20,21
 254 -2 254 -2 195.5 64 c 128,-1,22
 137 130 137 130 137 225 c 0,0,1
EndSplineSet
Validated: 33
EndChar

StartChar: Anusvara
Encoding: 3074 3074 48
Width: 577
GlyphClass: 2
Flags: W
LayerCount: 2
Fore
SplineSet
576 222 m 0,0,1
 576 117 576 117 511.5 58.5 c 128,-1,2
 447 0 447 0 358 0 c 0,3,4
 245 0 245 0 185 69 c 0,5,6
 130 132 130 132 130 233 c 0,7,8
 130 331 130 331 188 386 c 0,9,10
 257 451 257 451 362 451 c 0,11,12
 456 451 456 451 519 376 c 0,13,14
 576 308 576 308 576 222 c 0,0,1
358 400 m 0,15,16
 286 400 286 400 240 358 c 0,17,18
 191 313 191 313 191 245 c 0,19,20
 191 184 191 184 234 141 c 128,-1,21
 277 98 277 98 341 98 c 0,22,23
 409 98 409 98 459 130 c 0,24,25
 515 166 515 166 515 249 c 0,26,27
 515 314 515 314 470 357 c 128,-1,28
 425 400 425 400 358 400 c 0,15,16
EndSplineSet
Validated: 1
Ligature2: "'rlig' Required Ligatures lookup 1 subtable" Telugu_A JWJ Anusvara
EndChar

StartChar: Visarga
Encoding: 3075 3075 49
Width: 383
GlyphClass: 4
Flags: W
LayerCount: 2
Fore
SplineSet
259 367 m 0,0,1
 195 367 195 367 162 407 c 0,2,3
 132 443 132 443 132 502 c 0,4,5
 132 554 132 554 166.5 590.5 c 128,-1,6
 201 627 201 627 254 627 c 0,7,8
 315 627 315 627 350 591.5 c 128,-1,9
 385 556 385 556 385 496 c 0,10,11
 385 439 385 439 350 403 c 128,-1,12
 315 367 315 367 259 367 c 0,0,1
262 580 m 0,13,14
 185 580 185 580 185 510 c 0,15,16
 185 480 185 480 206.5 461.5 c 128,-1,17
 228 443 228 443 257 443 c 0,18,19
 334 443 334 443 334 514 c 0,20,21
 334 542 334 542 312.5 561 c 128,-1,22
 291 580 291 580 262 580 c 0,13,14
260 0 m 0,23,24
 132 0 132 0 132 132 c 0,25,26
 132 182 132 182 166.5 219.5 c 128,-1,27
 201 257 201 257 254 257 c 0,28,29
 313 257 313 257 349.5 222 c 128,-1,30
 386 187 386 187 386 129 c 0,31,32
 386 70 386 70 352.5 35 c 128,-1,33
 319 0 319 0 260 0 c 0,23,24
262 210 m 0,34,35
 185 210 185 210 185 140 c 0,36,37
 185 110 185 110 206 91.5 c 128,-1,38
 227 73 227 73 257 73 c 0,39,40
 334 73 334 73 334 144 c 0,41,42
 334 172 334 172 312.5 191 c 128,-1,43
 291 210 291 210 262 210 c 0,34,35
EndSplineSet
Validated: 1
Ligature2: "'rlig' Required Ligatures lookup 1 subtable" Telugu_A JWJ Visarga
EndChar

StartChar: Telugu_A
Encoding: 3077 3077 50
Width: 853
GlyphClass: 2
Flags: W
LayerCount: 2
Fore
SplineSet
350 312 m 1,0,1
 225 312 225 312 203 396 c 1,2,3
 203 117 203 117 495 117 c 0,4,5
 642 117 642 117 714 173 c 0,6,7
 794 236 794 236 794 378 c 0,8,9
 794 511 794 511 698 511 c 0,10,11
 666 511 666 511 643.5 493 c 128,-1,12
 621 475 621 475 621 443 c 0,13,14
 621 356 621 356 750 324 c 1,15,16
 757 313 757 313 757 295 c 0,17,18
 757 273 757 273 746 244 c 1,19,-1
 375 244 l 2,20,21
 341 244 341 244 341 287 c 0,22,23
 341 297 341 297 350 312 c 1,0,1
502 -4 m 0,24,25
 352 -4 352 -4 251 98 c 128,-1,26
 150 200 150 200 150 351 c 0,27,28
 150 444 150 444 193 504 c 0,29,30
 242 571 242 571 331 571 c 0,31,32
 384 571 384 571 424 533 c 128,-1,33
 464 495 464 495 464 443 c 0,34,35
 464 400 464 400 451 375 c 0,36,37
 442 360 442 360 408 322 c 1,38,-1
 610 322 l 1,39,40
 546 371 546 371 546 429 c 0,41,42
 546 501 546 501 585 539 c 128,-1,43
 624 577 624 577 692 577 c 0,44,45
 789 577 789 577 827 498 c 0,46,47
 853 444 853 444 853 349 c 0,48,49
 853 187 853 187 757.5 91.5 c 128,-1,50
 662 -4 662 -4 502 -4 c 0,24,25
324 383 m 0,51,52
 362 383 362 383 383 404 c 128,-1,53
 404 425 404 425 404 453 c 0,54,55
 404 480 404 480 384.5 499 c 128,-1,56
 365 518 365 518 329 518 c 0,57,58
 289 518 289 518 268 498 c 128,-1,59
 247 478 247 478 247 450 c 0,60,61
 247 423 247 423 267.5 403 c 128,-1,62
 288 383 288 383 324 383 c 0,51,52
EndSplineSet
Validated: 1
EndChar

StartChar: AA
Encoding: 3078 3078 51
Width: 872
GlyphClass: 2
Flags: W
LayerCount: 2
Fore
SplineSet
792 286 m 1,0,1
 838 237 838 237 838 192 c 0,2,3
 838 86 838 86 726 34 c 0,4,5
 644 -4 644 -4 519 -4 c 0,6,7
 150 -4 150 -4 150 329 c 0,8,9
 150 413 150 413 195 481 c 0,10,11
 244 555 244 555 326 555 c 0,12,13
 381 555 381 555 421.5 520.5 c 128,-1,14
 462 486 462 486 462 431 c 0,15,16
 462 362 462 362 407 321 c 1,17,-1
 640 321 l 1,18,19
 580 390 580 390 580 443 c 0,20,21
 580 499 580 499 615.5 532 c 128,-1,22
 651 565 651 565 708 565 c 0,23,24
 774 565 774 565 822 526 c 0,25,26
 873 483 873 483 873 419 c 0,27,28
 873 356 873 356 792 286 c 1,0,1
801 423 m 0,29,30
 801 455 801 455 774 473 c 0,31,32
 750 488 750 488 716 488 c 0,33,34
 645 488 645 488 645 429 c 256,35,36
 645 370 645 370 738 336 c 1,37,38
 801 371 801 371 801 423 c 0,29,30
321 368 m 0,39,40
 359 368 359 368 383 388 c 0,41,42
 404 407 404 407 404 433 c 0,43,44
 404 491 404 491 326 491 c 0,45,46
 289 491 289 491 267.5 471.5 c 128,-1,47
 246 452 246 452 246 426 c 0,48,49
 246 368 246 368 321 368 c 0,39,40
334 244 m 1,50,-1
 334 299 l 1,51,52
 244 299 244 299 216 364 c 1,53,-1
 216 324 l 2,54,55
 216 176 216 176 330 131 c 0,56,57
 393 106 393 106 577 106 c 0,58,59
 770 106 770 106 770 189 c 0,60,61
 770 244 770 244 738 244 c 2,62,-1
 334 244 l 1,50,-1
EndSplineSet
Validated: 1
Substitution2: "'aalt' Access All Alternates lookup 0 subtable" AAMatra
EndChar

StartChar: Telugu_I
Encoding: 3079 3079 52
Width: 718
GlyphClass: 2
Flags: W
LayerCount: 2
Fore
SplineSet
643 139 m 1,0,1
 691 75 691 75 691 47 c 0,2,3
 691 -8 691 -8 650 -55.5 c 128,-1,4
 609 -103 609 -103 554 -103 c 0,5,6
 529 -103 529 -103 509 -89 c 128,-1,7
 489 -75 489 -75 489 -51 c 0,8,9
 489 -10 489 -10 543 -10 c 0,10,11
 626 -10 626 -10 626 49 c 0,12,13
 626 57 626 57 600 86 c 1,14,15
 535 34 535 34 484 14 c 0,16,17
 438 -4 438 -4 371 -4 c 0,18,19
 296 -4 296 -4 238 35 c 0,20,21
 171 80 171 80 171 151 c 0,22,23
 171 218 171 218 247 250 c 0,24,25
 302 273 302 273 380 273 c 0,26,27
 447 273 447 273 497 251 c 0,28,29
 522 240 522 240 600 190 c 1,30,31
 655 260 655 260 655 356 c 0,32,33
 655 409 655 409 624 441 c 128,-1,34
 593 473 593 473 536 473 c 0,35,36
 453 473 453 473 432 349 c 0,37,38
 428 323 428 323 418 323 c 0,39,40
 413 323 413 323 406 328 c 1,41,42
 378 426 378 426 375 431 c 0,43,44
 352 474 352 474 286 474 c 0,45,46
 207 474 207 474 207 429 c 0,47,48
 207 412 207 412 222 387 c 128,-1,49
 237 362 237 362 251 351 c 1,50,51
 251 319 251 319 227 319 c 0,52,53
 195 319 195 319 172.5 348.5 c 128,-1,54
 150 378 150 378 150 419 c 0,55,56
 150 480 150 480 190.5 525.5 c 128,-1,57
 231 571 231 571 291 571 c 0,58,59
 386 571 386 571 424 466 c 1,60,61
 476 531 476 531 488 541 c 0,62,63
 526 572 526 572 578 572 c 0,64,65
 655 572 655 572 694 516 c 0,66,67
 727 469 727 469 727 403 c 0,68,69
 727 373 727 373 720 344 c 0,70,71
 702 267 702 267 693 238 c 0,72,73
 676 188 676 188 643 139 c 1,0,1
373 210 m 0,74,75
 333 210 333 210 299 198 c 0,76,77
 250 182 250 182 250 150 c 0,78,79
 250 93 250 93 397 93 c 0,80,81
 499 93 499 93 561 141 c 1,82,83
 487 210 487 210 373 210 c 0,74,75
EndSplineSet
Validated: 1
Substitution2: "'aalt' Access All Alternates lookup 0 subtable" Imatra
EndChar

StartChar: II
Encoding: 3080 3080 53
Width: 1239
GlyphClass: 2
Flags: W
LayerCount: 2
Fore
SplineSet
573 538 m 1,0,1
 650 517 650 517 704.5 454 c 128,-1,2
 759 391 759 391 771 312 c 1,3,-1
 1008 312 l 1,4,5
 981 338 981 338 975 386 c 0,6,7
 970 432 970 432 1010.5 475 c 128,-1,8
 1051 518 1051 518 1105 518 c 0,9,10
 1160 518 1160 518 1196.5 485 c 128,-1,11
 1233 452 1233 452 1233 397 c 0,12,13
 1233 337 1233 337 1187 309 c 1,14,-1
 1167 324 l 1,15,16
 1183 383 1183 383 1183 391 c 0,17,18
 1183 432 1183 432 1110 442 c 0,19,20
 1080 447 1080 447 1058 431 c 0,21,22
 1033 414 1033 414 1033 383 c 0,23,24
 1033 335 1033 335 1085 313 c 0,25,26
 1133 294 1133 294 1181 275 c 1,27,28
 1233 244 1233 244 1233 174 c 0,29,30
 1233 106 1233 106 1199 65 c 0,31,32
 1162 21 1162 21 1096 21 c 0,33,34
 1042 21 1042 21 999.5 57.5 c 128,-1,35
 957 94 957 94 957 148 c 0,36,37
 957 194 957 194 989 241 c 1,38,-1
 776 241 l 1,39,40
 770 138 770 138 693.5 68.5 c 128,-1,41
 617 -1 617 -1 513 -1 c 0,42,43
 402 -1 402 -1 328.5 63.5 c 128,-1,44
 255 128 255 128 239 238 c 1,45,-1
 130 238 l 1,46,-1
 130 311 l 1,47,-1
 238 311 l 1,48,49
 250 393 250 393 308 455 c 128,-1,50
 366 517 366 517 447 538 c 1,51,52
 358 566 358 566 358 629 c 0,53,54
 358 689 358 689 415 689 c 0,55,56
 457 689 457 689 485 651 c 1,57,58
 485 651 485 651 525 577 c 1,59,60
 591 639 591 639 657 701 c 0,61,62
 766 803 766 803 777 803 c 0,63,64
 830 803 830 803 830 761 c 0,65,66
 830 742 830 742 713 647 c 0,67,68
 643 592 643 592 573 538 c 1,0,1
1096 230 m 0,69,70
 1058 229 1058 229 1037.5 210.5 c 128,-1,71
 1017 192 1017 192 1017 167 c 0,72,73
 1017 141 1017 141 1038 122 c 128,-1,74
 1059 103 1059 103 1096 103 c 0,75,76
 1138 103 1138 103 1161 122 c 128,-1,77
 1184 141 1184 141 1184 167 c 0,78,79
 1184 194 1184 194 1162 211 c 0,80,81
 1137 231 1137 231 1096 230 c 0,69,70
504 488 m 0,82,83
 428 488 428 488 371.5 438.5 c 128,-1,84
 315 389 315 389 303 314 c 1,85,-1
 707 314 l 1,86,87
 701 393 701 393 642 442 c 0,88,89
 585 488 585 488 504 488 c 0,82,83
313 241 m 1,90,91
 322 172 322 172 382 138 c 0,92,93
 433 109 433 109 509 109 c 0,94,95
 578 109 578 109 629.5 143.5 c 128,-1,96
 681 178 681 178 696 241 c 1,97,-1
 313 241 l 1,90,91
EndSplineSet
Validated: 33
Substitution2: "'aalt' Access All Alternates lookup 0 subtable" IIMatra
EndChar

StartChar: Telugu_U
Encoding: 3081 3081 54
Width: 795
GlyphClass: 2
Flags: W
LayerCount: 2
Fore
SplineSet
671 374 m 1,0,1
 588 438 588 438 576 445 c 0,2,3
 534 467 534 467 456 467 c 0,4,5
 332 467 332 467 257 374 c 1,6,-1
 671 374 l 1,0,1
731 415 m 1,7,8
 726 399 726 399 713 374 c 1,9,-1
 795 374 l 1,10,-1
 795 305 l 1,11,-1
 735 305 l 1,12,13
 772 264 772 264 773 193 c 0,14,15
 775 113 775 113 719.5 56.5 c 128,-1,16
 664 0 664 0 583 -1 c 0,17,18
 469 -2 469 -2 447 99 c 1,19,20
 431 61 431 61 399 33 c 0,21,22
 361 -2 361 -2 319 -2 c 0,23,24
 236 -2 236 -2 190 66 c 0,25,26
 150 125 150 125 150 213 c 0,27,28
 150 346 150 346 228.5 433.5 c 128,-1,29
 307 521 307 521 440 537 c 1,30,31
 422 572 422 572 422 629 c 0,32,33
 422 654 422 654 433 676 c 0,34,35
 446 703 446 703 468 703 c 0,36,37
 492 703 492 703 506 679 c 0,38,39
 517 659 517 659 517 634 c 0,40,41
 517 614 517 614 510 585 c 0,42,43
 502 550 502 550 500 536 c 1,44,45
 560 536 560 536 629.5 500 c 128,-1,46
 699 464 699 464 731 415 c 1,7,8
626 293 m 0,47,48
 556 289 556 289 556 241 c 0,49,50
 556 221 556 221 572 206 c 128,-1,51
 588 191 588 191 615 191 c 0,52,53
 648 191 648 191 667 208 c 128,-1,54
 686 225 686 225 686 248 c 0,55,56
 686 297 686 297 626 293 c 0,47,48
617 129 m 0,57,58
 569 129 569 129 537.5 159 c 128,-1,59
 506 189 506 189 506 236 c 0,60,61
 506 282 506 282 528 305 c 1,62,-1
 224 305 l 1,63,64
 215 276 215 276 215 239 c 0,65,66
 215 188 215 188 247 152 c 128,-1,67
 279 116 279 116 330 116 c 256,68,69
 381 116 381 116 405 151 c 0,70,71
 415 166 415 166 428 214 c 0,72,73
 437 247 437 247 453 245 c 0,74,75
 464 243 464 243 471 204 c 0,76,77
 488 108 488 108 591 108 c 0,78,79
 715 108 715 108 728 225 c 1,80,81
 696 129 696 129 617 129 c 0,57,58
EndSplineSet
Validated: 33
Substitution2: "'aalt' Access All Alternates lookup 0 subtable" UMatra
EndChar

StartChar: UU
Encoding: 3082 3082 55
Width: 1144
GlyphClass: 2
Flags: W
LayerCount: 2
Fore
SplineSet
673 376 m 1,0,1
 584 445 584 445 578 449 c 0,2,3
 536 471 536 471 457 471 c 0,4,5
 326 471 326 471 263 376 c 1,6,-1
 673 376 l 1,0,1
1022 94 m 0,7,8
 968 92 968 92 927 125 c 0,9,10
 882 162 882 162 882 220 c 0,11,12
 882 269 882 269 911 306 c 1,13,-1
 737 306 l 1,14,15
 772 267 772 267 772 196 c 0,16,17
 772 111 772 111 716.5 56 c 128,-1,18
 661 1 661 1 576 1 c 0,19,20
 473 1 473 1 448 101 c 1,21,22
 419 0 419 0 328 0 c 0,23,24
 241 0 241 0 193 66 c 0,25,26
 150 125 150 125 150 215 c 0,27,28
 150 325 150 325 212 409.5 c 128,-1,29
 274 494 274 494 379 525 c 1,30,31
 356 577 356 577 356 620 c 0,32,33
 356 690 356 690 404 690 c 0,34,35
 422 690 422 690 433.5 669.5 c 128,-1,36
 445 649 445 649 444 621 c 0,37,38
 441 551 441 551 436 534 c 1,39,40
 466 537 466 537 495 532 c 1,41,42
 489 561 489 561 489 596 c 0,43,44
 489 688 489 688 541 688 c 0,45,46
 576 688 576 688 576 626 c 0,47,48
 576 578 576 578 552 522 c 1,49,50
 683 493 683 493 733 407 c 1,51,52
 727 391 727 391 715 376 c 1,53,-1
 918 376 l 1,54,55
 891 410 891 410 891 441 c 0,56,57
 891 493 891 493 926 529 c 128,-1,58
 961 565 961 565 1014 565 c 256,59,60
 1067 565 1067 565 1100 532 c 128,-1,61
 1133 499 1133 499 1133 446 c 0,62,63
 1133 376 1133 376 1088 371 c 1,64,65
 1088 371 1088 371 1088 434 c 0,66,67
 1088 495 1088 495 1013 495 c 0,68,69
 947 495 947 495 947 437 c 0,70,71
 947 404 947 404 998 380 c 0,72,73
 1085 340 1085 340 1093 334 c 0,74,75
 1144 298 1144 298 1144 233 c 0,76,77
 1144 176 1144 176 1113 138 c 0,78,79
 1080 96 1080 96 1022 94 c 0,7,8
1011 294 m 0,80,81
 976 294 976 294 955 275.5 c 128,-1,82
 934 257 934 257 934 231 c 0,83,84
 934 207 934 207 955 189 c 128,-1,85
 976 171 976 171 1015 171 c 0,86,87
 1052 171 1052 171 1075 190 c 0,88,89
 1095 207 1095 207 1095 232 c 256,90,91
 1095 257 1095 257 1073 275.5 c 128,-1,92
 1051 294 1051 294 1011 294 c 0,80,81
617 296 m 0,93,94
 589 296 589 296 571.5 279 c 128,-1,95
 554 262 554 262 554 240 c 0,96,97
 554 192 554 192 620 192 c 0,98,99
 652 192 652 192 671 208 c 128,-1,100
 690 224 690 224 690 245 c 0,101,102
 690 296 690 296 617 296 c 0,93,94
618 130 m 0,103,104
 571 130 571 130 539 160 c 128,-1,105
 507 190 507 190 507 237 c 256,106,107
 507 284 507 284 529 306 c 1,108,-1
 225 306 l 1,109,110
 213 269 213 269 213 239 c 0,111,112
 213 188 213 188 246.5 152.5 c 128,-1,113
 280 117 280 117 331 117 c 0,114,115
 383 117 383 117 408 143 c 0,116,117
 424 159 424 159 434.5 197.5 c 128,-1,118
 445 236 445 236 454 246 c 1,119,120
 465 245 465 245 472 205 c 0,121,122
 489 109 489 109 592 109 c 0,123,124
 718 109 718 109 726 228 c 1,125,126
 711 130 711 130 618 130 c 0,103,104
EndSplineSet
Validated: 33
Substitution2: "'aalt' Access All Alternates lookup 0 subtable" UUMatra
EndChar

StartChar: Ru
Encoding: 3083 3083 56
Width: 1403
GlyphClass: 2
Flags: W
LayerCount: 2
Fore
SplineSet
707 115 m 1,0,1
 670 2 670 2 552 2 c 0,2,3
 461 2 461 2 432 86 c 1,4,5
 391 0 391 0 297 0 c 0,6,7
 235 0 235 0 192 51 c 0,8,9
 150 99 150 99 150 162 c 0,10,11
 150 224 150 224 213 269 c 0,12,13
 216 271 216 271 331 333 c 0,14,15
 394 367 394 367 394 402 c 0,16,17
 394 473 394 473 321 473 c 0,18,19
 245 473 245 473 245 415 c 0,20,21
 245 383 245 383 289 355 c 1,22,-1
 221 295 l 1,23,24
 166 328 166 328 162 393 c 0,25,26
 158 457 158 457 206 495 c 0,27,28
 249 530 249 530 311 530 c 0,29,30
 377 530 377 530 414.5 495.5 c 128,-1,31
 452 461 452 461 445 399 c 256,32,33
 438 337 438 337 380 296 c 1,34,35
 328 267 328 267 276 238 c 0,36,37
 222 205 222 205 222 159 c 0,38,39
 222 97 222 97 293 101 c 0,40,41
 353 104 353 104 383 143 c 0,42,43
 395 158 395 158 415 211 c 0,44,45
 428 246 428 246 449 245 c 1,46,47
 459 236 459 236 464 196 c 0,48,49
 471 150 471 150 482 131 c 0,50,51
 501 100 501 100 546 100 c 0,52,53
 676 101 676 101 676 246 c 0,54,55
 676 332 676 332 637 388 c 0,56,57
 616 419 616 419 566 454 c 0,58,59
 527 482 527 482 527 499 c 0,60,61
 527 546 527 546 560 541 c 0,62,63
 642 529 642 529 690 429 c 0,64,65
 733 342 733 342 730 241 c 0,66,67
 726 95 726 95 849 95 c 0,68,69
 1006 95 1006 95 1006 269 c 0,70,71
 1006 336 1006 336 975 387 c 0,72,73
 956 416 956 416 913 456 c 0,74,75
 876 490 876 490 871 508 c 1,76,77
 882 534 882 534 891 539 c 0,78,79
 905 545 905 545 920 550 c 1,80,81
 1060 471 1060 471 1064 276 c 0,82,83
 1066 197 1066 197 1084 158 c 0,84,85
 1115 95 1115 95 1197 95 c 0,86,87
 1257 95 1257 95 1297 136 c 0,88,89
 1343 182 1343 182 1342 262 c 0,90,91
 1341 333 1341 333 1309 388 c 0,92,93
 1289 423 1289 423 1247 463 c 0,94,95
 1210 499 1210 499 1205 511 c 1,96,97
 1215 540 1215 540 1216 541 c 0,98,99
 1225 553 1225 553 1260 553 c 1,100,101
 1399 470 1399 470 1399 246 c 0,102,103
 1399 148 1399 148 1349 79 c 0,104,105
 1293 1 1293 1 1199 1 c 0,106,107
 1143 1 1143 1 1094.5 34.5 c 128,-1,108
 1046 68 1046 68 1028 121 c 1,109,110
 1001 57 1001 57 962.5 29 c 128,-1,111
 924 1 924 1 857 1 c 0,112,113
 736 1 736 1 707 115 c 1,0,1
EndSplineSet
Validated: 33
EndChar

StartChar: Lu
Encoding: 3084 3084 57
Width: 859
GlyphClass: 2
Flags: W
LayerCount: 2
Fore
SplineSet
642 -2 m 0,0,1
 579 -2 579 -2 529.5 43 c 128,-1,2
 480 88 480 88 479 150 c 0,3,4
 478 215 478 215 514 289 c 0,5,6
 535 335 535 335 581 400 c 0,7,8
 619 455 619 455 622 467 c 0,9,10
 623 474 623 474 623 480 c 0,11,12
 623 516 623 516 575 516 c 0,13,14
 517 516 517 516 480.5 479 c 128,-1,15
 444 442 444 442 436 383 c 1,16,17
 424 371 424 371 408 381 c 1,18,19
 395 447 395 447 385 465 c 0,20,21
 358 514 358 514 289 514 c 0,22,23
 249 514 249 514 234 508 c 0,24,25
 211 498 211 498 211 466 c 0,26,27
 211 423 211 423 230 404 c 0,28,29
 256 384 256 384 283 364 c 1,30,31
 263 343 263 343 250 343 c 0,32,33
 210 343 210 343 179 386 c 0,34,35
 150 425 150 425 150 467 c 0,36,37
 150 530 150 530 186 567 c 128,-1,38
 222 604 222 604 285 604 c 0,39,40
 384 604 384 604 430 510 c 1,41,42
 490 601 490 601 555 601 c 0,43,44
 701 601 701 601 701 496 c 0,45,46
 701 448 701 448 664 390 c 0,47,48
 629 339 629 339 595 288 c 1,49,50
 558 223 558 223 558 159 c 0,51,52
 558 128 558 128 587 108 c 0,53,54
 612 90 612 90 641 92 c 0,55,56
 796 102 796 102 796 271 c 0,57,58
 796 351 796 351 773 423 c 0,59,60
 749 492 749 492 726 562 c 1,61,-1
 787 580 l 1,62,63
 858 473 858 473 858 280 c 0,64,65
 858 163 858 163 811 88 c 0,66,67
 753 -2 753 -2 642 -2 c 0,0,1
EndSplineSet
Validated: 33
EndChar

StartChar: Telugu_E
Encoding: 3086 3086 58
Width: 691
GlyphClass: 2
Flags: W
LayerCount: 2
Fore
SplineSet
531 1 m 0,0,1
 496 -2 496 -2 459.5 17 c 128,-1,2
 423 36 423 36 404 67 c 1,3,4
 369 -3 369 -3 292 -3 c 0,5,6
 219 -5 219 -5 182 45 c 0,7,8
 150 88 150 88 150 154 c 0,9,10
 150 218 150 218 187.5 259.5 c 128,-1,11
 225 301 225 301 286 306 c 1,12,13
 352 304 352 304 386 271.5 c 128,-1,14
 420 239 420 239 435 159 c 0,15,16
 446 109 446 109 510 109 c 0,17,18
 638 109 638 109 638 251 c 0,19,20
 638 394 638 394 553 473 c 0,21,22
 505 517 505 517 394 559 c 0,23,24
 309 591 309 591 310 621 c 0,25,26
 311 659 311 659 355 659 c 0,27,28
 363 659 363 659 371 657 c 0,29,30
 476 636 476 636 555 574 c 0,31,32
 636 509 636 509 674 413 c 0,33,34
 697 353 697 353 703 246 c 1,35,36
 697 15 697 15 531 1 c 0,0,1
289 250 m 0,37,38
 251 251 251 251 227.5 226 c 128,-1,39
 204 201 204 201 206 170.5 c 128,-1,40
 208 140 208 140 229 119 c 128,-1,41
 250 98 250 98 291 98 c 0,42,43
 329 98 329 98 352 121 c 0,44,45
 372 142 372 142 372.5 174.5 c 128,-1,46
 373 207 373 207 350.5 228.5 c 128,-1,47
 328 250 328 250 289 250 c 0,37,38
EndSplineSet
Validated: 33
Substitution2: "'aalt' Access All Alternates lookup 0 subtable" Telugu_J
EndChar

StartChar: EE
Encoding: 3087 3087 59
Width: 697
GlyphClass: 2
Flags: W
LayerCount: 2
Fore
SplineSet
233 597 m 0,0,1
 233 584 233 584 237 557 c 128,-1,2
 241 530 241 530 241 517 c 0,3,4
 241 490 241 490 228 490 c 0,5,6
 177 490 177 490 177 606 c 0,7,8
 177 680 177 680 224 742 c 0,9,10
 275 809 275 809 347 809 c 0,11,12
 388 809 388 809 388 773 c 0,13,14
 388 747 388 747 348 728 c 0,15,16
 285 698 285 698 273 689 c 0,17,18
 233 656 233 656 233 597 c 0,0,1
531 1 m 0,19,20
 496 -2 496 -2 459.5 17 c 128,-1,21
 423 36 423 36 404 67 c 1,22,23
 369 -3 369 -3 292 -3 c 0,24,25
 221 -3 221 -3 184 45 c 0,26,27
 150 88 150 88 150 158 c 0,28,29
 150 218 150 218 187.5 259.5 c 128,-1,30
 225 301 225 301 286 306 c 0,31,32
 364 309 364 309 397 258 c 1,33,34
 417 239 417 239 435 159 c 0,35,36
 446 109 446 109 510 109 c 0,37,38
 638 109 638 109 638 251 c 0,39,40
 638 394 638 394 560 473 c 0,41,42
 517 517 517 517 416 559 c 0,43,44
 339 591 339 591 340 621 c 0,45,46
 341 659 341 659 384 659 c 0,47,48
 392 659 392 659 401 657 c 0,49,50
 594 616 594 616 674 413 c 0,51,52
 697 353 697 353 697 235 c 0,53,54
 697 15 697 15 531 1 c 0,19,20
289 250 m 0,55,56
 252 250 252 250 230 226 c 128,-1,57
 208 202 208 202 208 170 c 0,58,59
 208 140 208 140 229 119 c 128,-1,60
 250 98 250 98 291 98 c 0,61,62
 329 98 329 98 352 121 c 0,63,64
 372 142 372 142 372 173 c 256,65,66
 372 204 372 204 350 227 c 128,-1,67
 328 250 328 250 289 250 c 0,55,56
EndSplineSet
Validated: 33
Substitution2: "'aalt' Access All Alternates lookup 0 subtable" EEMatra
EndChar

StartChar: AI
Encoding: 3088 3088 60
Width: 739
GlyphClass: 2
Flags: W
LayerCount: 2
Fore
SplineSet
432 461 m 1,0,1
 453 506 453 506 492 531.5 c 128,-1,2
 531 557 531 557 576 553 c 0,3,4
 683 544 683 544 719 444 c 0,5,6
 739 386 739 386 739 255 c 0,7,8
 739 147 739 147 702 81 c 0,9,10
 656 -1 656 -1 559 -1 c 0,11,12
 458 -1 458 -1 417 63 c 1,13,14
 374 0 374 0 300 0 c 0,15,16
 233 0 233 0 191.5 43.5 c 128,-1,17
 150 87 150 87 150 154 c 256,18,19
 150 221 150 221 193.5 262 c 128,-1,20
 237 303 237 303 304 303 c 0,21,22
 440 303 440 303 446 135 c 0,23,24
 447 102 447 102 531 102 c 0,25,26
 618 102 618 102 654 148 c 0,27,28
 685 189 685 189 685 281 c 0,29,30
 685 450 685 450 572 450 c 0,31,32
 510 450 510 450 481 421 c 0,33,34
 461 400 461 400 438 335 c 0,35,36
 432 319 432 319 428 319 c 0,37,38
 417 319 417 319 408 356 c 0,39,40
 397 403 397 403 382 424 c 0,41,42
 356 460 356 460 305 460 c 0,43,44
 280 460 280 460 255 452 c 0,45,46
 222 440 222 440 217 420 c 0,47,48
 214 410 214 410 222 388 c 0,49,50
 232 363 232 363 232 354 c 0,51,52
 232 335 232 335 204 328 c 0,53,54
 185 323 185 323 169 360 c 0,55,56
 154 392 154 392 154 415 c 0,57,58
 154 471 154 471 202.5 510.5 c 128,-1,59
 251 550 251 550 313 550 c 0,60,61
 399 550 399 550 432 461 c 1,0,1
300 236 m 0,62,63
 258 236 258 236 234 215.5 c 128,-1,64
 210 195 210 195 210 167 c 0,65,66
 210 140 210 140 232.5 120.5 c 128,-1,67
 255 101 255 101 297 101 c 0,68,69
 341 101 341 101 367 122 c 0,70,71
 389 140 389 140 389 167 c 0,72,73
 389 195 389 195 367 214 c 0,74,75
 341 236 341 236 300 236 c 0,62,63
EndSplineSet
Validated: 33
Substitution2: "'aalt' Access All Alternates lookup 0 subtable" AIMatra
EndChar

StartChar: Telugu_O
Encoding: 3090 3090 61
Width: 730
GlyphClass: 2
Flags: W
LayerCount: 2
Fore
SplineSet
575 0 m 0,0,1
 516 0 516 0 477 32.5 c 128,-1,2
 438 65 438 65 439 117 c 1,3,4
 379 1 379 1 298 1 c 0,5,6
 239 1 239 1 194.5 45.5 c 128,-1,7
 150 90 150 90 150 148 c 0,8,9
 150 213 150 213 221 264 c 1,10,11
 287 302 287 302 353 341 c 0,12,13
 424 385 424 385 424 434 c 0,14,15
 424 501 424 501 343 501 c 0,16,17
 308 501 308 501 284 480.5 c 128,-1,18
 260 460 260 460 260 426 c 0,19,20
 260 387 260 387 306 366 c 1,21,-1
 248 328 l 1,22,23
 179 333 179 333 179 421 c 0,24,25
 179 480 179 480 232 520 c 0,26,27
 282 557 282 557 343 557 c 0,28,29
 399 557 399 557 443 523 c 128,-1,30
 487 489 487 489 484 437 c 0,31,32
 479 359 479 359 412 307 c 0,33,34
 401 298 401 298 290 236 c 0,35,36
 225 200 225 200 225 161 c 0,37,38
 225 129 225 129 247 110 c 128,-1,39
 269 91 269 91 300 91 c 0,40,41
 355 91 355 91 382 126 c 0,42,43
 386 132 386 132 422 203 c 0,44,45
 441 242 441 242 452 242 c 0,46,47
 464 242 464 242 476 175 c 0,48,49
 491 91 491 91 578 91 c 0,50,51
 614 91 614 91 643 106 c 0,52,53
 680 124 680 124 680 156 c 0,54,55
 680 169 680 169 661 186.5 c 128,-1,56
 642 204 642 204 644 221 c 0,57,58
 645 232 645 232 657 241.5 c 128,-1,59
 669 251 669 251 679 251 c 0,60,61
 729 251 729 251 729 158 c 0,62,63
 729 89 729 89 686.5 44.5 c 128,-1,64
 644 0 644 0 575 0 c 0,0,1
EndSplineSet
Validated: 33
Substitution2: "'aalt' Access All Alternates lookup 0 subtable" OMatra
EndChar

StartChar: OO
Encoding: 3091 3091 62
Width: 771
GlyphClass: 2
Flags: W
LayerCount: 2
Fore
SplineSet
373 697 m 0,0,1
 373 678 373 678 363.5 631 c 128,-1,2
 354 584 354 584 354 562 c 1,3,4
 408 562 408 562 452 527 c 0,5,6
 501 489 501 489 494 434 c 0,7,8
 486 364 486 364 415 315 c 1,9,10
 352 280 352 280 289 245 c 0,11,12
 223 206 223 206 223 156 c 0,13,14
 223 124 223 124 251 105 c 0,15,16
 276 89 276 89 309 89 c 0,17,18
 351 89 351 89 390.5 113 c 128,-1,19
 430 137 430 137 445 174 c 1,20,21
 449 195 449 195 453 216 c 0,22,23
 462 249 462 249 479 243 c 0,24,25
 495 238 495 238 498 207 c 0,26,27
 499 188 499 188 499 170 c 0,28,29
 513 90 513 90 599 90 c 0,30,31
 639 90 639 90 675 106 c 0,32,33
 721 126 721 126 721 161 c 0,34,35
 721 181 721 181 684 207 c 1,36,37
 681 243 681 243 717 243 c 0,38,39
 771 243 771 243 771 161 c 0,40,41
 771 91 771 91 723 43.5 c 128,-1,42
 675 -4 675 -4 605 -4 c 0,43,44
 544 -4 544 -4 511.5 20.5 c 128,-1,45
 479 45 479 45 463 105 c 1,46,47
 453 54 453 54 411 24.5 c 128,-1,48
 369 -5 369 -5 309 -3 c 0,49,50
 150 1 150 1 150 143 c 0,51,52
 150 213 150 213 223 267 c 1,53,54
 291 307 291 307 358 347 c 0,55,56
 431 393 431 393 431 446 c 0,57,58
 431 505 431 505 347 505 c 0,59,60
 269 505 269 505 269 431 c 0,61,62
 269 392 269 392 318 366 c 1,63,-1
 253 318 l 1,64,65
 181 341 181 341 181 417 c 0,66,67
 181 463 181 463 216 502 c 0,68,69
 249 538 249 538 295 555 c 1,70,71
 273 605 273 605 273 667 c 0,72,73
 273 755 273 755 328 755 c 0,74,75
 373 755 373 755 373 697 c 0,0,1
EndSplineSet
Validated: 33
Substitution2: "'aalt' Access All Alternates lookup 0 subtable" OOMatra
EndChar

StartChar: AU
Encoding: 3092 3092 63
Width: 1055
GlyphClass: 2
Flags: W
LayerCount: 2
Fore
SplineSet
259 530 m 1,0,-1
 265 579 l 1,1,-1
 450 579 l 1,2,3
 499 597 499 597 499 644 c 0,4,5
 499 677 499 677 460 692 c 0,6,7
 425 702 425 702 359 700 c 0,8,9
 265 699 265 699 256 699 c 0,10,11
 222 700 222 700 188 700 c 1,12,13
 150 706 150 706 150 740 c 0,14,15
 150 761 150 761 161 772.5 c 128,-1,16
 172 784 172 784 184 782 c 2,17,-1
 895 782 l 2,18,19
 966 782 966 782 1011 748 c 0,20,21
 1061 711 1061 711 1061 641 c 0,22,23
 1061 577 1061 577 1016 537 c 0,24,25
 976 501 976 501 922 502 c 0,26,27
 867 502 867 502 828 527 c 0,28,29
 772 561 772 561 771 634 c 0,30,31
 770 681 770 681 793 704 c 1,32,-1
 554 701 l 1,33,34
 570 677 570 677 570 647 c 0,35,36
 570 569 570 569 453 530 c 1,37,38
 486 523 486 523 505 493 c 128,-1,39
 524 463 524 463 523 427 c 0,40,41
 521 363 521 363 447 314 c 1,42,43
 379 279 379 279 311 243 c 0,44,45
 238 202 238 202 238 155 c 0,46,47
 238 125 238 125 269 105 c 0,48,49
 296 87 296 87 328 87 c 0,50,51
 369 87 369 87 408 111 c 128,-1,52
 447 135 447 135 462 172 c 0,53,54
 467 193 467 193 472 214 c 0,55,56
 482 248 482 248 497 244 c 0,57,58
 514 240 514 240 516 210 c 0,59,60
 515 192 515 192 515 174 c 0,61,62
 527 87 527 87 629 87 c 0,63,64
 740 87 740 87 740 152 c 0,65,66
 740 172 740 172 718 189 c 128,-1,67
 696 206 696 206 696 220 c 0,68,69
 696 230 696 230 707 239 c 128,-1,70
 718 248 718 248 729 248 c 0,71,72
 756 248 756 248 777 217 c 0,73,74
 795 189 795 189 795 160 c 0,75,76
 795 90 795 90 745 42.5 c 128,-1,77
 695 -5 695 -5 624 -5 c 0,78,79
 564 -5 564 -5 524 28.5 c 128,-1,80
 484 62 484 62 483 117 c 1,81,82
 475 69 475 69 429 33.5 c 128,-1,83
 383 -2 383 -2 326 -3 c 0,84,85
 263 -5 263 -5 216.5 38 c 128,-1,86
 170 81 170 81 170 142 c 0,87,88
 170 209 170 209 244 263 c 1,89,90
 313 303 313 303 382 343 c 0,91,92
 456 389 456 389 456 439 c 0,93,94
 456 497 456 497 367 497 c 0,95,96
 335 497 335 497 313 482 c 0,97,98
 288 464 288 464 288 434 c 0,99,100
 288 387 288 387 334 363 c 1,101,-1
 268 314 l 1,102,103
 201 337 201 337 201 410 c 0,104,105
 201 499 201 499 278 524 c 1,106,107
 274 527 274 527 259 530 c 1,0,-1
917 582 m 0,108,109
 956 581 956 581 981 602 c 0,110,111
 1004 620 1004 620 1004 646 c 0,112,113
 1004 698 1004 698 928 700 c 0,114,115
 884 701 884 701 858 682.5 c 128,-1,116
 832 664 832 664 832 638 c 0,117,118
 832 583 832 583 917 582 c 0,108,109
EndSplineSet
Validated: 33
Substitution2: "'aalt' Access All Alternates lookup 0 subtable" AuMatra
EndChar

StartChar: Telugu_Ka
Encoding: 3093 3093 64
Width: 661
GlyphClass: 2
Flags: W
AnchorPoint: "Anchor-0" 0 0 basechar 0
LayerCount: 2
Fore
SplineSet
377 595 m 1,0,1
 445 660 445 660 513 724 c 0,2,3
 619 824 619 824 634 824 c 0,4,5
 682 824 682 824 682 782 c 0,6,7
 682 757 682 757 570 668 c 0,8,9
 503 616 503 616 435 564 c 1,10,11
 484 551 484 551 522 522 c 0,12,13
 570 485 570 485 570 441 c 0,14,15
 570 413 570 413 541 413 c 0,16,17
 535 413 535 413 529 414 c 1,18,19
 506 442 506 442 483 470 c 0,20,21
 443 511 443 511 364 511 c 0,22,23
 243 511 243 511 243 441 c 0,24,25
 243 391 243 391 339 365 c 0,26,27
 429 340 429 340 519 316 c 1,28,29
 623 275 623 275 623 193 c 0,30,31
 623 97 623 97 553 44 c 0,32,33
 495 0 495 0 392 0 c 0,34,35
 281 0 281 0 214 58 c 0,36,37
 144 118 144 118 144 222 c 0,38,39
 144 245 144 245 161 245 c 256,40,41
 178 245 178 245 199 203 c 0,42,43
 223 155 223 155 239 140 c 0,44,45
 282 99 282 99 385 99 c 0,46,47
 454 99 454 99 504 120 c 0,48,49
 556 142 556 142 556 179 c 0,50,51
 556 241 556 241 455 272 c 0,52,53
 447 274 447 274 272 322 c 1,54,55
 175 360 175 360 175 442 c 256,56,57
 175 524 175 524 295 560 c 1,58,59
 223 598 223 598 223 653 c 0,60,61
 223 712 223 712 278 712 c 0,62,63
 350 712 350 712 377 595 c 1,0,1
EndSplineSet
Validated: 1
PairPos2: "'blwm' Below Base Mark in Telugu lookup 2 subtable" TaOttu dx=0 dy=0 dh=0 dv=0 dx=100 dy=20 dh=0 dv=0
EndChar

StartChar: Telugu_Kha
Encoding: 3094 3094 65
Width: 825
GlyphClass: 2
Flags: W
AnchorPoint: "Anchor-0" 0 0 basechar 0
LayerCount: 2
Fore
SplineSet
470 378 m 1,0,1
 417 315 417 315 337 315 c 0,2,3
 198 315 198 315 198 418 c 0,4,5
 198 467 198 467 249 500 c 0,6,7
 294 530 294 530 345 530 c 0,8,9
 545 530 545 530 545 317 c 0,10,11
 545 218 545 218 502 144 c 1,12,13
 523 104 523 104 605 104 c 0,14,15
 771 104 771 104 771 272 c 0,16,17
 771 337 771 337 726 392 c 0,18,19
 700 423 700 423 643 465 c 0,20,21
 598 497 598 497 598 510 c 0,22,23
 598 536 598 536 605.5 545.5 c 128,-1,24
 613 555 613 555 649 561 c 1,25,26
 824 487 824 487 824 245 c 0,27,28
 824 149 824 149 774 76 c 0,29,30
 717 -6 717 -6 625 -6 c 0,31,32
 567 -6 567 -6 496 51 c 1,33,34
 514 -46 514 -46 514 -58 c 0,35,36
 514 -155 514 -155 466 -155 c 0,37,38
 414 -155 414 -155 414 -57 c 0,39,40
 414 -26 414 -26 441 51 c 1,41,42
 374 0 374 0 316 0 c 0,43,44
 250 0 250 0 202 37 c 0,45,46
 150 77 150 77 150 141 c 256,47,48
 150 205 150 205 201 239 c 0,49,50
 245 270 245 270 312 270 c 0,51,52
 397 270 397 270 464 213 c 1,53,54
 481 275 481 275 481 319 c 0,55,56
 481 352 481 352 470 378 c 1,0,1
256 416 m 0,57,58
 256 381 256 381 336 381 c 0,59,60
 440 381 440 381 440 424 c 0,61,62
 440 443 440 443 403 454 c 0,63,64
 376 461 376 461 350 461 c 0,65,66
 256 461 256 461 256 416 c 0,57,58
320 207 m 0,67,68
 226 207 226 207 226 154 c 0,69,70
 226 93 226 93 315 93 c 0,71,72
 339 93 339 93 380 109 c 0,73,74
 425 126 425 126 430 144 c 1,75,76
 430 171 430 171 387 191 c 0,77,78
 352 207 352 207 320 207 c 0,67,68
EndSplineSet
Validated: 1
PairPos2: "'blwm' Below Base Mark in Telugu lookup 2 subtable" TaOttu dx=0 dy=0 dh=0 dv=0 dx=100 dy=20 dh=0 dv=0
EndChar

StartChar: Ga
Encoding: 3095 3095 66
Width: 733
GlyphClass: 2
Flags: W
AnchorPoint: "Anchor-0" 0 0 basechar 0
LayerCount: 2
Fore
SplineSet
630 -10 m 1,0,1
 590 -10 590 -10 549 28 c 1,2,3
 594 119 594 119 602 146 c 0,4,5
 625 223 625 223 625 308 c 0,6,7
 625 392 625 392 573 451 c 0,8,9
 518 513 518 513 444 513 c 0,10,11
 379 513 379 513 317 458 c 0,12,13
 256 403 256 403 251 314 c 0,14,15
 250 296 250 296 250 279 c 0,16,17
 250 201 250 201 286 117 c 0,18,19
 291 105 291 105 333 30 c 1,20,21
 325 23 325 23 234 -10 c 1,22,23
 161 103 161 103 161 263 c 0,24,25
 161 365 161 365 223.5 446 c 128,-1,26
 286 527 286 527 384 561 c 1,27,28
 302 611 302 611 302 662 c 0,29,30
 302 695 302 695 322.5 711.5 c 128,-1,31
 343 728 343 728 375 728 c 0,32,33
 413 728 413 728 437 681 c 0,34,35
 444 667 444 667 468 602 c 1,36,37
 534 664 534 664 600 727 c 0,38,39
 706 826 706 826 720 826 c 0,40,41
 740 826 740 826 755 811.5 c 128,-1,42
 770 797 770 797 770 775 c 0,43,44
 770 751 770 751 651 662 c 0,45,46
 582 611 582 611 512 561 c 1,47,48
 601 551 601 551 659 457 c 0,49,50
 714 369 714 369 714 274 c 0,51,52
 714 90 714 90 630 -10 c 1,0,1
EndSplineSet
Validated: 1
PairPos2: "'blwm' Below Base Mark in Telugu lookup 2 subtable" TaOttu dx=0 dy=0 dh=0 dv=0 dx=100 dy=20 dh=0 dv=0
EndChar

StartChar: Gha
Encoding: 3096 3096 67
Width: 1114
GlyphClass: 2
Flags: W
AnchorPoint: "Anchor-3" 0 0 basechar 0
AnchorPoint: "Anchor-0" 0 0 basechar 0
LayerCount: 2
Fore
SplineSet
302 513 m 0,0,1
 257 513 257 513 206 553 c 0,2,3
 152 595 152 595 152 639 c 0,4,5
 152 708 152 708 215 708 c 0,6,7
 261 708 261 708 284 669 c 1,8,9
 299 629 299 629 315 590 c 1,10,11
 329 602 329 602 547 807 c 0,12,13
 558 817 558 817 573 817 c 0,14,15
 624 817 624 817 624 775 c 0,16,17
 624 753 624 753 495 648 c 0,18,19
 419 589 419 589 342 529 c 0,20,21
 322 513 322 513 302 513 c 0,0,1
295 245 m 0,22,23
 254 246 254 246 232 225.5 c 128,-1,24
 210 205 210 205 210 175 c 0,25,26
 210 146 210 146 231.5 123 c 128,-1,27
 253 100 253 100 289 100 c 0,28,29
 333 99 333 99 358 122 c 0,30,31
 381 142 381 142 381 171 c 256,32,33
 381 200 381 200 358 222.5 c 128,-1,34
 335 245 335 245 295 245 c 0,22,23
728 114 m 1,35,36
 685 -3 685 -3 557 -3 c 0,37,38
 514 -3 514 -3 492.5 10 c 128,-1,39
 471 23 471 23 445 61 c 1,40,41
 447 44 447 44 459 1 c 0,42,43
 468 -37 468 -37 468 -61 c 0,44,45
 468 -145 468 -145 416 -145 c 0,46,47
 400 -145 400 -145 386 -120 c 0,48,49
 373 -99 373 -99 373 -81 c 0,50,51
 373 -53 373 -53 400 58 c 1,52,53
 358 0 358 0 296 0 c 0,54,55
 232 0 232 0 191 42 c 128,-1,56
 150 84 150 84 150 148 c 0,57,58
 150 209 150 209 190.5 257 c 128,-1,59
 231 305 231 305 291 305 c 0,60,61
 360 305 360 305 396 274 c 0,62,63
 420 253 420 253 436 205 c 0,64,65
 456 146 456 146 470 130 c 0,66,67
 501 95 501 95 572 95 c 0,68,69
 631 95 631 95 666 133.5 c 128,-1,70
 701 172 701 172 701 231 c 0,71,72
 701 312 701 312 653 374 c 0,73,74
 624 411 624 411 564 453 c 0,75,76
 516 487 516 487 516 499 c 0,77,78
 516 515 516 515 533 530 c 128,-1,79
 550 545 550 545 566 545 c 0,80,81
 576 545 576 545 586 540 c 0,82,83
 643 512 643 512 680 465 c 0,84,85
 707 431 707 431 740 362 c 0,86,87
 757 326 757 326 768 244 c 0,88,89
 777 167 777 167 793 139 c 0,90,91
 820 94 820 94 888 94 c 0,92,93
 1053 94 1053 94 1053 249 c 0,94,95
 1053 316 1053 316 1008 377 c 0,96,97
 981 414 981 414 925 461 c 0,98,99
 881 498 881 498 881 508 c 0,100,101
 881 524 881 524 892.5 538.5 c 128,-1,102
 904 553 904 553 919 553 c 0,103,104
 923 553 923 553 928 551 c 0,105,106
 1021 519 1021 519 1069 426 c 0,107,108
 1111 346 1111 346 1111 240 c 0,109,110
 1111 137 1111 137 1061 70 c 0,111,112
 1005 -5 1005 -5 906 -5 c 0,113,114
 771 -5 771 -5 728 114 c 1,35,36
EndSplineSet
Validated: 33
PairPos2: "'blwm' Below Base Mark in Telugu lookup 3 subtable" TaOttu dx=0 dy=0 dh=18 dv=0 dx=-18 dy=0 dh=0 dv=0
EndChar

StartChar: Telugu_M
Encoding: 3097 3097 68
Width: 733
GlyphClass: 2
Flags: W
AnchorPoint: "Anchor-0" 0 0 basechar 0
LayerCount: 2
Fore
SplineSet
432 376 m 1,0,-1
 537 375 l 1,1,-1
 537 537 l 1,2,-1
 601 537 l 1,3,-1
 601 377 l 1,4,-1
 733 377 l 1,5,-1
 733 311 l 1,6,-1
 391 311 l 1,7,8
 294 251 294 251 287 246 c 0,9,10
 214 194 214 194 214 161 c 0,11,12
 214 130 214 130 241 110 c 0,13,14
 265 91 265 91 297 91 c 0,15,16
 346 91 346 91 382 131 c 0,17,18
 401 152 401 152 427 204 c 0,19,20
 447 243 447 243 458 243 c 0,21,22
 467 243 467 243 474 204 c 0,23,24
 483 153 483 153 497 131 c 0,25,26
 522 91 522 91 575 91 c 0,27,28
 609 91 609 91 640 106 c 0,29,30
 678 124 678 124 678 155 c 0,31,32
 678 190 678 190 644 211 c 1,33,34
 638 252 638 252 674 252 c 0,35,36
 701 252 701 252 719 220 c 0,37,38
 733 194 733 194 733 165 c 0,39,40
 733 101 733 101 691 52 c 0,41,42
 646 0 646 0 579 0 c 0,43,44
 467 0 467 0 441 118 c 1,45,46
 428 67 428 67 388.5 34 c 128,-1,47
 349 1 349 1 295 1 c 0,48,49
 234 1 234 1 192 44.5 c 128,-1,50
 150 88 150 88 150 148 c 0,51,52
 150 209 150 209 215 260 c 1,53,54
 276 300 276 300 336 339 c 0,55,56
 401 386 401 386 401 438 c 0,57,58
 401 468 401 468 379 484.5 c 128,-1,59
 357 501 357 501 326 501 c 0,60,61
 293 501 293 501 268.5 479 c 128,-1,62
 244 457 244 457 244 425 c 0,63,64
 244 387 244 387 289 366 c 1,65,-1
 232 328 l 1,66,67
 163 336 163 336 163 418 c 0,68,69
 163 481 163 481 218 519 c 0,70,71
 267 554 267 554 332 554 c 0,72,73
 384 554 384 554 422.5 522 c 128,-1,74
 461 490 461 490 455 438 c 0,75,76
 451 404 451 404 432 376 c 1,0,-1
EndSplineSet
Validated: 33
PairPos2: "'blwm' Below Base Mark in Telugu lookup 2 subtable" TaOttu dx=0 dy=0 dh=0 dv=0 dx=100 dy=20 dh=0 dv=0
EndChar

StartChar: Ca
Encoding: 3098 3098 69
Width: 769
GlyphClass: 2
Flags: W
AnchorPoint: "Anchor-0" 0 0 basechar 0
LayerCount: 2
Fore
SplineSet
337 0 m 0,0,1
 270 0 270 0 226 39 c 128,-1,2
 182 78 182 78 182 144 c 0,3,4
 182 205 182 205 262 276 c 1,5,-1
 227 275 l 2,6,7
 186 274 186 274 174 278 c 0,8,9
 150 287 150 287 150 321 c 0,10,11
 150 390 150 390 192 390 c 0,12,13
 213 390 213 390 290 358 c 0,14,15
 361 329 361 329 393 310 c 1,16,17
 386 297 386 297 312 251 c 0,18,19
 249 212 249 212 249 174 c 0,20,21
 249 94 249 94 340 94 c 0,22,23
 392 94 392 94 419 135 c 0,24,25
 432 155 432 155 448 212 c 0,26,27
 460 253 460 253 475 252 c 0,28,29
 495 249 495 249 501 209 c 0,30,31
 510 148 510 148 515 137 c 0,32,33
 530 99 530 99 574 99 c 0,34,35
 641 99 641 99 675 147 c 0,36,37
 702 186 702 186 701 243 c 0,38,39
 700 357 700 357 590 418 c 1,40,41
 490 456 490 456 390 495 c 0,42,43
 285 538 285 538 291 610 c 0,44,45
 295 664 295 664 356 674 c 0,46,47
 364 675 364 675 372 675 c 0,48,49
 436 675 436 675 473 564 c 1,50,51
 536 625 536 625 600 685 c 0,52,53
 705 786 705 786 713 786 c 0,54,55
 766 786 766 786 766 729 c 0,56,57
 766 705 766 705 650 624 c 0,58,59
 560 562 560 562 507 533 c 1,60,61
 775 439 775 439 775 205 c 0,62,63
 775 123 775 123 731 64 c 0,64,65
 682 0 682 0 603 0 c 0,66,67
 546 0 546 0 507 29.5 c 128,-1,68
 468 59 468 59 469 100 c 1,69,70
 412 0 412 0 337 0 c 0,0,1
EndSplineSet
Validated: 33
PairPos2: "'blwm' Below Base Mark in Telugu lookup 2 subtable" TaOttu dx=0 dy=0 dh=0 dv=0 dx=100 dy=20 dh=0 dv=0
EndChar

StartChar: Cha
Encoding: 3099 3099 70
Width: 774
GlyphClass: 2
Flags: W
AnchorPoint: "Anchor-0" 0 0 basechar 0
LayerCount: 2
Fore
SplineSet
502 529 m 1,0,1
 623 506 623 506 696.5 415.5 c 128,-1,2
 770 325 770 325 770 200 c 0,3,4
 770 120 770 120 729 64 c 0,5,6
 684 2 684 2 607 2 c 0,7,8
 542 2 542 2 486 52 c 1,9,10
 508 -32 508 -32 508 -77 c 0,11,12
 508 -157 508 -157 456 -157 c 0,13,14
 414 -157 414 -157 414 -77 c 0,15,16
 414 -8 414 -8 439 52 c 1,17,18
 390 -2 390 -2 332 -2 c 0,19,20
 264 -2 264 -2 223 34 c 0,21,22
 179 73 179 73 179 140 c 0,23,24
 179 202 179 202 257 271 c 1,25,-1
 222 271 l 2,26,27
 179 270 179 270 168 274 c 0,28,29
 145 282 145 282 145 317 c 0,30,31
 145 386 145 386 187 386 c 0,32,33
 204 386 204 386 284 353 c 0,34,35
 361 322 361 322 388 306 c 1,36,37
 379 291 379 291 307 246 c 0,38,39
 246 208 246 208 246 170 c 0,40,41
 246 90 246 90 335 90 c 0,42,43
 387 90 387 90 413 119 c 0,44,45
 427 136 427 136 442.5 182.5 c 128,-1,46
 458 229 458 229 475 246 c 1,47,48
 497 239 497 239 502 198 c 0,49,50
 509 137 509 137 512 129 c 0,51,52
 525 94 525 94 569 94 c 0,53,54
 698 94 698 94 696 239 c 0,55,56
 694 366 694 366 587 423 c 1,57,58
 489 457 489 457 391 491 c 0,59,60
 286 528 286 528 286 605 c 0,61,62
 286 670 286 670 351 670 c 0,63,64
 402 670 402 670 430 639 c 0,65,66
 449 618 449 618 468 562 c 1,67,68
 531 622 531 622 594 682 c 0,69,70
 699 781 699 781 708 781 c 0,71,72
 759 781 759 781 759 729 c 0,73,74
 759 705 759 705 644 622 c 0,75,76
 549 555 549 555 502 529 c 1,0,1
EndSplineSet
Validated: 33
PairPos2: "'blwm' Below Base Mark in Telugu lookup 2 subtable" TaOttu dx=0 dy=0 dh=0 dv=0 dx=100 dy=20 dh=0 dv=0
EndChar

StartChar: Ja
Encoding: 3100 3100 71
Width: 768
GlyphClass: 2
Flags: W
AnchorPoint: "Anchor-0" 0 0 basechar 0
LayerCount: 2
Fore
SplineSet
600 267 m 0,0,1
 553 265 553 265 509.5 297 c 128,-1,2
 466 329 466 329 464 365 c 1,3,4
 436 335 436 335 367 298 c 0,5,6
 286 254 286 254 266 239 c 0,7,8
 219 204 219 204 219 162 c 0,9,10
 219 130 219 130 249 109 c 0,11,12
 275 91 275 91 309 91 c 0,13,14
 390 91 390 91 434 170 c 0,15,16
 442 190 442 190 451 209 c 0,17,18
 462 234 462 234 474 243 c 1,19,20
 500 235 500 235 504 207 c 0,21,22
 506 183 506 183 508 159 c 0,23,24
 527 84 527 84 630 88 c 0,25,26
 653 89 653 89 683 108 c 0,27,28
 721 133 721 133 721 166 c 0,29,30
 721 190 721 190 683 216 c 1,31,32
 684 237 684 237 689.5 243.5 c 128,-1,33
 695 250 695 250 718 250 c 0,34,35
 748 250 748 250 763 218 c 0,36,37
 775 192 775 192 773 160 c 0,38,39
 770 83 770 83 724.5 41 c 128,-1,40
 679 -1 679 -1 605 -3 c 0,41,42
 549 -5 549 -5 511.5 29 c 128,-1,43
 474 63 474 63 464 123 c 1,44,45
 438 12 438 12 314 -2 c 0,46,47
 251 -9 251 -9 200.5 37.5 c 128,-1,48
 150 84 150 84 150 148 c 0,49,50
 150 220 150 220 224 276 c 1,51,52
 294 318 294 318 363 360 c 0,53,54
 437 408 437 408 437 462 c 0,55,56
 437 523 437 523 355 523 c 0,57,58
 269 523 269 523 269 454 c 0,59,60
 269 407 269 407 318 379 c 1,61,-1
 253 330 l 1,62,63
 182 354 182 354 182 432 c 0,64,65
 182 493 182 493 235 536 c 0,66,67
 283 575 283 575 349 582 c 0,68,69
 412 589 412 589 455 552.5 c 128,-1,70
 498 516 498 516 498 452 c 0,71,72
 498 419 498 419 509 395 c 0,73,74
 528 354 528 354 593 354 c 0,75,76
 701 354 701 354 698 424 c 0,77,78
 697 462 697 462 647.5 479.5 c 128,-1,79
 598 497 598 497 595 519 c 0,80,81
 592 537 592 537 607 551.5 c 128,-1,82
 622 566 622 566 639 562 c 0,83,84
 748 533 748 533 748 427 c 0,85,86
 748 367 748 367 703.5 318.5 c 128,-1,87
 659 270 659 270 600 267 c 0,0,1
EndSplineSet
Validated: 33
PairPos2: "'blwm' Below Base Mark in Telugu lookup 2 subtable" TaOttu dx=0 dy=0 dh=0 dv=0 dx=100 dy=20 dh=0 dv=0
EndChar

StartChar: Jha
Encoding: 3101 3101 72
Width: 1375
GlyphClass: 2
Flags: W
AnchorPoint: "Anchor-2" 0 0 basechar 0
AnchorPoint: "Anchor-0" 0 0 basechar 0
LayerCount: 2
Fore
SplineSet
616 481 m 0,0,1
 680 412 680 412 684 295 c 0,2,3
 686 270 686 270 689 238 c 0,4,5
 707 103 707 103 840 108 c 0,6,7
 998 114 998 114 1003 270 c 0,8,9
 1004 326 1004 326 970.5 387 c 128,-1,10
 937 448 937 448 888 481 c 0,11,12
 878 486 878 486 878 503 c 0,13,14
 878 524 878 524 892.5 539.5 c 128,-1,15
 907 555 907 555 926 552 c 1,16,17
 992 519 992 519 1036 409 c 0,18,19
 1064 343 1064 343 1056 243 c 0,20,21
 1048 191 1048 191 1052 165 c 0,22,23
 1063 111 1063 111 1160 103 c 0,24,25
 1241 97 1241 97 1286 152 c 0,26,27
 1326 199 1326 199 1326 278 c 0,28,29
 1326 343 1326 343 1286 403 c 128,-1,30
 1246 463 1246 463 1184 495 c 0,31,32
 1164 505 1164 505 1164 525 c 0,33,34
 1164 535 1164 535 1177 554.5 c 128,-1,35
 1190 574 1190 574 1201 569 c 1,36,37
 1222 571 1222 571 1266 534 c 128,-1,38
 1310 497 1310 497 1329 463 c 0,39,40
 1379 368 1379 368 1379 281 c 0,41,42
 1379 171 1379 171 1331 91 c 0,43,44
 1272 -4 1272 -4 1185 -1 c 0,45,46
 1121 0 1121 0 1070 50 c 1,47,-1
 1036 96 l 1,48,49
 1059 -29 1059 -29 1059 -20 c 1,50,51
 1059 -128 1059 -128 1006 -138 c 1,52,53
 980 -136 980 -136 966 -98 c 0,54,55
 945 -42 945 -42 969 41 c 1,56,57
 984 71 984 71 995 96 c 1,58,59
 920 -7 920 -7 825 0 c 0,60,61
 769 5 769 5 720 55 c 0,62,63
 676 99 676 99 656 155 c 1,64,65
 635 105 635 105 604 74 c 0,66,67
 537 3 537 3 428 0 c 0,68,69
 310 -1 310 -1 231 80 c 128,-1,70
 152 161 152 161 148 279 c 0,71,72
 144 364 144 364 192 437 c 0,73,74
 232 497 232 497 340 547 c 1,75,76
 284 563 284 563 268 575 c 0,77,78
 235 604 235 604 235 640 c 0,79,80
 235 701 235 701 294 701 c 0,81,82
 332 701 332 701 360 671 c 1,83,84
 382 640 382 640 404 610 c 0,85,86
 412 596 412 596 419 586 c 1,87,88
 548 710 548 710 630 793 c 0,89,90
 651 814 651 814 675 814 c 0,91,92
 720 814 720 814 720 765 c 0,93,94
 720 743 720 743 694 718 c 1,95,96
 656 690 656 690 630 673 c 0,97,98
 507 585 507 585 465 558 c 1,99,100
 555 546 555 546 616 481 c 0,0,1
577 430 m 0,101,102
 516 503 516 503 414 502 c 0,103,104
 329 499 329 499 268 433 c 0,105,106
 217 378 217 378 217 304 c 0,107,108
 217 227 217 227 270.5 174.5 c 128,-1,109
 324 122 324 122 408 121 c 0,110,111
 606 122 606 122 617 287 c 0,112,113
 624 375 624 375 577 430 c 0,101,102
EndSplineSet
Validated: 33
PairPos2: "'blwm' Below Base Mark in Telugu lookup 4 subtable" TaOttu dx=0 dy=0 dh=0 dv=0 dx=-72 dy=9 dh=0 dv=0
EndChar

StartChar: Nya
Encoding: 3102 3102 73
Width: 1060
GlyphClass: 2
Flags: W
AnchorPoint: "Anchor-0" 0 0 basechar 0
LayerCount: 2
Fore
SplineSet
731 338 m 1,0,-1
 839 338 l 1,1,-1
 839 554 l 1,2,-1
 911 554 l 1,3,-1
 911 338 l 1,4,-1
 1064 338 l 1,5,-1
 1064 261 l 1,6,-1
 718 261 l 1,7,8
 702 206 702 206 660 146 c 1,9,10
 699 91 699 91 699 37 c 0,11,12
 699 -18 699 -18 659 -62.5 c 128,-1,13
 619 -107 619 -107 565 -107 c 0,14,15
 537 -107 537 -107 517 -93 c 0,16,17
 493 -78 493 -78 493 -52 c 0,18,19
 493 -16 493 -16 528 -11 c 0,20,21
 560 -8 560 -8 591 -6 c 1,22,23
 629 3 629 3 629 40 c 0,24,25
 629 61 629 61 605 91 c 1,26,27
 512 -3 512 -3 375 -3 c 0,28,29
 298 -3 298 -3 239 39 c 0,30,31
 173 85 173 85 173 159 c 0,32,33
 173 226 173 226 249 260 c 0,34,35
 306 285 306 285 383 285 c 0,36,37
 451 285 451 285 507 262 c 0,38,39
 547 245 547 245 616 199 c 1,40,41
 664 265 664 265 667 350 c 0,42,43
 668 396 668 396 645 428 c 0,44,45
 616 468 616 468 557 464 c 0,46,47
 509 460 509 460 479 429 c 0,48,49
 458 408 458 408 445 374 c 0,50,51
 434 345 434 345 434 345 c 1,52,53
 414 345 414 345 410 348 c 0,54,55
 390 424 390 424 381 437 c 0,56,57
 359 467 359 467 292 467 c 0,58,59
 210 467 210 467 210 419 c 0,60,61
 210 402 210 402 229.5 383.5 c 128,-1,62
 249 365 249 365 249 351 c 0,63,64
 249 333 249 333 222 333 c 0,65,66
 161 333 161 333 154 431 c 0,67,68
 150 482 150 482 193.5 525 c 128,-1,69
 237 568 237 568 291 566 c 0,70,71
 356 563 356 563 386 529 c 0,72,73
 398 517 398 517 429 453 c 1,74,75
 453 497 453 497 491 528 c 0,76,77
 536 564 536 564 585 563 c 0,78,79
 664 560 664 560 702 497 c 0,80,81
 732 447 732 447 732 367 c 0,82,83
 732 353 732 353 731 338 c 1,0,-1
375 219 m 0,84,85
 335 219 335 219 300 206 c 0,86,87
 252 189 252 189 252 157 c 0,88,89
 252 103 252 103 400 95 c 0,90,91
 495 90 495 90 565 147 c 1,92,93
 491 219 491 219 375 219 c 0,84,85
EndSplineSet
Validated: 33
PairPos2: "'blwm' Below Base Mark in Telugu lookup 3 subtable" TaOttu dx=0 dy=0 dh=18 dv=0 dx=-18 dy=0 dh=0 dv=0
EndChar

StartChar: Lla
Encoding: 3103 3103 74
Width: 817
GlyphClass: 2
Flags: W
AnchorPoint: "Anchor-0" 0 0 basechar 0
LayerCount: 2
Fore
SplineSet
603 -3 m 0,0,1
 514 -3 514 -3 477 100 c 1,2,3
 423 0 423 0 321 0 c 0,4,5
 241 0 241 0 191 102 c 0,6,7
 150 185 150 185 150 274 c 0,8,9
 150 373 150 373 199 451 c 0,10,11
 253 537 253 537 342 545 c 1,12,13
 322 646 322 646 322 659 c 0,14,15
 322 700 322 700 379 700 c 0,16,17
 424 700 424 700 424 666 c 0,18,19
 424 646 424 646 415 606 c 0,20,21
 402 551 402 551 401 545 c 1,22,23
 492 526 492 526 492 430 c 0,24,25
 492 378 492 378 456.5 346 c 128,-1,26
 421 314 421 314 368 314 c 0,27,28
 316 314 316 314 281 343.5 c 128,-1,29
 246 373 246 373 246 424 c 1,30,-1
 248 426 l 1,31,32
 216 362 216 362 216 299 c 0,33,34
 216 125 216 125 336 125 c 0,35,36
 405 125 405 125 435 159 c 0,37,38
 450 177 450 177 462 225 c 0,39,40
 471 263 471 263 489 267 c 1,41,42
 502 259 502 259 507 220 c 0,43,44
 513 174 513 174 528 154 c 0,45,46
 554 120 554 120 622 116 c 0,47,48
 683 112 683 112 720 163 c 0,49,50
 752 208 752 208 752 271 c 0,51,52
 752 340 752 340 712 395 c 0,53,54
 690 425 690 425 638 468 c 0,55,56
 599 500 599 500 601 515 c 0,57,58
 603 539 603 539 646 546 c 1,59,60
 731 527 731 527 776 449 c 0,61,62
 815 380 815 380 815 285 c 0,63,64
 815 167 815 167 769 91 c 0,65,66
 714 -3 714 -3 603 -3 c 0,0,1
361 381 m 0,67,68
 441 381 441 381 441 437 c 0,69,70
 441 459 441 459 424 476.5 c 128,-1,71
 407 494 407 494 379 494 c 0,72,73
 294 497 294 497 294 438 c 0,74,75
 294 415 294 415 312.5 398 c 128,-1,76
 331 381 331 381 361 381 c 0,67,68
EndSplineSet
Validated: 37
PairPos2: "'blwm' Below Base Mark in Telugu lookup 2 subtable" TaOttu dx=0 dy=0 dh=0 dv=0 dx=100 dy=20 dh=0 dv=0
EndChar

StartChar: TTha
Encoding: 3104 3104 75
Width: 721
GlyphClass: 2
Flags: W
AnchorPoint: "Anchor-0" 0 0 basechar 0
LayerCount: 2
Fore
SplineSet
425 258 m 0,0,1
 386 258 386 258 363 284 c 128,-1,2
 340 310 340 310 340 344 c 256,3,4
 340 378 340 378 362 400 c 0,5,6
 388 425 388 425 433 424 c 0,7,8
 472 423 472 423 494 398.5 c 128,-1,9
 516 374 516 374 516 341 c 0,10,11
 516 307 516 307 493 284 c 0,12,13
 468 258 468 258 425 258 c 0,0,1
467 568 m 1,14,15
 577 557 577 557 644 470 c 0,16,17
 707 389 707 389 707 279 c 0,18,19
 707 161 707 161 629.5 80.5 c 128,-1,20
 552 0 552 0 432 0 c 0,21,22
 308 0 308 0 229 84 c 128,-1,23
 150 168 150 168 150 293 c 0,24,25
 150 467 150 467 342 557 c 1,26,27
 238 587 238 587 238 651 c 0,28,29
 238 714 238 714 297 714 c 0,30,31
 337 714 337 714 372 673 c 0,32,33
 384 658 384 658 421 597 c 1,34,35
 486 663 486 663 551 730 c 0,36,37
 652 829 652 829 677 829 c 0,38,39
 721 829 721 829 721 779 c 0,40,41
 721 728 721 728 467 568 c 1,14,15
432 512 m 0,42,43
 342 512 342 512 281.5 455 c 128,-1,44
 221 398 221 398 221 309 c 0,45,46
 221 230 221 230 276.5 176.5 c 128,-1,47
 332 123 332 123 411 123 c 0,48,49
 629 123 629 123 629 313 c 0,50,51
 629 395 629 395 572 453.5 c 128,-1,52
 515 512 515 512 432 512 c 0,42,43
EndSplineSet
Validated: 33
PairPos2: "'blwm' Below Base Mark in Telugu lookup 2 subtable" TaOttu dx=0 dy=0 dh=0 dv=0 dx=100 dy=20 dh=0 dv=0
EndChar

StartChar: DDa
Encoding: 3105 3105 76
Width: 790
GlyphClass: 2
Flags: W
AnchorPoint: "Anchor-0" 0 0 basechar 0
LayerCount: 2
Fore
SplineSet
322 0 m 0,0,1
 238 0 238 0 190 83 c 0,2,3
 150 153 150 153 150 243 c 0,4,5
 150 357 150 357 219 442.5 c 128,-1,6
 288 528 288 528 400 552 c 1,7,8
 321 606 321 606 321 656 c 0,9,10
 321 722 321 722 390 722 c 0,11,12
 434 722 434 722 459 680 c 0,13,14
 471 658 471 658 488 598 c 1,15,16
 556 663 556 663 625 729 c 0,17,18
 735 832 735 832 750 832 c 0,19,20
 800 832 800 832 800 789 c 0,21,22
 800 752 800 752 539 557 c 1,23,24
 683 539 683 539 739 436 c 1,25,26
 729 406 729 406 698 390 c 1,27,28
 686 391 686 391 663 418 c 0,29,30
 636 451 636 451 605 467 c 0,31,32
 554 493 554 493 471 493 c 0,33,34
 360 493 360 493 287 422 c 128,-1,35
 214 351 214 351 214 239 c 0,36,37
 214 121 214 121 318 118 c 0,38,39
 380 116 380 116 407 147 c 0,40,41
 421 163 421 163 432 207 c 0,42,43
 441 240 441 240 458 241 c 0,44,45
 476 238 476 238 481 203 c 0,46,47
 487 159 487 159 500 143 c 0,48,49
 525 112 525 112 592 113 c 0,50,51
 716 114 716 114 725 200 c 1,52,53
 703 142 703 142 617 142 c 0,54,55
 573 142 573 142 541.5 171 c 128,-1,56
 510 200 510 200 510 243 c 0,57,58
 510 290 510 290 543 325 c 128,-1,59
 576 360 576 360 622 360 c 0,60,61
 700 360 700 360 740.5 316 c 128,-1,62
 781 272 781 272 781 195 c 0,63,64
 781 115 781 115 721 57.5 c 128,-1,65
 661 0 661 0 579 0 c 0,66,67
 529 0 529 0 494 27.5 c 128,-1,68
 459 55 459 55 452 103 c 1,69,70
 425 0 425 0 322 0 c 0,0,1
628 302 m 0,71,72
 596 301 596 301 577.5 285 c 128,-1,73
 559 269 559 269 559 247 c 0,74,75
 559 197 559 197 620 197 c 0,76,77
 660 197 660 197 685 216 c 0,78,79
 708 232 708 232 708 255 c 0,80,81
 708 303 708 303 628 302 c 0,71,72
EndSplineSet
Validated: 33
PairPos2: "'blwm' Below Base Mark in Telugu lookup 2 subtable" TaOttu dx=0 dy=0 dh=0 dv=0 dx=100 dy=20 dh=0 dv=0
EndChar

StartChar: DDha
Encoding: 3106 3106 77
Width: 789
GlyphClass: 2
Flags: W
AnchorPoint: "Anchor-0" 0 0 basechar 0
LayerCount: 2
Fore
SplineSet
488 597 m 1,0,1
 556 662 556 662 625 727 c 0,2,3
 735 830 735 830 750 830 c 0,4,5
 800 830 800 830 800 787 c 0,6,7
 800 765 800 765 681 668 c 0,8,9
 610 612 610 612 539 555 c 1,10,11
 605 547 605 547 662 513.5 c 128,-1,12
 719 480 719 480 739 436 c 1,13,14
 728 414 728 414 721 404 c 0,15,16
 709 384 709 384 697 378 c 1,17,18
 665 423 665 423 639 443 c 0,19,20
 574 491 574 491 471 491 c 0,21,22
 359 491 359 491 286.5 419.5 c 128,-1,23
 214 348 214 348 214 237 c 0,24,25
 214 122 214 122 318 117 c 0,26,27
 382 113 382 113 410 142 c 0,28,29
 426 159 426 159 436 199 c 0,30,31
 443 231 443 231 457 233 c 0,32,33
 473 232 473 232 481 199 c 0,34,35
 491 156 491 156 504 140 c 0,36,37
 530 109 530 109 592 112 c 0,38,39
 717 116 717 116 725 198 c 1,40,41
 703 139 703 139 617 139 c 0,42,43
 574 139 574 139 542 168 c 128,-1,44
 510 197 510 197 510 240 c 0,45,46
 510 293 510 293 544.5 324.5 c 128,-1,47
 579 356 579 356 633 358 c 0,48,49
 701 361 701 361 744 310 c 0,50,51
 783 263 783 263 783 194 c 0,52,53
 783 114 783 114 722 56.5 c 128,-1,54
 661 -1 661 -1 579 -1 c 0,55,56
 541 -1 541 -1 517 14 c 0,57,58
 513 16 513 16 468 54 c 1,59,60
 489 -22 489 -22 488 -59 c 0,61,62
 487 -100 487 -100 478.5 -117.5 c 128,-1,63
 470 -135 470 -135 446 -152 c 1,64,65
 393 -137 393 -137 393 -64 c 0,66,67
 393 -40 393 -40 414 53 c 1,68,69
 351 2 351 2 314 2 c 0,70,71
 233 2 233 2 187 85 c 0,72,73
 150 154 150 154 150 242 c 0,74,75
 150 356 150 356 219 441 c 128,-1,76
 288 526 288 526 400 550 c 1,77,78
 321 605 321 605 321 654 c 0,79,80
 321 720 321 720 390 720 c 0,81,82
 435 720 435 720 458 678 c 0,83,84
 465 666 465 666 488 597 c 1,0,1
628 303 m 0,85,86
 598 302 598 302 579.5 283 c 128,-1,87
 561 264 561 264 561 241 c 0,88,89
 561 196 561 196 616 196 c 0,90,91
 624 196 624 196 633 197 c 0,92,93
 702 207 702 207 702 256 c 256,94,95
 702 305 702 305 628 303 c 0,85,86
EndSplineSet
Validated: 33
PairPos2: "'blwm' Below Base Mark in Telugu lookup 2 subtable" TaOttu dx=0 dy=0 dh=0 dv=0 dx=100 dy=20 dh=0 dv=0
EndChar

StartChar: Telugu_N
Encoding: 3107 3107 78
Width: 872
GlyphClass: 2
Flags: W
AnchorPoint: "Anchor-0" 0 0 basechar 0
LayerCount: 2
Fore
SplineSet
802 192 m 1,0,1
 811 226 811 226 811 282 c 0,2,3
 811 442 811 442 698 442 c 0,4,5
 635 442 635 442 591 405 c 128,-1,6
 547 368 547 368 535 307 c 1,7,-1
 506 307 l 1,8,9
 465 443 465 443 342 443 c 0,10,11
 298 443 298 443 269 424 c 0,12,13
 234 402 234 402 234 360 c 0,14,15
 234 317 234 317 261 308 c 0,16,17
 274 304 274 304 350 303 c 2,18,-1
 450 303 l 1,19,-1
 450 239 l 1,20,-1
 356 239 l 2,21,22
 268 236 268 236 258 234 c 0,23,24
 212 222 212 222 214 171 c 0,25,26
 217 99 217 99 308 99 c 0,27,28
 351 99 351 99 379 124 c 0,29,30
 395 139 395 139 412 172 c 0,31,32
 425 197 425 197 433 197 c 0,33,34
 458 197 458 197 458 156 c 0,35,36
 458 0 458 0 312 0 c 0,37,38
 246 0 246 0 198 51 c 128,-1,39
 150 102 150 102 150 169 c 0,40,41
 150 196 150 196 170.5 237 c 128,-1,42
 191 278 191 278 191 282 c 0,43,44
 191 288 191 288 175.5 317.5 c 128,-1,45
 160 347 160 347 160 371 c 0,46,47
 160 441 160 441 216 491 c 0,48,49
 270 538 270 538 339 538 c 0,50,51
 462 538 462 538 523 416 c 1,52,53
 600 536 600 536 697 536 c 0,54,55
 793 536 793 536 839 456 c 0,56,57
 877 391 877 391 877 286 c 0,58,59
 877 166 877 166 831 91 c 0,60,61
 776 1 776 1 668 3 c 0,62,63
 608 4 608 4 564.5 43 c 128,-1,64
 521 82 521 82 521 141 c 0,65,66
 521 193 521 193 562.5 235.5 c 128,-1,67
 604 278 604 278 657 278 c 0,68,69
 782 278 782 278 802 192 c 1,0,1
679 88 m 0,70,71
 714 90 714 90 736.5 113.5 c 128,-1,72
 759 137 759 137 759 165 c 0,73,74
 759 226 759 226 676 226 c 0,75,76
 634 226 634 226 609 204 c 128,-1,77
 584 182 584 182 584 152 c 0,78,79
 584 124 584 124 607 106 c 0,80,81
 633 85 633 85 679 88 c 0,70,71
EndSplineSet
Validated: 33
PairPos2: "'blwm' Below Base Mark in Telugu lookup 2 subtable" TaOttu dx=0 dy=0 dh=0 dv=0 dx=100 dy=20 dh=0 dv=0
EndChar

StartChar: Ta
Encoding: 3108 3108 79
Width: 747
GlyphClass: 2
Flags: W
AnchorPoint: "Anchor-0" 0 0 basechar 0
LayerCount: 2
Fore
SplineSet
454 600 m 1,0,1
 465 608 465 608 590 730 c 0,2,3
 698 834 698 834 707 834 c 0,4,5
 757 834 757 834 757 787 c 0,6,7
 757 765 757 765 641 671 c 0,8,9
 570 615 570 615 499 560 c 1,10,11
 721 505 721 505 721 281 c 0,12,13
 721 151 721 151 635 73 c 0,14,15
 552 -1 552 -1 420 -1 c 0,16,17
 304 -1 304 -1 227 76 c 128,-1,18
 150 153 150 153 150 273 c 0,19,20
 150 344 150 344 186 393 c 0,21,22
 225 448 225 448 293 448 c 0,23,24
 341 448 341 448 373.5 418.5 c 128,-1,25
 406 389 406 389 406 341 c 0,26,27
 406 291 406 291 372 260 c 128,-1,28
 338 229 338 229 287 229 c 0,29,30
 239 229 239 229 208 253 c 1,31,32
 220 168 220 168 286 136 c 0,33,34
 335 112 335 112 432 112 c 0,35,36
 614 112 614 112 657 248 c 1,37,38
 623 219 623 219 589 219 c 0,39,40
 537 219 537 219 504.5 248 c 128,-1,41
 472 277 472 277 472 327 c 0,42,43
 472 430 472 430 584 430 c 0,44,45
 602 430 602 430 621 427 c 1,46,47
 588 467 588 467 500 496 c 0,48,49
 386 533 386 533 364 546 c 0,50,51
 299 583 299 583 299 654 c 0,52,53
 299 718 299 718 349 718 c 0,54,55
 391 718 391 718 418 676 c 0,56,57
 429 661 429 661 454 600 c 1,0,1
585 280 m 0,58,59
 655 280 655 280 655 326 c 0,60,61
 655 346 655 346 638 362 c 128,-1,62
 621 378 621 378 595 378 c 0,63,64
 560 378 560 378 539.5 362 c 128,-1,65
 519 346 519 346 519 325 c 0,66,67
 519 280 519 280 585 280 c 0,58,59
285 294 m 0,68,69
 363 294 363 294 363 345 c 0,70,71
 363 365 363 365 344 380.5 c 128,-1,72
 325 396 325 396 292 396 c 0,73,74
 258 395 258 395 238.5 379 c 128,-1,75
 219 363 219 363 219 342 c 0,76,77
 219 294 219 294 285 294 c 0,68,69
EndSplineSet
Validated: 1
PairPos2: "'blwm' Below Base Mark in Telugu lookup 2 subtable" TaOttu dx=0 dy=0 dh=0 dv=0 dx=100 dy=20 dh=0 dv=0
EndChar

StartChar: Tha
Encoding: 3109 3109 80
Width: 773
GlyphClass: 2
Flags: W
AnchorPoint: "Anchor-0" 0 0 basechar 0
LayerCount: 2
Fore
SplineSet
456 290 m 0,0,1
 417 289 417 289 395.5 309.5 c 128,-1,2
 374 330 374 330 374 358 c 256,3,4
 374 386 374 386 395.5 407 c 128,-1,5
 417 428 417 428 455 428 c 256,6,7
 493 428 493 428 515 407 c 0,8,9
 534 388 534 388 534 360 c 0,10,11
 534 333 534 333 515 313 c 0,12,13
 493 291 493 291 456 290 c 0,0,1
468 586 m 1,14,15
 471 588 471 588 608 719 c 0,16,17
 717 822 717 822 736 822 c 0,18,19
 784 822 784 822 784 781 c 0,20,21
 784 756 784 756 663 661 c 0,22,23
 588 605 588 605 514 549 c 1,24,25
 621 528 621 528 682 432 c 0,26,27
 738 345 738 345 738 230 c 0,28,29
 738 134 738 134 696 71 c 0,30,31
 648 -3 648 -3 557 -3 c 0,32,33
 528 -3 528 -3 497.5 16.5 c 128,-1,34
 467 36 467 36 456 62 c 1,35,36
 464 28 464 28 472 -7 c 0,37,38
 481 -48 481 -48 481 -77 c 0,39,40
 481 -152 481 -152 433 -152 c 0,41,42
 407 -152 407 -152 394 -124 c 0,43,44
 383 -101 383 -101 383 -73 c 0,45,46
 383 -41 383 -41 418 63 c 1,47,48
 388 29 388 29 371 18 c 0,49,50
 344 0 344 0 309 0 c 0,51,52
 228 0 228 0 185 74 c 0,53,54
 150 135 150 135 150 222 c 0,55,56
 150 333 150 333 214 421.5 c 128,-1,57
 278 510 278 510 384 544 c 1,58,59
 306 594 306 594 306 659 c 0,60,61
 306 691 306 691 321.5 702.5 c 128,-1,62
 337 714 337 714 373 712 c 0,63,64
 410 710 410 710 435 665 c 1,65,66
 451 625 451 625 468 586 c 1,14,15
460 498 m 0,67,68
 362 498 362 498 291 423.5 c 128,-1,69
 220 349 220 349 220 251 c 0,70,71
 220 115 220 115 327 115 c 0,72,73
 379 115 379 115 403 146 c 0,74,75
 417 164 417 164 429 210 c 0,76,77
 440 249 440 249 453 258 c 1,78,79
 474 257 474 257 480 218 c 0,80,81
 488 161 488 161 495 148 c 0,82,83
 513 110 513 110 567 110 c 0,84,85
 672 110 672 110 672 245 c 0,86,87
 672 348 672 348 618 419 c 0,88,89
 559 498 559 498 460 498 c 0,67,68
EndSplineSet
Validated: 33
PairPos2: "'blwm' Below Base Mark in Telugu lookup 2 subtable" TaOttu dx=0 dy=0 dh=0 dv=0 dx=100 dy=20 dh=0 dv=0
EndChar

StartChar: Da
Encoding: 3110 3110 81
Width: 777
GlyphClass: 2
Flags: W
AnchorPoint: "Anchor-0" 0 0 basechar 0
LayerCount: 2
Fore
SplineSet
302 2 m 0,0,1
 224 2 224 2 184 71 c 0,2,3
 150 129 150 129 150 212 c 0,4,5
 150 334 150 334 211 420 c 0,6,7
 277 514 277 514 402 546 c 1,8,9
 324 596 324 596 324 655 c 0,10,11
 324 692 324 692 341 704 c 0,12,13
 354 714 354 714 391 714 c 0,14,15
 452 714 452 714 485 588 c 1,16,17
 556 655 556 655 626 721 c 0,18,19
 736 825 736 825 754 825 c 0,20,21
 802 825 802 825 802 783 c 0,22,23
 802 759 802 759 681 663 c 0,24,25
 606 607 606 607 532 551 c 1,26,27
 631 517 631 517 685 428 c 0,28,29
 736 344 736 344 736 233 c 0,30,31
 736 139 736 139 692 74 c 0,32,33
 641 -1 641 -1 550 -1 c 0,34,35
 452 -1 452 -1 436 97 c 1,36,37
 396 2 396 2 302 2 c 0,0,1
452 499 m 0,38,39
 369 500 369 500 293 427 c 0,40,41
 214 351 214 351 214 259 c 0,42,43
 214 192 214 192 230 161 c 0,44,45
 253 117 253 117 316 117 c 0,46,47
 375 117 375 117 400 154 c 0,48,49
 412 170 412 170 424 222 c 0,50,51
 433 259 433 259 453 259 c 0,52,53
 468 259 468 259 472 221 c 0,54,55
 478 168 478 168 488 149 c 0,56,57
 508 111 508 111 560 111 c 0,58,59
 668 111 668 111 668 262 c 0,60,61
 668 361 668 361 612 427 c 0,62,63
 553 498 553 498 452 499 c 0,38,39
EndSplineSet
Validated: 33
PairPos2: "'blwm' Below Base Mark in Telugu lookup 2 subtable" TaOttu dx=0 dy=0 dh=0 dv=0 dx=100 dy=20 dh=0 dv=0
EndChar

StartChar: Dha
Encoding: 3111 3111 82
Width: 764
GlyphClass: 2
Flags: W
AnchorPoint: "Anchor-0" 0 0 basechar 0
LayerCount: 2
Fore
SplineSet
462 586 m 1,0,1
 465 588 465 588 602 719 c 0,2,3
 711 822 711 822 730 822 c 0,4,5
 778 822 778 822 778 781 c 0,6,7
 778 757 778 757 657 661 c 0,8,9
 582 605 582 605 508 549 c 1,10,11
 617 522 617 522 678 429 c 0,12,13
 734 344 734 344 734 230 c 0,14,15
 734 135 734 135 692 71 c 0,16,17
 642 -3 642 -3 551 -3 c 0,18,19
 523 -3 523 -3 492 16.5 c 128,-1,20
 461 36 461 36 450 62 c 1,21,22
 458 28 458 28 466 -6 c 0,23,24
 475 -46 475 -46 475 -75 c 0,25,26
 475 -101 475 -101 463 -124 c 0,27,28
 449 -152 449 -152 425 -152 c 0,29,30
 377 -152 377 -152 377 -74 c 0,31,32
 377 -37 377 -37 412 61 c 1,33,34
 353 0 353 0 303 0 c 0,35,36
 226 0 226 0 185 70 c 0,37,38
 150 127 150 127 150 210 c 0,39,40
 150 331 150 331 206 418 c 0,41,42
 266 510 266 510 378 544 c 1,43,44
 300 594 300 594 300 661 c 0,45,46
 300 712 300 712 367 712 c 0,47,48
 409 712 409 712 432 666 c 1,49,50
 447 626 447 626 462 586 c 1,0,1
454 498 m 0,51,52
 356 498 356 498 285 423.5 c 128,-1,53
 214 349 214 349 214 251 c 0,54,55
 214 115 214 115 321 115 c 0,56,57
 373 115 373 115 398 146 c 0,58,59
 412 164 412 164 424 210 c 0,60,61
 434 249 434 249 447 258 c 1,62,63
 469 257 469 257 474 218 c 0,64,65
 482 161 482 161 489 148 c 0,66,67
 508 110 508 110 561 110 c 0,68,69
 667 110 667 110 667 245 c 0,70,71
 667 348 667 348 613 419 c 0,72,73
 553 498 553 498 454 498 c 0,51,52
EndSplineSet
Validated: 1
PairPos2: "'blwm' Below Base Mark in Telugu lookup 2 subtable" TaOttu dx=0 dy=0 dh=0 dv=0 dx=100 dy=20 dh=0 dv=0
EndChar

StartChar: Na
Encoding: 3112 3112 83
Width: 707
GlyphClass: 2
Flags: W
AnchorPoint: "Anchor-0" 0 0 basechar 0
LayerCount: 2
Fore
SplineSet
384 575 m 1,0,1
 412 600 412 600 593 794 c 0,2,3
 606 807 606 807 625 807 c 0,4,5
 673 807 673 807 673 759 c 0,6,7
 673 749 673 749 641 716 c 1,8,9
 612 693 612 693 540 629 c 1,10,11
 505 604 505 604 440 549 c 1,12,13
 707 463 707 463 707 226 c 0,14,15
 707 127 707 127 664 66 c 0,16,17
 614 -6 614 -6 518 -3 c 0,18,19
 425 -1 425 -1 371 132 c 0,20,21
 345 194 345 194 337 207 c 0,22,23
 310 244 310 244 273 242 c 0,24,25
 235 239 235 239 228 189 c 0,26,27
 219 127 219 127 276 50 c 0,28,29
 288 36 288 36 288 16 c 0,30,31
 288 -30 288 -30 248 -30 c 0,32,33
 222 -30 222 -30 195 0 c 0,34,35
 150 52 150 52 150 140 c 0,36,37
 150 200 150 200 176 248 c 0,38,39
 208 306 208 306 264 306 c 0,40,41
 326 306 326 306 374 245 c 0,42,43
 385 231 385 231 416 175 c 0,44,45
 452 104 452 104 544 112 c 0,46,47
 641 122 641 122 641 240 c 0,48,49
 641 279 641 279 633 306 c 0,50,51
 585 474 585 474 358 498 c 1,52,53
 200 509 200 509 200 619 c 0,54,55
 200 673 200 673 264 675 c 0,56,57
 301 675 301 675 332 648 c 0,58,59
 352 629 352 629 384 575 c 1,0,1
EndSplineSet
Validated: 33
PairPos2: "'blwm' Below Base Mark in Telugu lookup 2 subtable" TaOttu dx=0 dy=0 dh=0 dv=0 dx=100 dy=20 dh=0 dv=0
EndChar

StartChar: Pa
Encoding: 3114 3114 84
Width: 772
GlyphClass: 2
Flags: W
AnchorPoint: "Anchor-0" 0 0 basechar 0
LayerCount: 2
Fore
SplineSet
290 514 m 0,0,1
 245 514 245 514 194 554 c 0,2,3
 140 596 140 596 140 640 c 0,4,5
 140 709 140 709 203 709 c 0,6,7
 249 709 249 709 272 670 c 1,8,9
 287 630 287 630 303 590 c 1,10,11
 324 608 324 608 535 808 c 0,12,13
 546 819 546 819 565 819 c 0,14,15
 612 819 612 819 612 776 c 0,16,17
 612 753 612 753 582 730 c 0,18,19
 498 663 498 663 330 530 c 0,20,21
 310 514 310 514 290 514 c 0,0,1
298 243 m 0,22,23
 256 245 256 245 230 220.5 c 128,-1,24
 204 196 204 196 204 163 c 0,25,26
 204 133 204 133 226 115 c 0,27,28
 250 94 250 94 294 96 c 0,29,30
 380 101 380 101 380 167 c 0,31,32
 380 195 380 195 357.5 218 c 128,-1,33
 335 241 335 241 298 243 c 0,22,23
298 -4 m 0,34,35
 234 -8 234 -8 190 35.5 c 128,-1,36
 146 79 146 79 144 151 c 0,37,38
 144 220 144 220 185 262 c 0,39,40
 233 306 233 306 292 305 c 0,41,42
 354 307 354 307 401 255 c 1,43,44
 429 210 429 210 451 164 c 0,45,46
 481 110 481 110 547 98 c 0,47,48
 564 95 564 95 579 95 c 0,49,50
 638 95 638 95 672 134.5 c 128,-1,51
 706 174 706 174 703 235 c 0,52,53
 698 348 698 348 614 421 c 1,54,55
 570 452 570 452 527 483 c 1,56,57
 525 490 525 490 525 496 c 0,58,59
 525 518 525 518 543 534 c 128,-1,60
 561 550 561 550 580 550 c 0,61,62
 586 550 586 550 591 548 c 0,63,64
 701 484 701 484 744 371 c 0,65,66
 773 298 773 298 769 222 c 0,67,68
 763 104 763 104 703 45 c 0,69,70
 650 -5 650 -5 568 -3 c 0,71,72
 461 1 461 1 417 90 c 1,73,74
 413 54 413 54 383 28 c 0,75,76
 349 -1 349 -1 298 -4 c 0,34,35
EndSplineSet
Validated: 33
PairPos2: "'blwm' Below Base Mark in Telugu lookup 2 subtable" TaOttu dx=0 dy=0 dh=0 dv=0 dx=100 dy=20 dh=0 dv=0
EndChar

StartChar: Pha
Encoding: 3115 3115 85
Width: 779
GlyphClass: 2
Flags: W
AnchorPoint: "Anchor-0" 0 0 basechar 0
LayerCount: 2
Fore
SplineSet
304 249 m 0,0,1
 260 250 260 250 233.5 225 c 128,-1,2
 207 200 207 200 207 168 c 0,3,4
 207 138 207 138 231 117 c 128,-1,5
 255 96 255 96 300 96 c 0,6,7
 344 96 344 96 369 118 c 0,8,9
 390 138 390 138 390 168 c 0,10,11
 390 199 390 199 368 222 c 0,12,13
 343 248 343 248 304 249 c 0,0,1
300 509 m 0,14,15
 255 509 255 509 204 549 c 0,16,17
 150 591 150 591 150 635 c 0,18,19
 150 704 150 704 213 704 c 0,20,21
 259 704 259 704 282 665 c 1,22,23
 297 625 297 625 313 586 c 1,24,25
 327 598 327 598 545 803 c 0,26,27
 556 813 556 813 571 813 c 0,28,29
 622 813 622 813 622 771 c 0,30,31
 622 749 622 749 493 644 c 0,32,33
 417 585 417 585 340 525 c 0,34,35
 320 509 320 509 300 509 c 0,14,15
584 -3 m 0,36,37
 533 -3 533 -3 510.5 9.5 c 128,-1,38
 488 22 488 22 456 64 c 1,39,40
 470 -66 470 -66 470 -91 c 0,41,42
 470 -112 470 -112 458 -133 c 0,43,44
 444 -157 444 -157 425 -157 c 0,45,46
 403 -157 403 -157 390 -135 c 0,47,48
 378 -116 378 -116 378 -93 c 0,49,50
 378 -41 378 -41 400 57 c 1,51,52
 388 29 388 29 358 12.5 c 128,-1,53
 328 -4 328 -4 296 -4 c 0,54,55
 232 -4 232 -4 192.5 41 c 128,-1,56
 153 86 153 86 153 150 c 0,57,58
 153 210 153 210 194.5 255 c 128,-1,59
 236 300 236 300 295 300 c 0,60,61
 380 300 380 300 417 247 c 0,62,63
 440 210 440 210 467 150 c 1,64,65
 503 95 503 95 585 95 c 0,66,67
 641 95 641 95 675.5 131.5 c 128,-1,68
 710 168 710 168 710 224 c 0,69,70
 710 313 710 313 661 375 c 0,71,72
 635 408 635 408 572 453 c 0,73,74
 524 487 524 487 524 508 c 0,75,76
 524 554 524 554 567 554 c 0,77,78
 584 554 584 554 605 543 c 0,79,80
 776 450 776 450 776 248 c 0,81,82
 776 142 776 142 734 76 c 0,83,84
 684 -3 684 -3 584 -3 c 0,36,37
EndSplineSet
Validated: 33
PairPos2: "'blwm' Below Base Mark in Telugu lookup 2 subtable" TaOttu dx=0 dy=0 dh=0 dv=0 dx=100 dy=20 dh=0 dv=0
EndChar

StartChar: Ba
Encoding: 3116 3116 86
Width: 734
GlyphClass: 2
Flags: W
AnchorPoint: "Anchor-0" 0 0 basechar 0
LayerCount: 2
Fore
SplineSet
549 1 m 0,0,1
 508 2 508 2 477.5 25.5 c 128,-1,2
 447 49 447 49 437 83 c 1,3,4
 383 0 383 0 301 0 c 0,5,6
 240 0 240 0 195 48.5 c 128,-1,7
 150 97 150 97 150 158 c 0,8,9
 150 223 150 223 210 269 c 0,10,11
 224 279 224 279 326 333 c 0,12,13
 390 367 390 367 396 402 c 256,14,15
 402 437 402 437 381 457 c 0,16,17
 363 474 363 474 331 474 c 0,18,19
 300 474 300 474 274.5 457.5 c 128,-1,20
 249 441 249 441 249 416 c 0,21,22
 249 383 249 383 293 355 c 1,23,-1
 225 295 l 1,24,25
 167 330 167 330 167 406 c 0,26,27
 167 460 167 460 217 496 c 0,28,29
 264 530 264 530 323 530 c 0,30,31
 449 530 449 530 449 399 c 0,32,33
 449 336 449 336 390 295 c 1,34,35
 336 267 336 267 281 238 c 0,36,37
 222 206 222 206 222 161 c 0,38,39
 222 103 222 103 297 103 c 0,40,41
 371 103 371 103 398 157 c 0,42,43
 417 191 417 191 439 244 c 1,44,-1
 445 248 l 1,45,46
 460 248 460 248 463 209 c 0,47,48
 470 158 470 158 481 138 c 0,49,50
 501 99 501 99 550 100 c 0,51,52
 680 102 680 102 680 246 c 0,53,54
 680 331 680 331 640 390 c 0,55,56
 618 423 618 423 566 464 c 0,57,58
 526 495 526 495 526 513 c 256,59,60
 526 531 526 531 537 543.5 c 128,-1,61
 548 556 548 556 564 552 c 0,62,63
 660 529 660 529 704 426 c 0,64,65
 734 352 734 352 734 253 c 0,66,67
 734 0 734 0 549 1 c 0,0,1
EndSplineSet
Validated: 33
PairPos2: "'blwm' Below Base Mark in Telugu lookup 2 subtable" TaOttu dx=0 dy=0 dh=0 dv=0 dx=100 dy=20 dh=0 dv=0
EndChar

StartChar: Bha
Encoding: 3117 3117 87
Width: 772
GlyphClass: 2
Flags: W
AnchorPoint: "Anchor-0" 0 0 basechar 0
LayerCount: 2
Fore
SplineSet
499 610 m 1,0,1
 693 825 693 825 721 825 c 0,2,3
 772 825 772 825 772 780 c 0,4,5
 772 758 772 758 669 668 c 0,6,7
 607 616 607 616 544 564 c 1,8,9
 642 540 642 540 705 440 c 0,10,11
 765 345 765 345 763 229 c 0,12,13
 761 139 761 139 721 75 c 0,14,15
 672 -2 672 -2 585 -2 c 0,16,17
 512 -2 512 -2 462 69 c 1,18,19
 463 62 463 62 475 6 c 0,20,21
 483 -32 483 -32 483 -57 c 0,22,23
 483 -150 483 -150 430 -150 c 0,24,25
 405 -150 405 -150 391 -118 c 0,26,27
 381 -93 381 -93 381 -64 c 0,28,29
 381 -30 381 -30 408 69 c 1,30,31
 380 33 380 33 358 19 c 0,32,33
 331 2 331 2 291 2 c 0,34,35
 224 2 224 2 185 50 c 0,36,37
 150 95 150 95 150 165 c 0,38,39
 150 227 150 227 212 271 c 0,40,41
 222 278 222 278 328 333 c 0,42,43
 390 365 390 365 390 397 c 0,44,45
 390 461 390 461 328 461 c 0,46,47
 261 461 261 461 261 408 c 0,48,49
 261 384 261 384 299 350 c 1,50,-1
 214 300 l 1,51,52
 170 339 170 339 170 391 c 0,53,54
 170 451 170 451 215 486 c 0,55,56
 257 518 257 518 320 518 c 0,57,58
 373 518 373 518 410 481.5 c 128,-1,59
 447 445 447 445 448 392 c 0,60,61
 449 330 449 330 389 291 c 1,62,63
 333 264 333 264 277 237 c 0,64,65
 216 206 216 206 216 165 c 0,66,67
 216 104 216 104 292 104 c 0,68,69
 347 104 347 104 374 121 c 0,70,71
 396 135 396 135 408 169 c 0,72,73
 419 207 419 207 430 244 c 1,74,75
 443 256 443 256 448 256 c 0,76,77
 457 256 457 256 464 227 c 0,78,79
 484 140 484 140 487 135 c 0,80,81
 505 105 505 105 572 110 c 0,82,83
 684 119 684 119 684 251 c 0,84,85
 684 412 684 412 587 481 c 0,86,87
 565 496 565 496 405 554 c 0,88,89
 308 589 308 589 308 668 c 0,90,91
 308 726 308 726 374 726 c 0,92,93
 460 726 460 726 499 610 c 1,0,1
EndSplineSet
Validated: 33
PairPos2: "'blwm' Below Base Mark in Telugu lookup 2 subtable" TaOttu dx=0 dy=0 dh=0 dv=0 dx=100 dy=20 dh=0 dv=0
EndChar

StartChar: Ma
Encoding: 3118 3118 88
Width: 1065
GlyphClass: 2
Flags: W
AnchorPoint: "Anchor-3" 0 0 basechar 0
AnchorPoint: "Anchor-0" 0 0 basechar 0
LayerCount: 2
Fore
SplineSet
1064 309 m 0,0,1
 1067 287 1067 287 1067 266 c 0,2,3
 1067 185 1067 185 1032 112 c 0,4,5
 1008 62 1008 62 961.5 31 c 128,-1,6
 915 0 915 0 859 0 c 0,7,8
 728 0 728 0 691 109 c 1,9,10
 642 -2 642 -2 526 -2 c 0,11,12
 484 -2 484 -2 447.5 26 c 128,-1,13
 411 54 411 54 407 94 c 1,14,15
 385 -1 385 -1 290 -1 c 0,16,17
 224 -1 224 -1 185 48 c 0,18,19
 150 92 150 92 150 158 c 0,20,21
 150 219 150 219 191 263 c 128,-1,22
 232 307 232 307 291 304 c 0,23,24
 366 300 366 300 398 250 c 1,25,26
 417 204 417 204 436 158 c 0,27,28
 459 109 459 109 513 106 c 0,29,30
 574 103 574 103 608 136 c 128,-1,31
 642 169 642 169 641 230 c 0,32,33
 638 359 638 359 560 426 c 0,34,35
 504 474 504 474 401 499 c 0,36,37
 270 529 270 529 257 535 c 0,38,39
 194 564 194 564 194 635 c 0,40,41
 194 645 194 645 195 655 c 0,42,43
 196 675 196 675 218 688.5 c 128,-1,44
 240 702 240 702 267 701 c 0,45,46
 351 697 351 697 388 592 c 1,47,48
 443 663 443 663 498 735 c 0,49,50
 591 853 591 853 609 853 c 0,51,52
 659 853 659 853 659 802 c 0,53,54
 659 773 659 773 424 558 c 1,55,56
 685 499 685 499 707 249 c 0,57,58
 720 100 720 100 843 101 c 0,59,60
 934 102 934 102 974 160 c 0,61,62
 1006 205 1006 205 1001 277 c 0,63,64
 996 355 996 355 958 408 c 0,65,66
 925 453 925 453 848 504 c 1,67,68
 838 518 838 518 838 533 c 0,69,70
 838 551 838 551 850 563.5 c 128,-1,71
 862 576 862 576 878 576 c 0,72,73
 886 576 886 576 893 572 c 0,74,75
 1042 500 1042 500 1064 309 c 0,0,1
283 242 m 0,76,77
 248 239 248 239 227.5 215 c 128,-1,78
 207 191 207 191 207 161 c 256,79,80
 207 131 207 131 228 111.5 c 128,-1,81
 249 92 249 92 289 96 c 0,82,83
 368 104 368 104 368 171 c 0,84,85
 368 202 368 202 346 223 c 0,86,87
 321 245 321 245 283 242 c 0,76,77
EndSplineSet
Validated: 33
PairPos2: "'blwm' Below Base Mark in Telugu lookup 3 subtable" TaOttu dx=0 dy=0 dh=18 dv=0 dx=-18 dy=0 dh=0 dv=0
EndChar

StartChar: Telugu_Ya
Encoding: 3119 3119 89
Width: 1451
GlyphClass: 2
Flags: W
AnchorPoint: "Anchor-2" 0 0 basechar 0
AnchorPoint: "Anchor-0" 0 0 basechar 0
LayerCount: 2
Fore
SplineSet
776 560 m 1,0,1
 974 503 974 503 1029 383 c 0,2,3
 1071 289 1071 289 1066 195 c 1,4,5
 1084 107 1084 107 1195 107 c 0,6,7
 1279 107 1279 107 1329 144 c 0,8,9
 1386 185 1386 185 1386 265 c 0,10,11
 1387 385 1387 385 1206 464 c 1,12,13
 1197 477 1197 477 1197 495 c 0,14,15
 1197 545 1197 545 1237 545 c 0,16,17
 1243 545 1243 545 1249 543 c 0,18,19
 1340 519 1340 519 1395.5 442.5 c 128,-1,20
 1451 366 1451 366 1451 264 c 0,21,22
 1451 152 1451 152 1393 79 c 0,23,24
 1329 0 1329 0 1219 0 c 0,25,26
 1083 0 1083 0 1034 111 c 1,27,28
 961 0 961 0 840 0 c 0,29,30
 679 0 679 0 631 125 c 1,31,32
 576 1 576 1 409 -2 c 0,33,34
 279 -4 279 -4 211 72 c 0,35,36
 150 140 150 140 150 256 c 0,37,38
 150 362 150 362 225.5 433 c 128,-1,39
 301 504 301 504 407 504 c 1,40,41
 513 509 513 509 583 443.5 c 128,-1,42
 653 378 653 378 664 266 c 0,43,44
 681 119 681 119 822 119 c 0,45,46
 988 119 988 119 988 243 c 0,47,48
 988 256 988 256 986 270 c 0,49,50
 968 394 968 394 847 458 c 1,51,52
 741 496 741 496 634 535 c 0,53,54
 523 576 523 576 523 650 c 0,55,56
 523 733 523 733 591 733 c 0,57,58
 650 733 650 733 681 693 c 0,59,60
 697 672 697 672 724 600 c 1,61,-1
 984 818 l 1,62,63
 1001 824 1001 824 1001 824 c 1,64,65
 1022 824 1022 824 1042 805.5 c 128,-1,66
 1062 787 1062 787 1062 767 c 0,67,68
 1062 741 1062 741 932 656 c 0,69,70
 854 608 854 608 776 560 c 1,0,1
216 272 m 0,71,72
 216 197 216 197 281 157 c 0,73,74
 334 124 334 124 409 126 c 0,75,76
 489 128 489 128 539 161 c 0,77,78
 598 200 598 200 598 275 c 0,79,80
 598 348 598 348 546.5 394 c 128,-1,81
 495 440 495 440 421 440 c 0,82,83
 339 440 339 440 281 398 c 0,84,85
 216 351 216 351 216 272 c 0,71,72
EndSplineSet
Validated: 33
PairPos2: "'blwm' Below Base Mark in Telugu lookup 4 subtable" TaOttu dx=0 dy=0 dh=0 dv=0 dx=-72 dy=9 dh=0 dv=0
EndChar

StartChar: Ra
Encoding: 3120 3120 90
Width: 721
GlyphClass: 2
Flags: W
AnchorPoint: "Anchor-0" 0 0 basechar 0
LayerCount: 2
Fore
SplineSet
467 568 m 1,0,1
 577 557 577 557 644 470 c 0,2,3
 707 389 707 389 707 279 c 0,4,5
 707 161 707 161 629.5 80.5 c 128,-1,6
 552 0 552 0 432 0 c 0,7,8
 308 0 308 0 229 84 c 128,-1,9
 150 168 150 168 150 293 c 0,10,11
 150 467 150 467 342 557 c 1,12,13
 238 587 238 587 238 651 c 0,14,15
 238 714 238 714 297 714 c 0,16,17
 337 714 337 714 372 673 c 0,18,19
 384 658 384 658 421 597 c 1,20,21
 486 663 486 663 551 730 c 0,22,23
 652 829 652 829 677 829 c 0,24,25
 721 829 721 829 721 779 c 0,26,27
 721 728 721 728 467 568 c 1,0,1
432 512 m 0,28,29
 342 512 342 512 281.5 455 c 128,-1,30
 221 398 221 398 221 309 c 0,31,32
 221 230 221 230 276.5 176.5 c 128,-1,33
 332 123 332 123 411 123 c 0,34,35
 630 123 630 123 630 313 c 0,36,37
 630 395 630 395 572.5 453.5 c 128,-1,38
 515 512 515 512 432 512 c 0,28,29
EndSplineSet
Validated: 1
PairPos2: "'blwm' Below Base Mark in Telugu lookup 2 subtable" TaOttu dx=0 dy=0 dh=0 dv=0 dx=100 dy=20 dh=0 dv=0
EndChar

StartChar: RRa
Encoding: 3121 3121 91
Width: 817
GlyphClass: 2
Flags: W
AnchorPoint: "Anchor-0" 0 0 basechar 0
LayerCount: 2
Fore
SplineSet
491 94 m 1,0,1
 447 0 447 0 355 0 c 0,2,3
 252 0 252 0 196 99 c 0,4,5
 150 180 150 180 150 291 c 0,6,7
 150 399 150 399 195 476 c 0,8,9
 249 570 249 570 351 570 c 0,10,11
 407 570 407 570 442.5 535.5 c 128,-1,12
 478 501 478 501 478 445 c 0,13,14
 478 384 478 384 436 349 c 1,15,-1
 555 349 l 1,16,17
 529 390 529 390 529 434 c 0,18,19
 529 570 529 570 639 570 c 0,20,21
 732 570 732 570 780 482 c 0,22,23
 819 411 819 411 819 310 c 0,24,25
 819 192 819 192 784 111 c 0,26,27
 735 0 735 0 632 0 c 0,28,29
 524 0 524 0 491 94 c 1,0,1
644 494 m 0,30,31
 592 494 592 494 592 436 c 0,32,33
 592 365 592 365 747 264 c 1,34,-1
 515 264 l 1,35,36
 515 113 515 113 622 113 c 0,37,38
 688 113 688 113 726 174 c 0,39,40
 758 227 758 227 758 298 c 0,41,42
 758 494 758 494 644 494 c 0,30,31
342 386 m 0,43,44
 420 386 420 386 420 448 c 0,45,46
 420 474 420 474 401 493.5 c 128,-1,47
 382 513 382 513 351 513 c 0,48,49
 312 513 312 513 290 492.5 c 128,-1,50
 268 472 268 472 268 445 c 0,51,52
 268 386 268 386 342 386 c 0,43,44
247 264 m 1,53,-1
 247 344 l 1,54,-1
 254 344 l 1,55,56
 246 351 246 351 227 387 c 1,57,58
 214 341 214 341 214 291 c 0,59,60
 214 115 214 115 350 115 c 0,61,62
 415 115 415 115 443 159 c 0,63,64
 465 192 465 192 470 264 c 1,65,-1
 247 264 l 1,53,-1
EndSplineSet
Validated: 1
PairPos2: "'blwm' Below Base Mark in Telugu lookup 2 subtable" TaOttu dx=0 dy=0 dh=0 dv=0 dx=100 dy=20 dh=0 dv=0
EndChar

StartChar: La
Encoding: 3122 3122 92
Width: 773
GlyphClass: 2
Flags: W
AnchorPoint: "Anchor-0" 0 0 basechar 0
LayerCount: 2
Fore
SplineSet
458 1 m 0,0,1
 328 1 328 1 243 87.5 c 128,-1,2
 158 174 158 174 153 305 c 0,3,4
 150 399 150 399 208 471 c 0,5,6
 270 549 270 549 368 549 c 0,7,8
 421 549 421 549 453 515 c 128,-1,9
 485 481 485 481 485 428 c 0,10,11
 485 370 485 370 452 335 c 128,-1,12
 419 300 419 300 362 300 c 0,13,14
 321 300 321 300 284 331.5 c 128,-1,15
 247 363 247 363 247 403 c 0,16,17
 247 418 247 418 253 433 c 1,18,19
 212 388 212 388 216 308 c 0,20,21
 222 206 222 206 300 151 c 0,22,23
 368 103 368 103 472 103 c 0,24,25
 559 103 559 103 632 152 c 0,26,27
 716 208 716 208 717 292 c 0,28,29
 718 366 718 366 669 421 c 0,30,31
 666 424 666 424 579 498 c 1,32,33
 579 545 579 545 628 553 c 1,34,35
 783 501 783 501 777 311 c 0,36,37
 768 1 768 1 458 1 c 0,0,1
363 371 m 0,38,39
 401 371 401 371 421 389 c 128,-1,40
 441 407 441 407 441 432 c 0,41,42
 441 456 441 456 423 473 c 128,-1,43
 405 490 405 490 373 490 c 0,44,45
 335 490 335 490 314.5 472 c 128,-1,46
 294 454 294 454 294 430 c 256,47,48
 294 406 294 406 312.5 388.5 c 128,-1,49
 331 371 331 371 363 371 c 0,38,39
EndSplineSet
Validated: 33
PairPos2: "'blwm' Below Base Mark in Telugu lookup 2 subtable" TaOttu dx=0 dy=0 dh=0 dv=0 dx=100 dy=20 dh=0 dv=0
EndChar

StartChar: LLa
Encoding: 3123 3123 93
Width: 696
GlyphClass: 2
Flags: W
AnchorPoint: "Anchor-0" 0 0 basechar 0
LayerCount: 2
Fore
SplineSet
437 597 m 1,0,1
 490 658 490 658 542 719 c 0,2,3
 625 815 625 815 646 815 c 0,4,5
 696 815 696 815 696 773 c 0,6,7
 696 741 696 741 601 672 c 0,8,9
 495 595 495 595 484 576 c 1,10,11
 667 531 667 531 667 419 c 0,12,13
 667 368 667 368 605 313 c 0,14,15
 556 269 556 269 497 243 c 1,16,17
 543 200 543 200 543 147 c 0,18,19
 543 80 543 80 513 40 c 0,20,21
 480 -4 480 -4 416 -4 c 0,22,23
 358 -4 358 -4 323 36.5 c 128,-1,24
 288 77 288 77 288 136 c 0,25,26
 288 196 288 196 337 234 c 1,27,28
 262 249 262 249 212 288 c 0,29,30
 150 336 150 336 150 405 c 0,31,32
 150 462 150 462 187 497 c 128,-1,33
 224 532 224 532 281 532 c 0,34,35
 326 532 326 532 360.5 503 c 128,-1,36
 395 474 395 474 395 431 c 0,37,38
 395 387 395 387 358.5 361 c 128,-1,39
 322 335 322 335 275 335 c 0,40,41
 251 335 251 335 231 343 c 1,42,43
 300 285 300 285 412 285 c 0,44,45
 471 285 471 285 524 321 c 0,46,47
 582 362 582 362 582 418 c 0,48,49
 582 492 582 492 500 519 c 1,50,51
 425 535 425 535 349 552 c 1,52,53
 267 577 267 577 267 647 c 0,54,55
 267 706 267 706 334 706 c 0,56,57
 382 706 382 706 406 673 c 0,58,59
 421 653 421 653 437 597 c 1,0,1
282 484 m 0,60,61
 208 484 208 484 208 438 c 0,62,63
 208 388 208 388 269 388 c 0,64,65
 297 388 297 388 318 400 c 0,66,67
 344 414 344 414 344 440 c 0,68,69
 344 484 344 484 282 484 c 0,60,61
414 88 m 0,70,71
 485 95 485 95 483 154 c 0,72,73
 482 178 482 178 468 195 c 0,74,75
 451 215 451 215 426 210 c 0,76,77
 394 203 394 203 374.5 180 c 128,-1,78
 355 157 355 157 355 132 c 0,79,80
 355 82 355 82 414 88 c 0,70,71
EndSplineSet
Validated: 33
PairPos2: "'blwm' Below Base Mark in Telugu lookup 2 subtable" TaOttu dx=0 dy=0 dh=0 dv=0 dx=100 dy=20 dh=0 dv=0
EndChar

StartChar: Va
Encoding: 3125 3125 94
Width: 702
GlyphClass: 2
Flags: W
AnchorPoint: "Anchor-0" 0 0 basechar 0
LayerCount: 2
Fore
SplineSet
399 80 m 1,0,1
 390 54 390 54 361 29 c 0,2,3
 326 -1 326 -1 287 -3 c 0,4,5
 221 -6 221 -6 184 41 c 0,6,7
 150 84 150 84 150 152 c 0,8,9
 150 215 150 215 191 260 c 128,-1,10
 232 305 232 305 290 300 c 0,11,12
 365 295 365 295 393 242 c 1,13,14
 410 195 410 195 426 148 c 0,15,16
 447 99 447 99 505 99 c 0,17,18
 559 99 559 99 593 134 c 128,-1,19
 627 169 627 169 628 232 c 0,20,21
 629 352 629 352 557 414 c 0,22,23
 503 461 503 461 393 482 c 0,24,25
 271 506 271 506 243 519 c 0,26,27
 177 551 177 551 183 631 c 0,28,29
 188 692 188 692 245 692 c 0,30,31
 304 692 304 692 332 661 c 0,32,33
 348 643 348 643 374 578 c 1,34,35
 560 824 560 824 590 824 c 0,36,37
 640 824 640 824 640 771 c 0,38,39
 640 742 640 742 418 544 c 1,40,41
 560 506 560 506 628 429 c 0,42,43
 702 345 702 345 702 201 c 0,44,45
 702 116 702 116 652 58 c 0,46,47
 599 -3 599 -3 516 -3 c 0,48,49
 440 -3 440 -3 399 80 c 1,0,1
281 99 m 0,50,51
 319 99 319 99 340 121 c 128,-1,52
 361 143 361 143 361 173 c 0,53,54
 361 204 361 204 341 225 c 0,55,56
 318 249 318 249 281 249 c 256,57,58
 244 249 244 249 223 227 c 128,-1,59
 202 205 202 205 202 174 c 256,60,61
 202 143 202 143 223 121 c 128,-1,62
 244 99 244 99 281 99 c 0,50,51
EndSplineSet
Validated: 33
PairPos2: "'blwm' Below Base Mark in Telugu lookup 2 subtable" TaOttu dx=0 dy=0 dh=0 dv=0 dx=100 dy=20 dh=0 dv=0
EndChar

StartChar: Telugu_Sha
Encoding: 3126 3126 95
Width: 656
GlyphClass: 2
Flags: W
AnchorPoint: "Anchor-0" 0 0 basechar 0
LayerCount: 2
Fore
SplineSet
383 627 m 1,0,1
 440 686 440 686 498 744 c 0,2,3
 589 836 589 836 605 836 c 0,4,5
 656 836 656 836 656 793 c 0,6,7
 656 765 656 765 429 599 c 1,8,9
 506 592 506 592 566 563 c 0,10,11
 648 523 648 523 648 461 c 0,12,13
 648 421 648 421 623 387 c 0,14,15
 613 372 613 372 569 329 c 1,16,17
 625 252 625 252 625 185 c 0,18,19
 625 101 625 101 570.5 50 c 128,-1,20
 516 -1 516 -1 431 -1 c 0,21,22
 361 -1 361 -1 312 35 c 0,23,24
 258 76 258 76 258 143 c 0,25,26
 258 221 258 221 333 271 c 0,27,28
 354 285 354 285 475 337 c 1,29,30
 406 396 406 396 338 396 c 0,31,32
 301 396 301 396 274 378 c 0,33,34
 243 357 243 357 243 321 c 0,35,36
 243 302 243 302 256 278 c 128,-1,37
 269 254 269 254 269 250 c 0,38,39
 269 207 269 207 204 207 c 0,40,41
 150 207 150 207 150 302 c 0,42,43
 150 373 150 373 203 417 c 0,44,45
 253 459 253 459 326 459 c 0,46,47
 431 459 431 459 527 372 c 1,48,49
 565 411 565 411 565 452 c 0,50,51
 565 497 565 497 503 524 c 0,52,53
 453 546 453 546 401 546 c 0,54,55
 331 546 331 546 276 571 c 0,56,57
 205 603 205 603 205 665 c 0,58,59
 205 725 205 725 272 725 c 0,60,61
 350 725 350 725 383 627 c 1,0,1
516 295 m 1,62,63
 334 218 334 218 330 165 c 0,64,65
 327 136 327 136 366 118 c 0,66,67
 397 103 397 103 431 103 c 0,68,69
 482 103 482 103 515 127 c 0,70,71
 553 154 553 154 553 203 c 0,72,73
 553 236 553 236 516 295 c 1,62,63
EndSplineSet
Validated: 33
PairPos2: "'blwm' Below Base Mark in Telugu lookup 2 subtable" TaOttu dx=0 dy=0 dh=0 dv=0 dx=100 dy=20 dh=0 dv=0
EndChar

StartChar: SSa
Encoding: 3127 3127 96
Width: 795
GlyphClass: 2
Flags: W
AnchorPoint: "Anchor-0" 0 0 basechar 0
LayerCount: 2
Fore
SplineSet
310 593 m 1,0,1
 354 630 354 630 428 703 c 0,2,3
 508 782 508 782 545 814 c 0,4,5
 557 824 557 824 574 824 c 0,6,7
 593 824 593 824 607.5 812.5 c 128,-1,8
 622 801 622 801 622 783 c 0,9,10
 622 759 622 759 592 735 c 0,11,12
 514 673 514 673 437 610 c 0,13,14
 314 515 314 515 288 515 c 0,15,16
 242 515 242 515 196 564.5 c 128,-1,17
 150 614 150 614 150 661 c 0,18,19
 150 685 150 685 168.5 700 c 128,-1,20
 187 715 187 715 211 715 c 0,21,22
 257 715 257 715 280 674 c 0,23,24
 285 665 285 665 310 593 c 1,0,1
803 -81 m 0,25,26
 803 -122 803 -122 769 -122 c 0,27,28
 764 -122 764 -122 758 -120 c 0,29,30
 713 -106 713 -106 690 -62 c 0,31,32
 671 -26 671 -26 671 15 c 0,33,34
 671 35 671 35 676 47 c 1,35,36
 614 0 614 0 554 0 c 0,37,38
 457 0 457 0 421 80 c 1,39,40
 379 0 379 0 297 0 c 0,41,42
 231 0 231 0 192 43.5 c 128,-1,43
 153 87 153 87 153 153 c 0,44,45
 153 211 153 211 192.5 255 c 128,-1,46
 232 299 232 299 289 299 c 0,47,48
 410 299 410 299 426 206 c 0,49,50
 435 153 435 153 453 131 c 0,51,52
 480 100 480 100 544 100 c 0,53,54
 612 100 612 100 649.5 135 c 128,-1,55
 687 170 687 170 682 237 c 0,56,57
 676 317 676 317 628 377 c 0,58,59
 599 413 599 413 541 452 c 0,60,61
 493 485 493 485 491 497 c 0,62,63
 486 518 486 518 501.5 534 c 128,-1,64
 517 550 517 550 538 548 c 1,65,66
 640 518 640 518 693 418 c 0,67,68
 740 330 740 330 742 235 c 0,69,70
 743 207 743 207 733.5 161 c 128,-1,71
 724 115 724 115 724 94 c 0,72,73
 724 54 724 54 763.5 -3.5 c 128,-1,74
 803 -61 803 -61 803 -81 c 0,25,26
298 244 m 0,75,76
 255 244 255 244 231.5 222 c 128,-1,77
 208 200 208 200 208 170 c 0,78,79
 208 143 208 143 229 123 c 128,-1,80
 250 103 250 103 288 103 c 0,81,82
 331 103 331 103 355 124 c 0,83,84
 376 143 376 143 376 172 c 256,85,86
 376 201 376 201 356 222 c 0,87,88
 333 244 333 244 298 244 c 0,75,76
EndSplineSet
Validated: 33
PairPos2: "'blwm' Below Base Mark in Telugu lookup 6 subtable" TaOttu dx=0 dy=0 dh=0 dv=0 dx=99 dy=-79 dh=0 dv=0
EndChar

StartChar: Sa
Encoding: 3128 3128 97
Width: 719
GlyphClass: 2
Flags: W
AnchorPoint: "Anchor-0" 0 0 basechar 0
LayerCount: 2
Fore
SplineSet
312 587 m 1,0,1
 376 650 376 650 440 713 c 0,2,3
 545 816 545 816 561 816 c 0,4,5
 610 816 610 816 610 774 c 0,6,7
 610 749 610 749 461 630 c 0,8,9
 316 515 316 515 299 515 c 0,10,11
 253 515 253 515 201.5 558.5 c 128,-1,12
 150 602 150 602 150 648 c 0,13,14
 150 674 150 674 168 690.5 c 128,-1,15
 186 707 186 707 212 707 c 0,16,17
 252 707 252 707 270 684 c 0,18,19
 281 671 281 671 291 635.5 c 128,-1,20
 301 600 301 600 312 587 c 1,0,1
538 5 m 0,21,22
 468 9 468 9 413 74 c 0,23,24
 397 92 397 92 336 191 c 0,25,26
 298 254 298 254 268 254 c 0,27,28
 225 254 225 254 225 206 c 0,29,30
 225 163 225 163 269.5 94 c 128,-1,31
 314 25 314 25 314 -1 c 0,32,33
 314 -39 314 -39 280 -39 c 0,34,35
 223 -39 223 -39 184 45 c 0,36,37
 151 115 151 115 151 181 c 0,38,39
 151 313 151 313 258 313 c 0,40,41
 323 313 323 313 364 261 c 1,42,43
 396 213 396 213 428 165 c 1,44,45
 472 116 472 116 547 121 c 0,46,47
 593 124 593 124 624 157.5 c 128,-1,48
 655 191 655 191 656 234 c 0,49,50
 657 301 657 301 612 365 c 0,51,52
 583 406 583 406 526 458 c 0,53,54
 476 502 476 502 473 512 c 0,55,56
 472 516 472 516 472 521 c 0,57,58
 472 537 472 537 484.5 551 c 128,-1,59
 497 565 497 565 515 565 c 0,60,61
 530 565 530 565 545 555 c 0,62,63
 634 499 634 499 678 396 c 0,64,65
 718 304 718 304 718 230 c 0,66,67
 718 137 718 137 672 72 c 0,68,69
 621 0 621 0 538 5 c 0,21,22
EndSplineSet
Validated: 33
PairPos2: "'blwm' Below Base Mark in Telugu lookup 2 subtable" TaOttu dx=0 dy=0 dh=0 dv=0 dx=100 dy=20 dh=0 dv=0
EndChar

StartChar: Telugu_Ha
Encoding: 3129 3129 98
Width: 1222
GlyphClass: 2
Flags: W
AnchorPoint: "Anchor-0" 0 0 basechar 0
LayerCount: 2
Fore
SplineSet
504 549 m 1,0,-1
 1058 550 l 2,1,2
 1257 550 1257 550 1257 423 c 0,3,4
 1257 277 1257 277 1123 272 c 0,5,6
 1053 270 1053 270 1008.5 306 c 128,-1,7
 964 342 964 342 964 405 c 0,8,9
 964 438 964 438 983 461 c 1,10,-1
 660 461 l 1,11,12
 779 360 779 360 779 224 c 0,13,14
 779 129 779 129 721 63 c 0,15,16
 661 -6 661 -6 566 -6 c 0,17,18
 474 -6 474 -6 428 88 c 1,19,20
 412 47 412 47 375 22 c 128,-1,21
 338 -3 338 -3 293 -3 c 0,22,23
 231 -3 231 -3 192 41 c 128,-1,24
 153 85 153 85 155 147 c 1,25,26
 149 215 149 215 195.5 262 c 128,-1,27
 242 309 242 309 302 305 c 0,28,29
 390 301 390 301 421 247 c 0,30,31
 447 197 447 197 456 151 c 1,32,33
 479 101 479 101 551 101 c 0,34,35
 706 101 706 101 706 242 c 0,36,37
 706 329 706 329 644 395 c 0,38,39
 588 454 588 454 504 475 c 1,40,-1
 504 549 l 1,0,-1
1114 356 m 256,41,42
 1156 356 1156 356 1182 374 c 0,43,44
 1204 391 1204 391 1204 415 c 0,45,46
 1204 438 1204 438 1183 454 c 0,47,48
 1159 471 1159 471 1118 471 c 0,49,50
 1073 471 1073 471 1048.5 454.5 c 128,-1,51
 1024 438 1024 438 1024 415 c 0,52,53
 1024 391 1024 391 1048 373.5 c 128,-1,54
 1072 356 1072 356 1114 356 c 256,41,42
304 515 m 0,55,56
 254 515 254 515 204 556.5 c 128,-1,57
 154 598 154 598 154 642 c 0,58,59
 154 710 154 710 217 710 c 0,60,61
 263 710 263 710 286 671 c 1,62,63
 302 632 302 632 317 592 c 1,64,65
 394 665 394 665 549 810 c 0,66,67
 561 821 561 821 578 821 c 0,68,69
 597 821 597 821 612.5 809 c 128,-1,70
 628 797 628 797 628 780 c 0,71,72
 628 755 628 755 596 731 c 0,73,74
 512 664 512 664 344 531 c 0,75,76
 324 515 324 515 304 515 c 0,55,56
288 240 m 0,77,78
 255 240 255 240 232.5 214.5 c 128,-1,79
 210 189 210 189 210 159 c 0,80,81
 210 94 210 94 298 95 c 0,82,83
 339 95 339 95 362 116 c 128,-1,84
 385 137 385 137 385 166 c 0,85,86
 385 196 385 196 361 217 c 0,87,88
 334 241 334 241 288 240 c 0,77,78
EndSplineSet
Validated: 33
PairPos2: "'blwm' Below Base Mark in Telugu lookup 4 subtable" TaOttu dx=0 dy=0 dh=0 dv=0 dx=-72 dy=9 dh=0 dv=0
EndChar

StartChar: Avagraha
Encoding: 3133 3133 99
Width: 961
GlyphClass: 2
Flags: W
LayerCount: 2
Fore
SplineSet
441 5 m 2,0,1
 151 5 151 5 151 121 c 0,2,3
 151 129 151 129 152 138 c 0,4,5
 162 206 162 206 267 242 c 1,6,7
 361 264 361 264 455 286 c 0,8,9
 555 310 555 310 557 349 c 0,10,11
 559 386 559 386 342 394 c 0,12,13
 317 395 317 395 171 395 c 2,14,-1
 149 395 l 1,15,-1
 149 469 l 1,16,-1
 432 469 l 2,17,18
 502 469 502 469 565 441 c 0,19,20
 645 406 645 406 645 346 c 0,21,22
 645 271 645 271 539 231 c 0,23,24
 495 215 495 215 341 185 c 0,25,26
 232 164 232 164 229 136 c 0,27,28
 225 104 225 104 306 93 c 0,29,30
 360 89 360 89 414 85 c 0,31,32
 489 79 489 79 585 78 c 0,33,34
 645 78 645 78 758 80 c 0,35,36
 887 83 887 83 959 83 c 1,37,-1
 959 5 l 1,38,-1
 441 5 l 2,0,1
EndSplineSet
Validated: 33
EndChar

StartChar: AAMatra
Encoding: 3134 3134 100
Width: 295
GlyphClass: 4
Flags: W
LayerCount: 2
Fore
SplineSet
-18 690 m 0,0,1
 -18 736 -18 736 6 770 c 1,2,-1
 -661 770 l 1,3,-1
 -661 850 l 1,4,-1
 101 850 l 2,5,6
 201 850 201 850 248 819 c 0,7,8
 309 779 309 779 305 691 c 0,9,10
 301 615 301 615 244 569 c 0,11,12
 207 542 207 542 144 544 c 0,13,14
 76 546 76 546 46 568 c 0,15,16
 -18 608 -18 608 -18 690 c 0,0,1
139 756 m 0,17,18
 46 751 46 751 45 691 c 0,19,20
 43 652 43 652 77 635 c 0,21,22
 104 622 104 622 144 623 c 0,23,24
 249 627 249 627 249 687 c 1,25,26
 253 716 253 716 230 735 c 0,27,28
 201 758 201 758 139 756 c 0,17,18
EndSplineSet
Validated: 33
Ligature2: "'rlig' Required Ligatures lookup 1 subtable" Telugu_A JWJ AAMatra
EndChar

StartChar: Imatra
Encoding: 3135 3135 101
Width: 0
GlyphClass: 4
Flags: W
LayerCount: 2
Fore
SplineSet
-161 776 m 0,1,2
 -161 675 -161 675 -278 620 c 1,3,4
 -313 609 -313 609 -347 610 c 0,5,6
 -479 612 -479 612 -532 719 c 0,7,8
 -545 745 -545 745 -545 760 c 0,9,10
 -545 776 -545 776 -518 787 c 0,11,12
 -513 791 -513 791 -495 763 c 0,13,14
 -493 759 -493 759 -460 719 c 0,15,16
 -419 669 -419 669 -347 670 c 0,17,18
 -299 671 -299 671 -262 699 c 128,-1,19
 -225 727 -225 727 -219 773 c 2,20,-1
 -217 789 l 1,21,22
 -255 702 -255 702 -347 696 c 0,23,24
 -414 692 -414 692 -454 738 c 0,25,26
 -487 776 -487 776 -487 823 c 0,27,28
 -487 906 -487 906 -415 935 c 0,29,30
 -387 949 -387 949 -351 951 c 0,31,32
 -273 954 -273 954 -217 907 c 128,-1,0
 -161 860 -161 860 -161 776 c 0,1,2
-350 887 m 0,34,35
 -388 886 -388 886 -412 865 c 0,36,37
 -439 840 -439 840 -427 804 c 0,38,39
 -418 779 -418 779 -384 767 c 0,40,41
 -355 757 -355 757 -326 761 c 0,42,43
 -267 770 -267 770 -263 821 c 0,44,45
 -261 844 -261 844 -281 866 c 128,-1,33
 -301 888 -301 888 -350 887 c 0,34,35
EndSplineSet
Validated: 33
Ligature2: "'rlig' Required Ligatures lookup 1 subtable" Telugu_A JWJ Imatra
EndChar

StartChar: IIMatra
Encoding: 3136 3136 102
Width: 2
GlyphClass: 4
Flags: W
LayerCount: 2
Fore
SplineSet
-224 617 m 0,0,1
 -262 601 -262 601 -299 603 c 0,2,3
 -425 608 -425 608 -478 713 c 0,4,5
 -491 739 -491 739 -491 752 c 0,6,7
 -491 774 -491 774 -469 784 c 0,8,9
 -462 787 -462 787 -445 768 c 1,10,11
 -437 752 -437 752 -409 715 c 0,12,13
 -366 662 -366 662 -297 664 c 0,14,15
 -253 669 -253 669 -229 687 c 128,-1,16
 -205 705 -205 705 -198 712 c 0,17,18
 -177 734 -177 734 -173 768 c 2,19,-1
 -172 790 l 1,20,21
 -184 763 -184 763 -215 732 c 128,-1,22
 -246 701 -246 701 -303.5 697.5 c 128,-1,23
 -361 694 -361 694 -397 734 c 0,24,25
 -422 765 -422 765 -429 793 c 0,26,27
 -441 857 -441 857 -393 905 c 1,28,29
 -446 952 -446 952 -445 998 c 0,30,31
 -434 1126 -434 1126 -296 1130 c 0,32,33
 -241 1131 -241 1131 -206 1102 c 0,34,35
 -166 1069 -166 1069 -166 1009 c 0,36,37
 -166 969 -166 969 -187 941 c 1,38,39
 -193 941 -193 941 -201 949 c 1,40,41
 -201 1062 -201 1062 -283 1065 c 0,42,43
 -331 1069 -331 1069 -357 1045 c 128,-1,44
 -383 1021 -383 1021 -381 992 c 0,45,46
 -377 941 -377 941 -334 942 c 0,47,48
 -230 950 -230 950 -169 891 c 0,49,50
 -115 840 -115 840 -115 771 c 0,51,52
 -115 667 -115 667 -224 617 c 0,0,1
-378 824 m 0,54,55
 -383 795 -383 795 -364.5 776.5 c 128,-1,56
 -346 758 -346 758 -300 758 c 1,57,58
 -231 768 -231 768 -226 819 c 0,59,60
 -224 857 -224 857 -258 870 c 0,61,62
 -287 885 -287 885 -327.5 876 c 128,-1,53
 -368 867 -368 867 -378 824 c 0,54,55
EndSplineSet
Validated: 33
Ligature2: "'rlig' Required Ligatures lookup 1 subtable" Telugu_A JWJ IIMatra
EndChar

StartChar: UMatra
Encoding: 3137 3137 103
Width: 369
GlyphClass: 4
Flags: W
LayerCount: 2
Fore
SplineSet
1 235 m 1,0,1
 28 90 28 90 153 90 c 0,2,3
 179 90 179 90 212 98 c 0,4,5
 314 122 314 122 313 281 c 1,6,7
 307 388 307 388 198 474 c 1,8,9
 175 486 175 486 175 508 c 0,10,11
 175 526 175 526 189.5 540.5 c 128,-1,12
 204 555 204 555 240 539 c 0,13,14
 348 483 348 483 368 291 c 1,15,16
 367 231 367 231 367 222 c 0,17,18
 361 150 361 150 330 100 c 0,19,20
 276 0 276 0 165 0 c 0,21,22
 40 0 40 0 0 113 c 1,23,-1
 1 235 l 1,0,1
EndSplineSet
Validated: 33
Ligature2: "'rlig' Required Ligatures lookup 1 subtable" Telugu_A JWJ UMatra
EndChar

StartChar: UUMatra
Encoding: 3138 3138 104
Width: 791
GlyphClass: 4
Flags: W
LayerCount: 2
Fore
SplineSet
196 482 m 1,1,-1
 196 551 l 1,2,-1
 662 551 l 2,3,4
 801 549 801 549 810 427 c 0,5,6
 817 349 817 349 758 315 c 0,7,8
 730 299 730 299 685 299 c 1,9,10
 569 313 569 313 569 420 c 0,11,12
 570 448 570 448 594 477 c 1,13,-1
 324 476 l 1,14,15
 355 445 355 445 386 362 c 128,-1,16
 417 279 417 279 414 223 c 1,17,18
 418 131 418 131 361 64 c 0,19,20
 306 0 306 0 207 0 c 1,21,22
 59 14 59 14 24 162 c 0,23,24
 10 232 10 232 26 281 c 0,25,26
 32 290 32 290 43 287 c 0,27,28
 56 287 56 287 56 276 c 0,29,30
 62 192 62 192 66.5 182 c 128,-1,31
 71 172 71 172 79 154 c 0,32,33
 90 126 90 126 136.5 107 c 128,-1,34
 183 88 183 88 243 94 c 0,35,36
 282 100 282 100 315.5 131.5 c 128,-1,37
 349 163 349 163 355 217 c 1,38,39
 354 301 354 301 322.5 365 c 128,-1,40
 291 429 291 429 254 456 c 128,-1,0
 217 483 217 483 196 482 c 1,1,-1
695 473 m 0,42,43
 617 471 617 471 617 418 c 0,44,45
 617 366 617 366 695 368 c 0,46,47
 767 369 767 369 769 420 c 0,48,49
 769 452 769 452 743 462.5 c 128,-1,41
 717 473 717 473 695 473 c 0,42,43
EndSplineSet
Validated: 33
Ligature2: "'rlig' Required Ligatures lookup 1 subtable" Telugu_A JWJ UUMatra
EndChar

StartChar: RMatra
Encoding: 3139 3139 105
Width: 568
GlyphClass: 4
Flags: W
LayerCount: 2
Fore
SplineSet
327 -420 m 0,0,1
 214 -426 214 -426 144 -343 c 0,2,3
 77 -264 77 -264 77 -144 c 0,4,5
 77 -78 77 -78 112 -31 c 0,6,7
 151 20 151 20 215 20 c 0,8,9
 343 20 343 20 343 -101 c 0,10,11
 343 -151 343 -151 312.5 -186 c 128,-1,12
 282 -221 282 -221 232 -221 c 0,13,14
 159 -221 159 -221 136 -188 c 1,15,16
 149 -219 149 -219 162 -249 c 1,17,18
 199 -301 199 -301 303 -301 c 0,19,20
 504 -301 504 -301 504 -88 c 0,21,22
 504 78 504 78 420 228 c 0,23,24
 339 372 339 372 198 473 c 1,25,26
 163 491 163 491 163 519 c 0,27,28
 163 559 163 559 209 559 c 0,29,30
 231 559 231 559 254 543 c 0,31,32
 329 489 329 489 388 415 c 0,33,34
 568 188 568 188 568 -119 c 0,35,36
 568 -240 568 -240 515 -319 c 0,37,38
 452 -414 452 -414 327 -420 c 0,0,1
217 -35 m 0,39,40
 186 -35 186 -35 167 -54.5 c 128,-1,41
 148 -74 148 -74 148 -101 c 0,42,43
 148 -162 148 -162 219 -162 c 0,44,45
 256 -162 256 -162 276 -143.5 c 128,-1,46
 296 -125 296 -125 296 -100 c 0,47,48
 296 -74 296 -74 275 -54.5 c 128,-1,49
 254 -35 254 -35 217 -35 c 0,39,40
EndSplineSet
Validated: 33
Ligature2: "'rlig' Required Ligatures lookup 1 subtable" Telugu_A JWJ RMatra
EndChar

StartChar: RRMatra
Encoding: 3140 3140 106
Width: 975
GlyphClass: 4
Flags: W
LayerCount: 2
Fore
SplineSet
143 -213 m 1,0,1
 169 -313 169 -313 324 -313 c 0,2,3
 436 -313 436 -313 487 -257 c 0,4,5
 535 -204 535 -204 535 -89 c 0,6,7
 535 57 535 57 433 209 c 0,8,9
 377 291 377 291 246 426 c 0,10,11
 148 525 148 525 154 553 c 1,12,-1
 794 553 l 2,13,14
 978 553 978 553 978 413 c 0,15,16
 978 356 978 356 948 320 c 0,17,18
 915 281 915 281 855 275 c 0,19,20
 793 269 793 269 746.5 307 c 128,-1,21
 700 345 700 345 700 403 c 0,22,23
 700 433 700 433 714 464 c 1,24,-1
 327 464 l 1,25,26
 600 192 600 192 613 -120 c 0,27,28
 618 -250 618 -250 546 -341 c 0,29,30
 468 -438 468 -438 336 -438 c 0,31,32
 229 -438 229 -438 150.5 -362.5 c 128,-1,33
 72 -287 72 -287 72 -181 c 0,34,35
 72 11 72 11 238 11 c 0,36,37
 359 11 359 11 359 -112 c 0,38,39
 359 -172 359 -172 322.5 -209 c 128,-1,40
 286 -246 286 -246 226 -246 c 0,41,42
 179 -246 179 -246 143 -213 c 1,0,1
850 464 m 0,43,44
 808 464 808 464 784.5 447 c 128,-1,45
 761 430 761 430 761 407 c 0,46,47
 761 386 761 386 781.5 370.5 c 128,-1,48
 802 355 802 355 839 355 c 0,49,50
 881 355 881 355 905 372 c 0,51,52
 926 388 926 388 926 410 c 256,53,54
 926 432 926 432 907 447 c 0,55,56
 885 464 885 464 850 464 c 0,43,44
222 -174 m 0,57,58
 261 -173 261 -173 282 -154.5 c 128,-1,59
 303 -136 303 -136 303 -110 c 256,60,61
 303 -84 303 -84 285 -66 c 0,62,63
 264 -46 264 -46 231 -46 c 0,64,65
 192 -46 192 -46 168 -67.5 c 128,-1,66
 144 -89 144 -89 144 -116 c 0,67,68
 144 -174 144 -174 222 -174 c 0,57,58
EndSplineSet
Validated: 33
Ligature2: "'rlig' Required Ligatures lookup 1 subtable" Telugu_A JWJ RRMatra
EndChar

StartChar: Telugu_J
Encoding: 3142 3142 107
Width: 0
GlyphClass: 4
Flags: W
LayerCount: 2
Fore
SplineSet
-102 738 m 0,0,1
 -144 700 -144 700 -223 700 c 2,2,-1
 -423 700 l 1,3,-1
 -423 764 l 1,4,-1
 -245 764 l 2,5,6
 -140 764 -140 764 -140 824 c 0,7,8
 -140 849 -140 849 -162.5 868.5 c 128,-1,9
 -185 888 -185 888 -211 888 c 2,10,-1
 -770 888 l 1,11,-1
 -770 967 l 1,12,-1
 -242 967 l 2,13,14
 -172 967 -172 967 -119 932 c 0,15,16
 -61 891 -61 891 -62 824 c 0,17,18
 -64 770 -64 770 -102 738 c 0,0,1
EndSplineSet
Validated: 33
Ligature2: "'rlig' Required Ligatures lookup 1 subtable" Telugu_A JWJ Telugu_J
EndChar

StartChar: EEMatra
Encoding: 3143 3143 108
Width: 25
GlyphClass: 4
Flags: W
LayerCount: 2
Fore
SplineSet
-72 966 m 0,0,1
 -87 953 -87 953 -93 966 c 1,2,3
 -89 1062 -89 1062 -176 1064 c 0,4,5
 -253 1062 -253 1062 -255 1004 c 0,6,7
 -253 967 -253 967 -208 950 c 1,8,9
 -72 924 -72 924 -73 820 c 0,10,11
 -73 770 -73 770 -107 738 c 0,12,13
 -147 700 -147 700 -209 700 c 2,14,-1
 -376 700 l 1,15,-1
 -376 758 l 1,16,-1
 -227 758 l 2,17,18
 -211 758 -211 758 -205 759 c 0,19,20
 -145 767 -145 767 -141 814 c 0,21,22
 -136 834 -136 834 -156 856 c 128,-1,23
 -176 878 -176 878 -200 878 c 2,24,-1
 -705 878 l 1,25,-1
 -705 950 l 1,26,-1
 -286 950 l 1,27,28
 -308 969 -308 969 -313 1009 c 2,29,-1
 -314 1026 l 1,30,31
 -309 1075 -309 1075 -269.5 1101 c 128,-1,32
 -230 1127 -230 1127 -161 1121 c 0,33,34
 -118 1116 -118 1116 -87 1086 c 0,35,36
 -64 1063 -64 1063 -58 1017 c 0,37,38
 -57 984 -57 984 -72 966 c 0,0,1
EndSplineSet
Validated: 33
Ligature2: "'rlig' Required Ligatures lookup 1 subtable" Telugu_A JWJ EEMatra
EndChar

StartChar: AIMatra
Encoding: 3144 3144 109
Width: 0
GlyphClass: 4
Flags: W
LayerCount: 2
Fore
SplineSet
-194 772 m 2,0,-1
 -428 772 l 1,1,-1
 -428 836 l 1,2,-1
 -216 836 l 2,3,4
 -111 836 -111 836 -111 897 c 0,5,6
 -111 922 -111 922 -134 942 c 128,-1,7
 -157 962 -157 962 -183 962 c 2,8,-1
 -744 962 l 1,9,-1
 -744 1042 l 1,10,-1
 -213 1042 l 2,11,12
 -141 1042 -141 1042 -90 1006 c 0,13,14
 -32 966 -32 966 -32 897 c 0,15,16
 -32 834 -32 834 -85 801 c 0,17,18
 -128 772 -128 772 -194 772 c 2,0,-1
-597 -399 m 2,19,20
 -789 -401 -789 -401 -789 -244 c 0,21,22
 -789 -174 -789 -174 -743.5 -136 c 128,-1,23
 -698 -98 -698 -98 -629 -98 c 0,24,25
 -496 -98 -496 -98 -477 -220 c 0,26,27
 -469 -267 -469 -267 -501 -311 c 1,28,-1
 -8 -311 l 1,29,-1
 -8 -399 l 1,30,-1
 -597 -399 l 2,19,20
-623 -168 m 0,31,32
 -663 -168 -663 -168 -696 -184 c 0,33,34
 -736 -206 -736 -206 -736 -243 c 0,35,36
 -736 -307 -736 -307 -637 -307 c 0,37,38
 -589 -307 -589 -307 -561 -281 c 128,-1,39
 -533 -255 -533 -255 -533 -225 c 0,40,41
 -533 -168 -533 -168 -623 -168 c 0,31,32
EndSplineSet
Validated: 33
Ligature2: "'rlig' Required Ligatures lookup 1 subtable" Telugu_A JWJ AIMatra
EndChar

StartChar: OMatra
Encoding: 3146 3146 110
Width: 400
GlyphClass: 4
Flags: W
LayerCount: 2
Fore
SplineSet
425 768 m 0,0,1
 433 672 433 672 357 619 c 0,2,3
 324 595 324 595 263 595 c 0,4,5
 241 595 241 595 220 600 c 0,6,7
 108 630 108 630 105 742 c 1,8,9
 116 803 116 803 145 825 c 1,10,-1
 -216 825 l 2,11,12
 -242 825 -242 825 -262.5 781 c 128,-1,13
 -283 737 -283 737 -285 702 c 1,14,15
 -300 655 -300 655 -309 688 c 128,-1,16
 -318 721 -318 721 -331 766 c 1,17,18
 -368 849 -368 849 -490 848 c 0,19,20
 -568 848 -568 848 -594 841 c 0,21,22
 -651 829 -651 829 -651 782 c 0,23,24
 -651 739 -651 739 -621 697 c 0,25,26
 -603 673 -603 673 -630 672 c 0,27,28
 -646 669 -646 669 -664 681 c 0,29,30
 -710 712 -710 712 -714 776 c 0,31,32
 -718 859 -718 859 -653 902 c 0,33,34
 -598 939 -598 939 -510 939 c 0,35,36
 -480 939 -480 939 -461 937 c 0,37,38
 -342 926 -342 926 -309 825 c 1,39,40
 -272 923 -272 923 -141 921 c 2,41,-1
 245 920 l 2,42,43
 322 918 322 918 371 878 c 128,-1,44
 420 838 420 838 425 768 c 0,0,1
266 821 m 0,45,46
 220 823 220 823 195 799 c 128,-1,47
 170 775 170 775 171 745 c 0,48,49
 175 679 175 679 274 678 c 0,50,51
 285 675 285 675 325 687.5 c 128,-1,52
 365 700 365 700 366 753 c 1,53,54
 359 824 359 824 266 821 c 0,45,46
EndSplineSet
Validated: 33
Ligature2: "'rlig' Required Ligatures lookup 1 subtable" Telugu_A JWJ OMatra
EndChar

StartChar: OOMatra
Encoding: 3147 3147 111
Width: 450
GlyphClass: 4
Flags: W
LayerCount: 2
Fore
SplineSet
394 972 m 1,0,1
 393 1022 393 1022 359.5 1035.5 c 128,-1,2
 326 1049 326 1049 283 1044 c 0,3,4
 209 1036 209 1036 209 976 c 0,5,6
 209 918 209 918 283 886 c 1,7,8
 441 846 441 846 449 742 c 0,9,10
 454 668 454 668 424 625 c 0,11,12
 376 558 376 558 291 558 c 0,13,14
 227 558 227 558 180.5 600.5 c 128,-1,15
 134 643 134 643 134 716 c 0,16,17
 136 763 136 763 161 792 c 1,18,-1
 -207 792 l 2,19,20
 -243 792 -243 792 -263 750 c 0,21,22
 -271 732 -271 732 -282 673 c 1,23,24
 -296 622 -296 622 -315 655 c 1,25,26
 -323 691 -323 691 -343 736 c 1,27,28
 -392 816 -392 816 -527 814 c 0,29,30
 -607 814 -607 814 -631 808 c 0,31,32
 -688 795 -688 795 -688 748 c 0,33,34
 -688 705 -688 705 -658 664 c 0,35,36
 -642 640 -642 640 -667 638 c 0,37,38
 -683 635 -683 635 -703 648 c 0,39,40
 -747 678 -747 678 -751 742 c 0,41,42
 -755 825 -755 825 -690 868 c 0,43,44
 -635 905 -635 905 -547 905 c 0,45,46
 -517 905 -517 905 -498 904 c 0,47,48
 -432 897 -432 897 -376 870 c 0,49,50
 -314 838 -314 838 -298 792 c 1,51,52
 -263 888 -263 888 -130 888 c 2,53,-1
 176 888 l 1,54,55
 150 928 150 928 145 972 c 0,56,57
 139 1035 139 1035 187 1078 c 128,-1,58
 235 1121 235 1121 297 1120 c 0,59,60
 366 1118 366 1118 408 1078 c 0,61,62
 441 1044 441 1044 441 993 c 0,63,64
 441 939 441 939 392 900 c 1,65,66
 376 901 376 901 376.5 911.5 c 128,-1,67
 377 922 377 922 394 972 c 1,0,1
291 788 m 0,68,69
 201 784 201 784 201 715 c 0,70,71
 200 680 200 680 235 659 c 0,72,73
 265 641 265 641 302 644 c 0,74,75
 379 650 379 650 390 700 c 1,76,-1
 392 716 l 1,77,78
 392 793 392 793 291 788 c 0,68,69
EndSplineSet
Validated: 33
Ligature2: "'rlig' Required Ligatures lookup 1 subtable" Telugu_A JWJ OOMatra
EndChar

StartChar: AuMatra
Encoding: 3148 3148 112
Width: 600
GlyphClass: 4
Flags: W
LayerCount: 2
Fore
SplineSet
558 766 m 0,0,1
 518 713 518 713 439 713 c 1,2,3
 361 709 361 709 309.5 753.5 c 128,-1,4
 258 798 258 798 262 874 c 0,5,6
 262 892 262 892 281 932 c 1,7,-1
 -167 932 l 1,8,9
 -150 902 -150 902 -150 858 c 0,10,11
 -150 791 -150 791 -188 748 c 0,12,13
 -230 700 -230 700 -297 700 c 2,14,-1
 -567 700 l 1,15,-1
 -567 783 l 1,16,-1
 -279 783 l 1,17,18
 -218 796 -218 796 -218 857 c 0,19,20
 -218 932 -218 932 -282 932 c 2,21,-1
 -657 932 l 2,22,23
 -692 932 -692 932 -692 983 c 0,24,25
 -692 1028 -692 1028 -657 1028 c 2,26,-1
 406 1028 l 2,27,28
 498 1028 498 1028 544 985.5 c 128,-1,29
 590 943 590 943 590 874 c 0,30,31
 590 810 590 810 558 766 c 0,0,1
430 931 m 0,32,33
 332 930 332 930 330 863 c 0,34,35
 329 796 329 796 418 794 c 0,36,37
 524 793 524 793 524 857 c 1,38,39
 529 929 529 929 430 931 c 0,32,33
EndSplineSet
Validated: 33
Ligature2: "'rlig' Required Ligatures lookup 1 subtable" Telugu_A JWJ AuMatra
EndChar

StartChar: Halanth
Encoding: 3149 3149 113
Width: 135
GlyphClass: 4
Flags: W
LayerCount: 2
Fore
SplineSet
-332 917 m 1,0,1
 -361 904 -361 904 -360 875 c 256,2,3
 -359 846 -359 846 -313 837 c 1,4,5
 -262 835 -262 835 -171 836 c 1,6,-1
 -171 776 l 1,7,8
 -309 776 -309 776 -310 776 c 0,9,10
 -363 768 -363 768 -363 736 c 0,11,12
 -363 697 -363 697 -315 689 c 1,13,14
 -251 690 -251 690 -219 691 c 1,15,-1
 -219 632 l 1,16,-1
 -297 632 l 2,17,18
 -429 632 -429 632 -429 734 c 0,19,20
 -429 772 -429 772 -387 803 c 1,21,22
 -434 831 -434 831 -434 882 c 0,23,24
 -434 932 -434 932 -400 968.5 c 128,-1,25
 -366 1005 -366 1005 -307 1005 c 2,26,-1
 138 1005 l 1,27,-1
 138 917 l 1,28,-1
 -332 917 l 1,0,1
EndSplineSet
Validated: 33
EndChar

StartChar: Anudatta
Encoding: 3157 3157 114
Width: 2
GlyphClass: 4
Flags: W
LayerCount: 2
Fore
SplineSet
-501 702 m 1,0,1
 -553 725 -553 725 -561 787 c 1,2,3
 -554 902 -554 902 -420 913 c 1,4,5
 -361 911 -361 911 -325 882 c 0,6,7
 -285 853 -285 853 -285 793 c 0,8,9
 -285 753 -285 753 -306 729 c 1,10,11
 -321 730 -321 730 -318 747 c 0,12,13
 -320 846 -320 846 -402 849 c 0,14,15
 -450 853 -450 853 -476.5 832.5 c 128,-1,16
 -503 812 -503 812 -503 782 c 0,17,18
 -503 750 -503 750 -484.5 732.5 c 128,-1,19
 -466 715 -466 715 -469.5 705.5 c 128,-1,20
 -473 696 -473 696 -501 702 c 1,0,1
EndSplineSet
Validated: 33
EndChar

StartChar: tvam
Encoding: 3158 3158 115
Width: 6
GlyphClass: 4
Flags: W
LayerCount: 2
Fore
SplineSet
278 -355 m 2,0,1
 207 -355 207 -355 161 -325 c 0,2,3
 107 -290 107 -290 107 -222 c 0,4,5
 107 -111 107 -111 238 -98 c 0,6,7
 289 -94 289 -94 334 -122 c 0,8,9
 385 -154 385 -154 385 -204 c 0,10,11
 385 -248 385 -248 355 -276 c 1,12,-1
 948 -276 l 1,13,-1
 948 -355 l 1,14,-1
 278 -355 l 2,0,1
246 -158 m 0,15,16
 162 -158 162 -158 162 -208 c 0,17,18
 162 -229 162 -229 185.5 -244.5 c 128,-1,19
 209 -260 209 -260 251 -260 c 0,20,21
 286 -260 286 -260 305.5 -245 c 128,-1,22
 325 -230 325 -230 325 -210 c 0,23,24
 325 -189 325 -189 304 -173.5 c 128,-1,25
 283 -158 283 -158 246 -158 c 0,15,16
EndSplineSet
Validated: 33
Substitution2: "Single Substitution lookup 2 subtable" LowItvam
EndChar

StartChar: CaNukta
Encoding: 3160 3160 116
Width: 867
GlyphClass: 2
Flags: W
AnchorPoint: "Anchor-0" 0 0 basechar 0
LayerCount: 2
Fore
SplineSet
404 0 m 0,0,1
 337 0 337 0 293 39 c 128,-1,2
 249 78 249 78 249 144 c 0,3,4
 249 205 249 205 329 276 c 1,5,-1
 294 275 l 2,6,7
 253 274 253 274 241 278 c 0,8,9
 217 287 217 287 217 321 c 0,10,11
 217 390 217 390 259 390 c 0,12,13
 280 390 280 390 357 358 c 0,14,15
 428 329 428 329 460 310 c 1,16,17
 453 297 453 297 379 251 c 0,18,19
 316 212 316 212 316 174 c 0,20,21
 316 94 316 94 407 94 c 0,22,23
 459 94 459 94 486 135 c 0,24,25
 499 155 499 155 515 212 c 0,26,27
 527 253 527 253 542 252 c 0,28,29
 562 249 562 249 568 209 c 0,30,31
 577 148 577 148 582 137 c 0,32,33
 597 99 597 99 641 99 c 0,34,35
 708 99 708 99 742 147 c 0,36,37
 769 186 769 186 768 243 c 0,38,39
 767 357 767 357 657 418 c 1,40,41
 557 456 557 456 457 495 c 0,42,43
 352 538 352 538 358 610 c 0,44,45
 362 664 362 664 423 674 c 0,46,47
 431 675 431 675 439 675 c 0,48,49
 503 675 503 675 540 564 c 1,50,51
 603 625 603 625 667 685 c 0,52,53
 772 786 772 786 780 786 c 0,54,55
 833 786 833 786 833 729 c 0,56,57
 833 705 833 705 717 624 c 0,58,59
 627 562 627 562 574 533 c 1,60,61
 842 439 842 439 842 205 c 0,62,63
 842 123 842 123 798 64 c 0,64,65
 749 0 749 0 670 0 c 0,66,67
 613 0 613 0 574 29.5 c 128,-1,68
 535 59 535 59 536 100 c 1,69,70
 479 0 479 0 404 0 c 0,0,1
623 781 m 2,71,-1
 146 781 l 1,72,-1
 146 856 l 1,73,-1
 541 856 l 1,74,75
 525 878 525 878 525 897 c 0,76,77
 525 955 525 955 573 983 c 0,78,79
 613 1007 613 1007 675 1007 c 0,80,81
 719 1007 719 1007 757 981 c 0,82,83
 801 951 801 951 801 909 c 0,84,85
 801 834 801 834 747 804 c 0,86,87
 706 781 706 781 623 781 c 2,71,-1
670 951 m 0,88,89
 630 951 630 951 607 934 c 128,-1,90
 584 917 584 917 584 896 c 0,91,92
 584 853 584 853 650 853 c 0,93,94
 660 853 660 853 670 854 c 0,95,96
 742 862 742 862 742 904 c 0,97,98
 742 923 742 923 722.5 937 c 128,-1,99
 703 951 703 951 670 951 c 0,88,89
EndSplineSet
Validated: 33
PairPos2: "'blwm' Below Base Mark in Telugu lookup 2 subtable" TaOttu dx=0 dy=0 dh=0 dv=0 dx=100 dy=20 dh=0 dv=0
EndChar

StartChar: JaNukta
Encoding: 3161 3161 117
Width: 824
GlyphClass: 2
Flags: W
AnchorPoint: "Anchor-0" 0 0 basechar 0
LayerCount: 2
Fore
SplineSet
634 267 m 0,0,1
 587 265 587 265 543.5 297 c 128,-1,2
 500 329 500 329 498 365 c 1,3,4
 470 335 470 335 401 298 c 0,5,6
 320 254 320 254 300 239 c 0,7,8
 253 204 253 204 253 162 c 0,9,10
 253 130 253 130 283 109 c 0,11,12
 309 91 309 91 343 91 c 0,13,14
 424 91 424 91 468 170 c 0,15,16
 476 190 476 190 485 209 c 0,17,18
 496 234 496 234 508 243 c 1,19,20
 534 235 534 235 538 207 c 0,21,22
 540 183 540 183 542 159 c 0,23,24
 561 84 561 84 664 88 c 0,25,26
 687 89 687 89 717 108 c 0,27,28
 755 133 755 133 755 166 c 0,29,30
 755 190 755 190 717 216 c 1,31,32
 718 237 718 237 723.5 243.5 c 128,-1,33
 729 250 729 250 752 250 c 0,34,35
 782 250 782 250 797 218 c 0,36,37
 809 192 809 192 807 160 c 0,38,39
 804 83 804 83 758.5 41 c 128,-1,40
 713 -1 713 -1 639 -3 c 0,41,42
 583 -5 583 -5 545.5 29 c 128,-1,43
 508 63 508 63 498 123 c 1,44,45
 472 12 472 12 348 -2 c 0,46,47
 285 -9 285 -9 234.5 37.5 c 128,-1,48
 184 84 184 84 184 148 c 0,49,50
 184 220 184 220 258 276 c 1,51,52
 328 318 328 318 397 360 c 0,53,54
 471 408 471 408 471 462 c 0,55,56
 471 523 471 523 389 523 c 0,57,58
 303 523 303 523 303 454 c 0,59,60
 303 407 303 407 352 379 c 1,61,-1
 287 330 l 1,62,63
 216 354 216 354 216 432 c 0,64,65
 216 493 216 493 269 536 c 0,66,67
 317 575 317 575 383 582 c 0,68,69
 446 589 446 589 489 552.5 c 128,-1,70
 532 516 532 516 532 452 c 0,71,72
 532 419 532 419 543 395 c 0,73,74
 562 354 562 354 627 354 c 0,75,76
 735 354 735 354 732 424 c 0,77,78
 731 462 731 462 681.5 479.5 c 128,-1,79
 632 497 632 497 629 519 c 0,80,81
 626 537 626 537 641 551.5 c 128,-1,82
 656 566 656 566 673 562 c 0,83,84
 782 533 782 533 782 427 c 0,85,86
 782 367 782 367 737.5 318.5 c 128,-1,87
 693 270 693 270 634 267 c 0,0,1
627 635 m 2,88,-1
 150 635 l 1,89,-1
 150 710 l 1,90,-1
 545 710 l 1,91,92
 529 732 529 732 529 751 c 0,93,94
 529 809 529 809 577 837 c 0,95,96
 617 861 617 861 679 861 c 0,97,98
 723 861 723 861 761 835 c 0,99,100
 805 805 805 805 805 763 c 0,101,102
 805 688 805 688 751 658 c 0,103,104
 710 635 710 635 627 635 c 2,88,-1
674 805 m 0,105,106
 634 805 634 805 611 788 c 128,-1,107
 588 771 588 771 588 750 c 0,108,109
 588 707 588 707 654 707 c 0,110,111
 664 707 664 707 674 708 c 0,112,113
 746 716 746 716 746 758 c 0,114,115
 746 777 746 777 726.5 791 c 128,-1,116
 707 805 707 805 674 805 c 0,105,106
EndSplineSet
Validated: 33
PairPos2: "'blwm' Below Base Mark in Telugu lookup 2 subtable" TaOttu dx=0 dy=0 dh=0 dv=0 dx=100 dy=20 dh=0 dv=0
EndChar

StartChar: RRu
Encoding: 3168 3168 118
Width: 1871
GlyphClass: 2
Flags: W
LayerCount: 2
Fore
SplineSet
1743 469 m 0,0,1
 1701 471 1701 471 1678 454 c 128,-1,2
 1655 437 1655 437 1655 413 c 0,3,4
 1655 391 1655 391 1674 376 c 0,5,6
 1694 358 1694 358 1729 357 c 0,7,8
 1773 356 1773 356 1800 374 c 0,9,10
 1824 390 1824 390 1824 414 c 0,11,12
 1824 466 1824 466 1743 469 c 0,0,1
1703 547 m 2,13,14
 1774 547 1774 547 1820 514 c 0,15,16
 1872 478 1872 478 1873 413 c 0,17,18
 1874 279 1874 279 1725 279 c 0,19,20
 1701 279 1701 279 1662 300 c 0,21,22
 1593 337 1593 337 1593 416 c 0,23,24
 1593 436 1593 436 1617 471 c 1,25,-1
 1339 471 l 1,26,27
 1417 351 1417 351 1417 258 c 0,28,29
 1418 158 1418 158 1364 84 c 0,30,31
 1303 1 1303 1 1202 1 c 0,32,33
 1146 1 1146 1 1098 34.5 c 128,-1,34
 1050 68 1050 68 1032 121 c 1,35,36
 981 0 981 0 860 1 c 0,37,38
 758 2 758 2 713 113 c 1,39,40
 676 -1 676 -1 555 1 c 0,41,42
 521 2 521 2 488 22 c 0,43,44
 449 46 449 46 436 86 c 1,45,46
 395 0 395 0 301 0 c 0,47,48
 238 0 238 0 194 50 c 128,-1,49
 150 100 150 100 150 164 c 0,50,51
 150 224 150 224 211 268 c 0,52,53
 218 273 218 273 327 332 c 0,54,55
 392 366 392 366 398 402 c 0,56,57
 399 409 399 409 399 415 c 0,58,59
 399 471 399 471 326 471 c 0,60,61
 249 471 249 471 249 414 c 0,62,63
 249 383 249 383 293 355 c 1,64,-1
 210 303 l 1,65,66
 168 329 168 329 161 387 c 0,67,68
 153 450 153 450 205 492 c 0,69,70
 252 530 252 530 315 530 c 0,71,72
 456 530 456 530 453 399 c 0,73,74
 452 337 452 337 392 296 c 1,75,76
 336 268 336 268 281 239 c 0,77,78
 222 206 222 206 222 161 c 0,79,80
 222 103 222 103 297 103 c 0,81,82
 361 103 361 103 393 137 c 0,83,84
 412 156 412 156 427 203 c 0,85,86
 440 245 440 245 453 252 c 1,87,88
 460 241 460 241 470.5 196 c 128,-1,89
 481 151 481 151 493 131 c 0,90,91
 513 100 513 100 550 100 c 0,92,93
 614 100 614 100 651 142 c 0,94,95
 685 181 685 181 687 246 c 0,96,97
 690 326 690 326 658 377 c 0,98,99
 642 403 642 403 596 443 c 0,100,101
 559 475 559 475 554 502 c 0,102,103
 551 515 551 515 560.5 529 c 128,-1,104
 570 543 570 543 588 543 c 0,105,106
 598 543 598 543 610 537 c 0,107,108
 682 502 682 502 718 400 c 0,109,110
 747 322 747 322 743 252.5 c 128,-1,111
 739 183 739 183 773 139.5 c 128,-1,112
 807 96 807 96 853 96 c 0,113,114
 935 96 935 96 976 146 c 0,115,116
 1013 191 1013 191 1012 268 c 0,117,118
 1011 351 1011 351 964 414 c 1,119,120
 924 457 924 457 883 501 c 0,121,122
 879 508 879 508 879 516 c 0,123,124
 879 553 879 553 916 553 c 0,125,126
 934 553 934 553 955 538 c 0,127,128
 1047 475 1047 475 1064 359 c 1,129,130
 1071 273 1071 273 1078 186 c 1,131,132
 1097 108 1097 108 1201 104 c 0,133,134
 1271 102 1271 102 1311 137 c 0,135,136
 1356 178 1356 178 1350 259 c 0,137,138
 1345 323 1345 323 1316 371 c 0,139,140
 1301 394 1301 394 1257 442 c 0,141,142
 1221 481 1221 481 1209 511 c 1,143,-1
 1228 547 l 1,144,-1
 1703 547 l 2,13,14
EndSplineSet
Validated: 33
EndChar

StartChar: LLu
Encoding: 3169 3169 119
Width: 1239
GlyphClass: 2
Flags: W
LayerCount: 2
Fore
SplineSet
781 524 m 1,0,1
 841 390 841 390 841 262 c 0,2,3
 841 155 841 155 790 82 c 0,4,5
 732 -2 732 -2 628 -2 c 0,6,7
 565 -2 565 -2 523.5 33.5 c 128,-1,8
 482 69 482 69 482 131 c 0,9,10
 482 195 482 195 546.5 312.5 c 128,-1,11
 611 430 611 430 611 473 c 0,12,13
 611 522 611 522 546 522 c 0,14,15
 440 522 440 522 422 396 c 1,16,-1
 397 388 l 1,17,18
 383 437 383 437 369 486 c 1,19,20
 347 531 347 531 288 531 c 0,21,22
 212 531 212 531 212 473 c 0,23,24
 212 443 212 443 232.5 412.5 c 128,-1,25
 253 382 253 382 282 369 c 1,26,-1
 258 348 l 1,27,-1
 250 347 l 2,28,29
 213 344 213 344 180 389 c 0,30,31
 150 430 150 430 150 469 c 0,32,33
 150 612 150 612 294 612 c 0,34,35
 379 612 379 612 424 516 c 1,36,37
 481 609 481 609 544 609 c 0,38,39
 669 609 669 609 684 502 c 0,40,41
 686 488 686 488 686 473 c 0,42,43
 686 397 686 397 612 288.5 c 128,-1,44
 538 180 538 180 538 128 c 0,45,46
 538 91 538 91 596 91 c 0,47,48
 776 91 776 91 776 275 c 0,49,50
 776 354 776 354 751 441 c 0,51,52
 740 481 740 481 697 601 c 1,53,-1
 1103 601 l 2,54,55
 1153 601 1153 601 1193 574 c 0,56,57
 1239 542 1239 542 1239 490 c 0,58,59
 1239 362 1239 362 1128 351 c 0,60,61
 1074 345 1074 345 1033 381 c 128,-1,62
 992 417 992 417 992 472 c 0,63,64
 992 499 992 499 1014 524 c 1,65,-1
 781 524 l 1,0,1
1112 533 m 0,66,67
 1081 533 1081 533 1062.5 516 c 128,-1,68
 1044 499 1044 499 1044 477 c 0,69,70
 1044 424 1044 424 1125 428 c 0,71,72
 1156 429 1156 429 1175 445 c 128,-1,73
 1194 461 1194 461 1194 482 c 0,74,75
 1194 533 1194 533 1112 533 c 0,66,67
EndSplineSet
Validated: 33
EndChar

StartChar: LuOttu
Encoding: 3170 3170 120
Width: 0
GlyphClass: 4
Flags: W
AnchorPoint: "Anchor-0" -43 25 mark 0
LayerCount: 2
Fore
SplineSet
486 -527 m 0,0,1
 443 -527 443 -527 409.5 -495 c 128,-1,2
 376 -463 376 -463 376 -419 c 0,3,4
 375 -356 375 -356 421 -277 c 0,5,6
 447 -235 447 -235 472 -194 c 1,7,8
 476 -172 476 -172 463 -164 c 128,-1,9
 450 -156 450 -156 428 -159 c 0,10,11
 358 -170 358 -170 346 -253 c 1,12,13
 338 -262 338 -262 327 -255 c 1,14,15
 319 -208 319 -208 312 -195 c 0,16,17
 293 -160 293 -160 246 -160 c 0,18,19
 194 -160 194 -160 194 -195 c 0,20,21
 194 -225 194 -225 206 -239 c 0,22,23
 224 -253 224 -253 242 -267 c 1,24,25
 229 -282 229 -282 221 -282 c 0,26,27
 193 -282 193 -282 172 -251 c 0,28,29
 153 -223 153 -223 153 -193 c 0,30,31
 153 -96 153 -96 244 -96 c 0,32,33
 311 -96 311 -96 342 -163 c 1,34,35
 383 -98 383 -98 427 -98 c 0,36,37
 526 -98 526 -98 526 -173 c 0,38,39
 526 -212 526 -212 477.5 -284 c 128,-1,40
 429 -356 429 -356 429 -413 c 0,41,42
 429 -435 429 -435 447.5 -448.5 c 128,-1,43
 466 -462 466 -462 485 -461 c 0,44,45
 590 -453 590 -453 590 -333 c 0,46,47
 590 -276 590 -276 574.5 -226 c 128,-1,48
 559 -176 559 -176 543 -126 c 1,49,-1
 584 -113 l 1,50,51
 632 -189 632 -189 632 -326 c 0,52,53
 632 -410 632 -410 600 -463 c 0,54,55
 562 -527 562 -527 486 -527 c 0,0,1
EndSplineSet
Validated: 33
Ligature2: "'rlig' Required Ligatures lookup 1 subtable" Telugu_A JWJ LuOttu
EndChar

StartChar: LUUOttu
Encoding: 3171 3171 121
Width: 0
GlyphClass: 4
Flags: W
LayerCount: 2
Fore
SplineSet
828 -291 m 256,0,1
 789 -290 789 -290 765.5 -265.5 c 128,-1,2
 742 -241 742 -241 742 -206 c 0,3,4
 742 -185 742 -185 755 -172 c 1,5,-1
 608 -172 l 1,6,7
 636 -255 636 -255 636 -321 c 0,8,9
 636 -402 636 -402 603 -456 c 0,10,11
 563 -520 563 -520 486 -520 c 0,12,13
 438 -520 438 -520 408.5 -487.5 c 128,-1,14
 379 -455 379 -455 379 -406 c 0,15,16
 379 -363 379 -363 426 -292 c 128,-1,17
 473 -221 473 -221 473 -201 c 0,18,19
 473 -169 473 -169 425 -169 c 0,20,21
 371 -169 371 -169 355 -252 c 1,22,-1
 326 -252 l 1,23,24
 313 -161 313 -161 257 -161 c 0,25,26
 203 -161 203 -161 203 -202 c 0,27,28
 203 -230 203 -230 226 -252.5 c 128,-1,29
 249 -275 249 -275 249 -278 c 0,30,31
 249 -296 249 -296 222 -296 c 0,32,33
 189 -296 189 -296 167 -262 c 0,34,35
 146 -232 146 -232 146 -198 c 0,36,37
 146 -152 146 -152 176 -122 c 128,-1,38
 206 -92 206 -92 252 -92 c 0,39,40
 311 -92 311 -92 344 -153 c 1,41,42
 381 -97 381 -97 440 -97 c 0,43,44
 529 -97 529 -97 529 -188 c 0,45,46
 529 -228 529 -228 483.5 -308 c 128,-1,47
 438 -388 438 -388 438 -417 c 0,48,49
 438 -456 438 -456 483 -456 c 0,50,51
 535 -456 535 -456 560 -404 c 0,52,53
 579 -364 579 -364 579 -305 c 0,54,55
 579 -204 579 -204 528 -116 c 1,56,-1
 822 -116 l 2,57,58
 920 -116 920 -116 920 -204 c 0,59,60
 920 -243 920 -243 893.5 -267.5 c 128,-1,61
 867 -292 867 -292 828 -291 c 256,0,1
824 -238 m 0,62,63
 885 -239 885 -239 885 -204 c 0,64,65
 885 -171 885 -171 829 -171 c 0,66,67
 778 -171 778 -171 778 -203 c 0,68,69
 778 -237 778 -237 824 -238 c 0,62,63
EndSplineSet
Validated: 33
Ligature2: "'rlig' Required Ligatures lookup 1 subtable" Telugu_A JWJ LUUOttu
EndChar

StartChar: Telugu0
Encoding: 3174 3174 122
Width: 803
GlyphClass: 2
Flags: W
LayerCount: 2
Fore
SplineSet
687 71 m 0,0,1
 610 8 610 8 504 1 c 0,2,3
 350 -8 350 -8 251 79.5 c 128,-1,4
 152 167 152 167 150 316 c 0,5,6
 150 464 150 464 245 563.5 c 128,-1,7
 340 663 340 663 487 663 c 0,8,9
 622 663 622 663 710.5 571.5 c 128,-1,10
 799 480 799 480 799 342 c 0,11,12
 799 163 799 163 687 71 c 0,0,1
482 580 m 0,13,14
 376 580 376 580 301.5 513.5 c 128,-1,15
 227 447 227 447 227 342 c 0,16,17
 227 242 227 242 304 186 c 128,-1,18
 381 130 381 130 484 132 c 0,19,20
 585 136 585 136 641 179 c 0,21,22
 720 242 720 242 722 335 c 0,23,24
 725 447 725 447 659 513.5 c 128,-1,25
 593 580 593 580 482 580 c 0,13,14
EndSplineSet
Validated: 33
EndChar

StartChar: Telugu1
Encoding: 3175 3175 123
Width: 848
GlyphClass: 2
Flags: W
LayerCount: 2
Fore
SplineSet
693 15 m 0,0,1
 681 10 681 10 673 10 c 0,2,3
 627 10 627 10 627 51 c 0,4,5
 627 75 627 75 655 94 c 0,6,7
 766 169 766 169 759 292 c 0,8,9
 755 397 755 397 682.5 470.5 c 128,-1,10
 610 544 610 544 508 541 c 0,11,12
 409 538 409 538 338 474.5 c 128,-1,13
 267 411 267 411 252 310 c 0,14,15
 250 288 250 288 250 266 c 0,16,17
 250 163 250 163 315 112 c 0,18,19
 330 100 330 100 370 71 c 0,20,21
 387 55 387 55 379 24 c 1,22,23
 361 -4 361 -4 321 1 c 1,24,25
 236 33 236 33 196 112 c 0,26,27
 150 194 150 194 150 291 c 0,28,29
 150 460 150 460 291 574 c 0,30,31
 384 650 384 650 509 650 c 0,32,33
 655 650 655 650 750 554 c 128,-1,34
 845 458 845 458 845 312 c 0,35,36
 845 89 845 89 693 15 c 0,0,1
EndSplineSet
Validated: 33
EndChar

StartChar: Telugu2
Encoding: 3176 3176 124
Width: 1125
GlyphClass: 2
Flags: W
LayerCount: 2
Fore
SplineSet
775 2 m 2,0,-1
 144 2 l 1,1,-1
 144 127 l 1,2,-1
 869 127 l 2,3,4
 957 127 957 127 1000 210 c 0,5,6
 1027 268 1027 268 1030 325 c 1,7,8
 1024 465 1024 465 956 512 c 1,9,10
 959 504 959 504 959 474 c 0,11,12
 959 400 959 400 898 352 c 0,13,14
 843 312 843 312 767 311 c 1,15,16
 663 316 663 316 621 375 c 0,17,18
 590 419 590 419 590 474 c 0,19,20
 590 553 590 553 657 600 c 0,21,22
 716 642 716 642 801 644 c 1,23,24
 969 633 969 633 1044 556 c 256,25,26
 1119 479 1119 479 1119 345 c 0,27,28
 1119 0 1119 0 775 2 c 2,0,-1
801 563 m 0,29,30
 757 563 757 563 720 538.5 c 128,-1,31
 683 514 683 514 683 475.5 c 128,-1,32
 683 437 683 437 712 415.5 c 128,-1,33
 741 394 741 394 778 396 c 0,34,35
 830 396 830 396 865.5 422.5 c 128,-1,36
 901 449 901 449 898 490 c 0,37,38
 891 563 891 563 801 563 c 0,29,30
EndSplineSet
Validated: 33
EndChar

StartChar: Telugu3
Encoding: 3177 3177 125
Width: 743
GlyphClass: 2
Flags: W
LayerCount: 2
Fore
SplineSet
590 361 m 1,0,1
 652 347 652 347 697.5 299.5 c 128,-1,2
 743 252 743 252 742 190 c 0,3,4
 734 0 734 0 465 0 c 0,5,6
 302 0 302 0 205 86 c 0,7,8
 150 134 150 134 150 164 c 0,9,10
 150 223 150 223 194 223 c 0,11,12
 205 223 205 223 218 215 c 0,13,14
 226 209 226 209 250 182 c 0,15,16
 338 79 338 79 481 88 c 0,17,18
 619 97 619 97 619 182 c 0,19,20
 619 297 619 297 435 297 c 0,21,22
 382 297 382 297 341 293 c 1,23,-1
 340 387 l 1,24,25
 605 384 605 384 605 514 c 0,26,27
 605 561 605 561 555 592 c 0,28,29
 511 618 511 618 461 618 c 0,30,31
 363 618 363 618 285 534 c 1,32,33
 250 481 250 481 229 481 c 0,34,35
 176 481 176 481 176 526 c 0,36,37
 176 557 176 557 226 613 c 0,38,39
 305 701 305 701 488 701 c 0,40,41
 724 701 724 701 724 519 c 0,42,43
 724 437 724 437 590 361 c 1,0,1
EndSplineSet
Validated: 33
EndChar

StartChar: Telugu4
Encoding: 3178 3178 126
Width: 802
GlyphClass: 2
Flags: W
LayerCount: 2
Fore
SplineSet
582 283 m 1,0,1
 642 235 642 235 642 174 c 0,2,3
 642 101 642 101 583.5 50 c 128,-1,4
 525 -1 525 -1 441 0 c 0,5,6
 374 0 374 0 317.5 45 c 128,-1,7
 261 90 261 90 261 155 c 0,8,9
 261 240 261 240 340 290 c 1,10,11
 260 325 260 325 205 381 c 0,12,13
 140 448 140 448 140 523 c 0,14,15
 140 582 140 582 179 644 c 0,16,17
 223 715 223 715 283 715 c 0,18,19
 328 715 328 715 328 686 c 0,20,21
 328 671 328 671 314 658 c 0,22,23
 249 600 249 600 251 530 c 0,24,25
 254 436 254 436 336 382 c 0,26,27
 397 340 397 340 451 340 c 0,28,29
 545 340 545 340 614 395.5 c 128,-1,30
 683 451 683 451 688 539 c 0,31,32
 689 590 689 590 678.5 612 c 128,-1,33
 668 634 668 634 633 666 c 1,34,35
 610 681 610 681 610 696 c 0,36,37
 610 730 610 730 650 730 c 0,38,39
 674 730 674 730 701 715 c 0,40,41
 797 659 797 659 797 536 c 0,42,43
 797 454 797 454 727 382 c 0,44,45
 670 319 670 319 582 283 c 1,0,1
448 255 m 0,46,47
 337 245 337 245 338 171 c 1,48,49
 360 95 360 95 455 107 c 1,50,51
 557 107 557 107 556 191 c 1,52,53
 550 220 550 220 519.5 238.5 c 128,-1,54
 489 257 489 257 448 255 c 0,46,47
EndSplineSet
Validated: 33
EndChar

StartChar: Telugu5
Encoding: 3179 3179 127
Width: 855
GlyphClass: 2
Flags: W
LayerCount: 2
Fore
SplineSet
779 26 m 1,0,1
 774 66 774 66 769 106 c 0,2,3
 763 134 763 134 741 154 c 0,4,5
 709 178 709 178 677 202 c 0,6,7
 634 236 634 236 620 275 c 1,8,9
 567 200 567 200 421 113 c 0,10,11
 271 24 271 24 189 24 c 0,12,13
 145 24 145 24 145 65 c 0,14,15
 145 82 145 82 157 110 c 1,16,17
 267 161 267 161 376 211 c 1,18,19
 542 298 542 298 560 362 c 1,20,21
 532 419 532 419 363 476 c 0,22,23
 315 493 315 493 143 538 c 1,24,25
 137 562 137 562 137 562 c 1,26,27
 137 586 137 586 153 606.5 c 128,-1,28
 169 627 169 627 191 627 c 0,29,30
 267 627 267 627 420 565 c 0,31,32
 584 497 584 497 611 442 c 1,33,34
 631 494 631 494 650 546 c 1,35,36
 682 606 682 606 743 606 c 0,37,38
 752 606 752 606 761 605 c 0,39,40
 814 599 814 599 814 543 c 256,41,42
 814 487 814 487 769 456 c 0,43,44
 675 392 675 392 675 344 c 0,45,46
 675 328 675 328 685 321 c 0,47,48
 783 249 783 249 814 217 c 0,49,50
 856 174 856 174 853 133 c 0,51,52
 846 33 846 33 779 26 c 1,0,1
EndSplineSet
Validated: 33
EndChar

StartChar: Telugu6
Encoding: 3180 3180 128
Width: 1024
GlyphClass: 2
Flags: W
LayerCount: 2
Fore
SplineSet
343 0 m 2,0,1
 251 0 251 0 196 55.5 c 128,-1,2
 141 111 141 111 148 201 c 0,3,4
 154 296 154 296 243 336 c 1,5,6
 142 369 142 369 142 465 c 0,7,8
 142 530 142 530 186 568.5 c 128,-1,9
 230 607 230 607 294 607 c 0,10,11
 375 607 375 607 393 604 c 1,12,-1
 393 534 l 1,13,14
 303 534 303 534 276 527 c 0,15,16
 218 512 218 512 225 461 c 0,17,18
 233 392 233 392 385 393 c 2,19,-1
 646 393 l 1,20,-1
 646 301 l 1,21,-1
 465 300 l 2,22,23
 333 299 333 299 294 284 c 0,24,25
 231 260 231 260 233 191 c 0,26,27
 234 128 234 128 326 109 c 0,28,29
 359 102 359 102 474 102 c 2,30,-1
 1023 102 l 1,31,-1
 1023 0 l 1,32,-1
 343 0 l 2,0,1
EndSplineSet
Validated: 33
EndChar

StartChar: Telugu7
Encoding: 3181 3181 129
Width: 744
GlyphClass: 2
Flags: W
LayerCount: 2
Fore
SplineSet
744 112 m 0,0,1
 679 0 679 0 438 0 c 0,2,3
 146 0 146 0 163 200 c 0,4,5
 169 279 169 279 255 320 c 0,6,7
 311 349 311 349 404 363 c 0,8,9
 546 388 546 388 557 389 c 0,10,11
 651 413 651 413 655 444 c 0,12,13
 658 484 658 484 598.5 510.5 c 128,-1,14
 539 537 539 537 457 537 c 0,15,16
 311 537 311 537 288 468 c 0,17,18
 282 451 282 451 278 389 c 1,19,20
 227 369 227 369 209 373 c 0,21,22
 186 380 186 380 182 405 c 2,23,-1
 179 439 l 1,24,25
 179 531 179 531 286 578 c 0,26,27
 367 613 367 613 473 613 c 0,28,29
 557 613 557 613 646 574 c 0,30,31
 755 528 755 528 755 455 c 0,32,33
 755 370 755 370 672 332 c 0,34,35
 618 307 618 307 487 293 c 0,36,37
 444 287 444 287 397 279 c 0,38,39
 255 256 255 256 265 165 c 0,40,41
 272 119 272 119 331 95 c 0,42,43
 378 75 378 75 431 78 c 0,44,45
 629 91 629 91 656 167 c 0,46,47
 666 190 666 190 666 223 c 1,48,49
 757 233 757 233 758 208 c 0,50,51
 763 147 763 147 744 112 c 0,0,1
EndSplineSet
Validated: 33
EndChar

StartChar: Telugu8
Encoding: 3182 3182 130
Width: 1151
GlyphClass: 2
Flags: W
LayerCount: 2
Fore
SplineSet
1112 461 m 2,0,-1
 727 461 l 1,1,2
 776 386 776 386 776 304 c 1,3,4
 790 161 790 161 668 67 c 0,5,6
 579 2 579 2 459 0 c 1,7,8
 318 -9 318 -9 229 76 c 128,-1,9
 140 161 140 161 140 299 c 0,10,11
 140 392 140 392 186 465 c 0,12,13
 223 524 223 524 274 543 c 0,14,15
 297 551 297 551 357 564 c 1,16,17
 367 548 367 548 384 498 c 0,18,19
 390 474 390 474 377 469 c 0,20,21
 337 455 337 455 275 425 c 0,22,23
 215 395 215 395 215 317 c 0,24,25
 215 217 215 217 301 162 c 0,26,27
 367 121 367 121 447 118 c 0,28,29
 538 116 538 116 619.5 171.5 c 128,-1,30
 701 227 701 227 700 317 c 0,31,32
 694 435 694 435 624 446 c 1,33,-1
 503 452 l 1,34,-1
 502 566 l 1,35,-1
 1112 567 l 2,36,37
 1162 567 1162 567 1163 524 c 0,38,39
 1166 461 1166 461 1112 461 c 2,0,-1
EndSplineSet
Validated: 33
EndChar

StartChar: Telugu9
Encoding: 3183 3183 131
Width: 1024
GlyphClass: 2
Flags: W
LayerCount: 2
Fore
SplineSet
1023 607 m 1,0,-1
 1023 505 l 1,1,-1
 474 505 l 2,2,3
 359 505 359 505 326 498 c 0,4,5
 234 480 234 480 233 416 c 0,6,7
 231 348 231 348 294 323 c 0,8,9
 333 308 333 308 465 307 c 2,10,-1
 646 306 l 1,11,-1
 646 215 l 1,12,-1
 385 215 l 2,13,14
 233 216 233 216 225 146 c 0,15,16
 218 96 218 96 276 80 c 0,17,18
 303 74 303 74 393 74 c 1,19,-1
 393 3 l 1,20,21
 375 0 375 0 294 0 c 0,22,23
 230 0 230 0 186 38.5 c 128,-1,24
 142 77 142 77 142 142 c 0,25,26
 142 239 142 239 243 272 c 1,27,28
 154 311 154 311 148 406 c 0,29,30
 141 496 141 496 196 551.5 c 128,-1,31
 251 607 251 607 343 607 c 2,32,-1
 1023 607 l 1,0,-1
EndSplineSet
Validated: 33
EndChar

StartChar: Nukta
Encoding: 3185 3185 132
Width: 477
GlyphClass: 4
Flags: W
LayerCount: 2
Fore
SplineSet
404 29 m 0,0,1
 411 58 411 58 404 82 c 0,2,3
 384 151 384 151 310 151 c 0,4,5
 279 151 279 151 251 134 c 128,-1,6
 223 117 223 117 215 93.5 c 128,-1,7
 207 70 207 70 207 56 c 0,8,9
 210 43 210 43 213 29 c 0,10,11
 217 0 217 0 184 0 c 0,12,13
 137 0 137 0 136 78 c 0,14,15
 139 133 139 133 168 173 c 0,16,17
 189 203 189 203 231.5 223 c 128,-1,18
 274 243 274 243 315 242 c 0,19,20
 376 239 376 239 425 200 c 0,21,22
 480 154 480 154 480 86 c 0,23,24
 480 70 480 70 477 55 c 0,25,26
 466 1 466 1 429 1 c 0,27,28
 398 1 398 1 404 29 c 0,0,1
402 555 m 0,29,30
 396 583 396 583 427 583 c 0,31,32
 463 583 463 583 474 530 c 0,33,34
 476 520 476 520 476 507 c 0,35,36
 476 443 476 443 437 401 c 0,37,38
 384 346 384 346 314 344 c 0,39,40
 272 343 272 343 230 362.5 c 128,-1,41
 188 382 188 382 170 413 c 0,42,43
 144 455 144 455 144 497 c 0,44,45
 144 527 144 527 159 552.5 c 128,-1,46
 174 578 174 578 199 578 c 0,47,48
 222 578 222 578 220 555 c 0,49,50
 218 544 218 544 218 534 c 0,51,52
 218 439 218 439 306 436 c 0,53,54
 347 435 347 435 376 462 c 128,-1,55
 405 489 405 489 405 531 c 0,56,57
 405 543 405 543 402 555 c 0,29,30
EndSplineSet
Validated: 33
EndChar

StartChar: uni0C78
Encoding: 3192 3192 133
Width: 637
GlyphClass: 2
Flags: W
LayerCount: 2
Fore
SplineSet
265 -2 m 1,0,1
 230 21 230 21 230 42 c 0,2,3
 230 57 230 57 249 69 c 0,4,5
 374 123 374 123 538 197 c 1,6,7
 545 207 545 207 449 234 c 0,8,9
 324 270 324 270 259 312 c 0,10,11
 154 380 154 380 154 486 c 0,12,13
 154 581 154 581 222 636.5 c 128,-1,14
 290 692 290 692 401 688 c 0,15,16
 493 685 493 685 555 632 c 0,17,18
 621 576 621 576 621 490 c 0,19,20
 621 362 621 362 463 317 c 1,21,22
 516 300 516 300 570 283 c 0,23,24
 638 257 638 257 638 223 c 0,25,26
 638 206 638 206 622 187 c 0,27,28
 578 133 578 133 438 67 c 0,29,30
 339 21 339 21 265 -2 c 1,0,1
539 498 m 0,31,32
 541 554 541 554 494 590 c 0,33,34
 450 622 450 622 389 622 c 0,35,36
 329 622 329 622 288 591 c 0,37,38
 242 556 242 556 239 493 c 0,39,40
 235 427 235 427 275 390 c 0,41,42
 311 358 311 358 369 358 c 0,43,44
 432 358 432 358 482 395 c 0,45,46
 536 435 536 435 539 498 c 0,31,32
EndSplineSet
Validated: 33
EndChar

StartChar: uni0C79
Encoding: 3193 3193 134
Width: 235
GlyphClass: 2
Flags: W
LayerCount: 2
Fore
SplineSet
139 669 m 1,0,-1
 240 669 l 1,1,-1
 240 4 l 1,2,-1
 139 4 l 1,3,-1
 139 669 l 1,0,-1
EndSplineSet
Validated: 1
EndChar

StartChar: uni0C7A
Encoding: 3194 3194 135
Width: 656
GlyphClass: 2
Flags: W
LayerCount: 2
Fore
SplineSet
654 715 m 1,0,-1
 654 -29 l 1,1,-1
 545 -29 l 1,2,-1
 545 299 l 1,3,4
 478 261 478 261 380 261 c 0,5,6
 324 261 324 261 282 276 c 0,7,8
 155 320 155 320 153 465 c 2,9,-1
 150 705 l 1,10,-1
 260 705 l 1,11,12
 260 681 260 681 259 610 c 0,13,14
 258 521 258 521 257 473 c 0,15,16
 257 410 257 410 298 378 c 0,17,18
 333 350 333 350 391 350 c 0,19,20
 446 350 446 350 493 373.5 c 128,-1,21
 540 397 540 397 541 427 c 0,22,23
 544 545 544 545 543 715 c 1,24,-1
 654 715 l 1,0,-1
EndSplineSet
Validated: 33
EndChar

StartChar: uni0C7B
Encoding: 3195 3195 136
Width: 1002
GlyphClass: 2
Flags: W
LayerCount: 2
Fore
SplineSet
512 715 m 1,0,-1
 621 715 l 1,1,2
 621 703 621 703 619 483 c 0,3,4
 618 360 618 360 744 360 c 0,5,6
 796 360 796 360 840 383.5 c 128,-1,7
 884 407 884 407 885 437 c 0,8,9
 888 555 888 555 887 725 c 1,10,-1
 998 725 l 1,11,12
 1000 588 1000 588 998 -19 c 1,13,-1
 889 -19 l 1,14,-1
 889 309 l 1,15,16
 828 268 828 268 758 268 c 0,17,18
 711 268 711 268 661 286 c 0,19,20
 602 307 602 307 573 338 c 1,21,22
 524 264 524 264 387 264 c 0,23,24
 324 264 324 264 279 280 c 0,25,26
 152 324 152 324 150 469 c 2,27,-1
 149 709 l 1,28,-1
 256 709 l 1,29,30
 256 697 256 697 254 477 c 0,31,32
 254 415 254 415 291 382 c 0,33,34
 323 354 323 354 374 354 c 0,35,36
 429 354 429 354 472.5 386 c 128,-1,37
 516 418 516 418 511 465 c 1,38,-1
 512 715 l 1,0,-1
EndSplineSet
Validated: 33
EndChar

StartChar: uni0C7C
Encoding: 3196 3196 137
Width: 869
GlyphClass: 2
Flags: W
LayerCount: 2
Fore
SplineSet
113 297 m 1,0,-1
 113 398 l 1,1,-1
 860 398 l 1,2,-1
 860 297 l 1,3,-1
 113 297 l 1,0,-1
EndSplineSet
Validated: 1
EndChar

StartChar: uni0C7D
Encoding: 3197 3197 138
Width: 1061
GlyphClass: 2
Flags: W
LayerCount: 2
Fore
SplineSet
552 2 m 2,0,1
 377 2 377 2 290 21 c 0,2,3
 128 58 128 58 153 164 c 0,4,5
 166 222 166 222 283 269 c 1,6,7
 387 304 387 304 490 339 c 0,8,9
 599 379 599 379 599 420 c 0,10,11
 599 479 599 479 447 491 c 0,12,13
 375 496 375 496 159 496 c 1,14,-1
 159 587 l 1,15,-1
 456 582 l 2,16,17
 545 580 545 580 619.5 537.5 c 128,-1,18
 694 495 694 495 691 444 c 0,19,20
 687 357 687 357 588 295 c 0,21,22
 530 259 530 259 401 215 c 0,23,24
 293 179 293 179 282 161 c 0,25,26
 277 154 277 154 277 148 c 0,27,28
 277 111 277 111 439 111 c 0,29,30
 461 111 461 111 493 111 c 0,31,32
 520 112 520 112 525 112 c 0,33,34
 609 110 609 110 1080 110 c 1,35,-1
 1080 2 l 1,36,-1
 552 2 l 2,0,1
EndSplineSet
Validated: 33
EndChar

StartChar: uni0C7E
Encoding: 3198 3198 139
Width: 1015
GlyphClass: 2
Flags: W
LayerCount: 2
Fore
SplineSet
537 288 m 0,0,1
 539 312 539 312 408 326 c 0,2,3
 252 343 252 343 200 374 c 0,4,5
 152 402 152 402 152 438 c 0,6,7
 152 477 152 477 212 491 c 0,8,9
 234 496 234 496 409 517 c 0,10,11
 549 534 549 534 552 548 c 0,12,13
 561 593 561 593 426 603 c 1,14,15
 311 605 311 605 197 607 c 1,16,17
 191 651 191 651 188 694 c 1,18,-1
 383 687 l 1,19,20
 520 670 520 670 582 639 c 0,21,22
 648 606 648 606 645 549 c 1,23,24
 620 498 620 498 541 474 c 0,25,26
 443 444 443 444 343 437 c 0,27,28
 272 432 272 432 271 426 c 1,29,30
 495 393 495 393 550 375 c 0,31,32
 649 343 649 343 649 299 c 0,33,34
 649 289 649 289 639 265 c 0,35,36
 621 218 621 218 516 191 c 0,37,38
 490 185 490 185 332 158 c 0,39,40
 237 143 237 143 237 122 c 0,41,42
 237 88 237 88 370 88 c 0,43,44
 402 88 402 88 447.5 90 c 128,-1,45
 493 92 493 92 497 92 c 0,46,47
 661 90 661 90 1012 90 c 1,48,-1
 1012 2 l 1,49,-1
 524 2 l 2,50,51
 346 2 346 2 298 8 c 0,52,53
 142 29 142 29 142 109 c 0,54,55
 142 121 142 121 145 134 c 0,56,57
 161 195 161 195 262 226 c 0,58,59
 313 242 313 242 442 259 c 0,60,61
 536 272 536 272 537 288 c 0,0,1
EndSplineSet
Validated: 33
EndChar

StartChar: uni0C7F
Encoding: 3199 3199 140
Width: 883
GlyphClass: 2
Flags: W
LayerCount: 2
Fore
SplineSet
846 369 m 256,0,1
 856 368 856 368 868 343.5 c 128,-1,2
 880 319 880 319 880 302 c 0,3,4
 880 297 880 297 878 294 c 0,5,6
 827 203 827 203 742 133 c 0,7,8
 639 49 639 49 519 24 c 0,9,10
 487 17 487 17 443 17 c 0,11,12
 239 17 239 17 154 158 c 0,13,14
 109 233 109 233 109 298 c 0,15,16
 109 332 109 332 129 392 c 128,-1,17
 149 452 149 452 213 499 c 0,18,19
 288 554 288 554 378 551 c 0,20,21
 434 550 434 550 470.5 518.5 c 128,-1,22
 507 487 507 487 507 439 c 0,23,24
 507 390 507 390 468 352 c 128,-1,25
 429 314 429 314 380 316 c 0,26,27
 327 318 327 318 291.5 346 c 128,-1,28
 256 374 256 374 256 414 c 0,29,30
 256 438 256 438 271 463 c 1,31,32
 224 440 224 440 213 358 c 0,33,34
 210 338 210 338 210 320 c 0,35,36
 210 229 210 229 270 176 c 0,37,38
 327 127 327 127 419 127 c 0,39,40
 451 127 451 127 486 134 c 0,41,42
 604 157 604 157 691 219 c 0,43,44
 745 258 745 258 797 322 c 0,45,46
 836 370 836 370 846 369 c 256,0,1
376 483 m 0,47,48
 342 485 342 485 322 468.5 c 128,-1,49
 302 452 302 452 302 428 c 0,50,51
 302 405 302 405 321 389 c 0,52,53
 343 370 343 370 381 370 c 0,54,55
 413 370 413 370 432.5 387.5 c 128,-1,56
 452 405 452 405 452 428 c 0,57,58
 452 480 452 480 376 483 c 0,47,48
EndSplineSet
Validated: 33
EndChar

StartChar: ZWNJ
Encoding: 8204 8204 141
Width: 207
GlyphClass: 2
Flags: W
LayerCount: 2
Fore
SplineSet
154 0 m 1,0,-1
 154 589 l 1,1,-1
 207 589 l 1,2,-1
 207 0 l 1,3,-1
 154 0 l 1,0,-1
EndSplineSet
Validated: 1
EndChar

StartChar: JWJ
Encoding: 8205 8205 142
Width: 647
GlyphClass: 2
Flags: W
LayerCount: 2
Fore
SplineSet
596 355 m 1,0,-1
 422 509 l 1,1,-1
 422 0 l 1,2,-1
 359 0 l 1,3,-1
 359 509 l 1,4,-1
 183 354 l 1,5,-1
 140 406 l 1,6,-1
 342 587 l 1,7,-1
 146 773 l 1,8,-1
 196 818 l 1,9,-1
 393 630 l 1,10,-1
 593 826 l 1,11,-1
 638 779 l 1,12,-1
 439 582 l 1,13,-1
 647 397 l 1,14,-1
 596 355 l 1,0,-1
EndSplineSet
Validated: 1
EndChar

StartChar: Ksha
Encoding: 65539 -1 143
Width: 806
GlyphClass: 3
Flags: W
AnchorPoint: "Anchor-0" 0 0 basechar 0
LayerCount: 2
Fore
SplineSet
238 313 m 1,0,1
 207 259 207 259 207 219 c 0,2,3
 207 103 207 103 334 103 c 0,4,5
 417 103 417 103 439 161 c 1,6,7
 370 166 370 166 311 205 c 0,8,9
 244 250 244 250 238 313 c 1,0,1
516 641 m 1,10,11
 646 598 646 598 646 531 c 0,12,13
 646 498 646 498 614 499 c 1,14,15
 573 529 573 529 533 560 c 1,16,17
 493 585 493 585 433 585 c 0,18,19
 311 585 311 585 311 528 c 0,20,21
 311 483 311 483 394.5 463.5 c 128,-1,22
 478 444 478 444 561 426 c 1,23,24
 659 397 659 397 684 337 c 1,25,26
 759 297 759 297 759 209 c 0,27,28
 759 188 759 188 749 147.5 c 128,-1,29
 739 107 739 107 739 88 c 0,30,31
 739 60 739 60 772.5 7 c 128,-1,32
 806 -46 806 -46 806 -56 c 0,33,34
 806 -84 806 -84 788 -99 c 1,35,-1
 779 -100 l 1,36,37
 692 -105 692 -105 692 11 c 0,38,39
 692 31 692 31 695 64 c 1,40,41
 656 -6 656 -6 575 -6 c 0,42,43
 470 -6 470 -6 446 93 c 1,44,45
 419 -3 419 -3 303 -3 c 0,46,47
 231 -3 231 -3 188 64 c 0,48,49
 150 122 150 122 150 198 c 0,50,51
 150 323 150 323 241 355 c 1,52,-1
 252 369 l 1,53,54
 271 362 271 362 285 329 c 0,55,56
 301 293 301 293 326 278 c 0,57,58
 368 252 368 252 459 252 c 0,59,60
 627 252 627 252 627 312 c 0,61,62
 627 353 627 353 529 375 c 0,63,64
 357 413 357 413 348 417 c 0,65,66
 250 452 250 452 250 526 c 0,67,68
 250 604 250 604 363 640 c 1,69,70
 305 663 305 663 305 720 c 0,71,72
 305 787 305 787 367 785 c 0,73,74
 434 783 434 783 452 670 c 1,75,76
 454 672 454 672 583 791 c 0,77,78
 683 884 683 884 700 884 c 0,79,80
 748 884 748 884 748 844 c 0,81,82
 748 824 748 824 642 739 c 0,83,84
 579 690 579 690 516 641 c 1,10,11
684 265 m 1,85,86
 663 220 663 220 593 188 c 0,87,88
 531 160 531 160 475 159 c 1,89,90
 495 101 495 101 563 101 c 0,91,92
 697 101 697 101 697 230 c 0,93,94
 697 240 697 240 684 265 c 1,85,86
EndSplineSet
Validated: 33
Ligature2: "'akhn' Akhand in Telugu lookup 11 subtable" Telugu_Ka SSa Halanth
PairPos2: "'blwm' Below Base Mark in Telugu lookup 6 subtable" TaOttu dx=0 dy=0 dh=0 dv=0 dx=99 dy=-79 dh=0 dv=0
EndChar

StartChar: LuMatra
Encoding: 65540 -1 144
Width: 6
GlyphClass: 4
Flags: W
LayerCount: 2
Fore
SplineSet
-162 760 m 0,0,1
 -224 792 -224 792 -237 843 c 0,2,3
 -240 855 -240 855 -240 866 c 0,4,5
 -240 905 -240 905 -204 929 c 128,-1,6
 -168 953 -168 953 -108 954 c 0,7,8
 -57 955 -57 955 -25 925 c 128,-1,9
 7 895 7 895 7 842 c 0,10,11
 7 820 7 820 -11 820 c 0,12,13
 -22 820 -22 820 -27 843 c 0,14,15
 -39 894 -39 894 -96 894 c 0,16,17
 -124 894 -124 894 -145 882 c 0,18,19
 -171 867 -171 867 -167 842 c 0,20,21
 -162 809 -162 809 -76 773 c 1,22,23
 -73 744 -73 744 -104 744 c 0,24,25
 -126 744 -126 744 -162 760 c 0,0,1
EndSplineSet
Validated: 33
EndChar

StartChar: Kaottu
Encoding: 65541 -1 145
Width: 740
GlyphClass: 4
Flags: W
LayerCount: 2
Fore
SplineSet
341 34 m 1,0,1
 341 34 341 34 739 34 c 1,2,-1
 739 -42 l 1,3,-1
 449 -42 l 1,4,5
 497 -123 497 -123 497 -213 c 0,6,7
 497 -296 497 -296 437 -361 c 128,-1,8
 377 -426 377 -426 299 -428 c 0,9,10
 188 -432 188 -432 125 -360 c 0,11,12
 65 -293 65 -293 65 -179 c 0,13,14
 65 -93 65 -93 115 15 c 0,15,16
 139 65 139 65 209 182 c 0,17,18
 261 266 261 266 262 295 c 0,19,20
 265 372 265 372 115 372 c 0,21,22
 71 372 71 372 69 409 c 0,23,24
 67 471 67 471 152 471 c 0,25,26
 220 471 220 471 273 423 c 128,-1,27
 326 375 326 375 326 308 c 0,28,29
 326 242 326 242 279 159 c 0,30,31
 236 87 236 87 192 14 c 1,32,33
 145 -77 145 -77 145 -160 c 0,34,35
 145 -229 145 -229 185 -271.5 c 128,-1,36
 225 -314 225 -314 293 -314 c 0,37,38
 354 -314 354 -314 393.5 -280 c 128,-1,39
 433 -246 433 -246 433 -186 c 0,40,41
 433 -129 433 -129 395 -68 c 0,42,43
 348 7 348 7 341 34 c 1,0,1
EndSplineSet
Validated: 33
Ligature2: "'blwf' Below Base Forms in Telugu lookup 13 subtable" Telugu_Ka Halanth
PairPos2: "'blwm' Below Base Mark in Telugu lookup 8 subtable" TaOttu dx=0 dy=0 dh=0 dv=0 dx=-710 dy=-18 dh=0 dv=0
EndChar

StartChar: KhaOttu
Encoding: 65542 -1 146
Width: 0
GlyphClass: 4
Flags: W
AnchorPoint: "Anchor-0" -30 9 mark 0
LayerCount: 2
Fore
SplineSet
378 -505 m 1,0,1
 328 -545 328 -545 277 -545 c 256,2,3
 226 -545 226 -545 189 -514.5 c 128,-1,4
 152 -484 152 -484 152 -435 c 0,5,6
 152 -387 152 -387 188 -359 c 0,7,8
 221 -333 221 -333 270 -333 c 0,9,10
 342 -333 342 -333 392 -384 c 1,11,12
 411 -329 411 -329 411 -293 c 0,13,14
 411 -264 411 -264 400 -240 c 1,15,16
 377 -298 377 -298 293 -298 c 0,17,18
 181 -298 181 -298 182 -206 c 0,19,20
 182 -115 182 -115 303 -115 c 0,21,22
 464 -115 464 -115 464 -277 c 0,23,24
 464 -312 464 -312 448 -365 c 0,25,26
 435 -406 435 -406 426 -421 c 0,27,28
 425 -424 425 -424 425 -426 c 0,29,30
 425 -438 425 -438 459 -449 c 0,31,32
 489 -458 489 -458 506 -457 c 0,33,34
 599 -453 599 -453 599 -331 c 0,35,36
 599 -216 599 -216 491 -190 c 1,37,-1
 491 -120 l 1,38,39
 666 -135 666 -135 658 -354 c 0,40,41
 655 -409 655 -409 625 -463 c 0,42,43
 586 -534 586 -534 521 -541 c 0,44,45
 491 -545 491 -545 466 -533 c 0,46,47
 452 -526 452 -526 419 -501 c 1,48,49
 438 -541 438 -541 438 -597 c 0,50,51
 438 -662 438 -662 398 -662 c 0,52,53
 377 -662 377 -662 366 -636 c 0,54,55
 357 -616 357 -616 357 -592 c 0,56,57
 357 -570 357 -570 378 -505 c 1,0,1
307 -164 m 0,58,59
 236 -164 236 -164 236 -202 c 0,60,61
 236 -239 236 -239 287 -239 c 0,62,63
 369 -239 369 -239 369 -199 c 0,64,65
 369 -164 369 -164 307 -164 c 0,58,59
273 -385 m 0,66,67
 251 -384 251 -384 230 -395 c 0,68,69
 205 -407 205 -407 205 -427 c 0,70,71
 205 -470 205 -470 274 -470 c 0,72,73
 341 -470 341 -470 363 -435 c 1,74,75
 336 -385 336 -385 273 -385 c 0,66,67
EndSplineSet
Validated: 33
Ligature2: "'blwf' Below Base Forms in Telugu lookup 13 subtable" Telugu_Kha Halanth
EndChar

StartChar: GaOttu
Encoding: 65543 -1 147
Width: 1
GlyphClass: 4
Flags: W
AnchorPoint: "Anchor-0" -48 13 mark 0
LayerCount: 2
Fore
SplineSet
492 -589 m 0,0,1
 485 -593 485 -593 437 -540 c 1,2,3
 513 -410 513 -410 521 -327 c 0,4,5
 526 -274 526 -274 483 -224.5 c 128,-1,6
 440 -175 440 -175 387 -175 c 0,7,8
 313 -175 313 -175 265 -224.5 c 128,-1,9
 217 -274 217 -274 217 -348 c 0,10,11
 217 -397 217 -397 247 -453 c 0,12,13
 275 -500 275 -500 302 -547 c 1,14,15
 282 -572 282 -572 233 -591 c 1,16,17
 175 -527 175 -527 159 -472 c 0,18,19
 151 -442 151 -442 151 -365 c 0,20,21
 151 -265 151 -265 216 -194 c 128,-1,22
 281 -123 281 -123 380 -122 c 0,23,24
 476 -121 476 -121 535 -193.5 c 128,-1,25
 594 -266 594 -266 590 -369 c 0,26,27
 588 -421 588 -421 555 -496.5 c 128,-1,28
 522 -572 522 -572 492 -589 c 0,0,1
EndSplineSet
Validated: 33
Ligature2: "'blwf' Below Base Forms in Telugu lookup 13 subtable" Ga Halanth
EndChar

StartChar: GhaOttu
Encoding: 65544 -1 148
Width: 5
GlyphClass: 4
Flags: W
AnchorPoint: "Anchor-0" -5 18 mark 0
LayerCount: 2
Fore
SplineSet
702 -543 m 0,0,1
 627 -544 627 -544 585 -463 c 1,2,3
 550 -540 550 -540 468 -540 c 0,4,5
 414 -540 414 -540 377 -500 c 1,6,7
 398 -572 398 -572 398 -604 c 0,8,9
 398 -622 398 -622 387.5 -641 c 128,-1,10
 377 -660 377 -660 360 -660 c 0,11,12
 342 -660 342 -660 330 -639 c 0,13,14
 320 -621 320 -621 320 -602 c 0,15,16
 320 -584 320 -584 326 -553 c 0,17,18
 333 -512 333 -512 334 -504 c 1,19,20
 314 -540 314 -540 257 -540 c 0,21,22
 213 -540 213 -540 184 -505.5 c 128,-1,23
 155 -471 155 -471 155 -426 c 0,24,25
 155 -380 155 -380 185.5 -349 c 128,-1,26
 216 -318 216 -318 261 -318 c 0,27,28
 323 -318 323 -318 349 -353 c 1,29,30
 366 -386 366 -386 383 -419 c 0,31,32
 405 -456 405 -456 455 -460 c 0,33,34
 499 -463 499 -463 527.5 -436.5 c 128,-1,35
 556 -410 556 -410 555 -361 c 0,36,37
 554 -297 554 -297 520 -254 c 0,38,39
 500 -230 500 -230 454 -200 c 0,40,41
 416 -174 416 -174 411 -159 c 0,42,43
 407 -146 407 -146 420 -131.5 c 128,-1,44
 433 -117 433 -117 446 -122 c 0,45,46
 524 -147 524 -147 570 -227 c 0,47,48
 608 -294 608 -294 608 -363 c 0,49,50
 608 -403 608 -403 635 -434 c 0,51,52
 667 -471 667 -471 717 -465 c 0,53,54
 802 -454 802 -454 797 -350 c 0,55,56
 794 -279 794 -279 742 -219 c 0,57,58
 714 -190 714 -190 686 -162 c 0,59,60
 683 -156 683 -156 683 -149 c 0,61,62
 683 -120 683 -120 716 -120 c 0,63,64
 725 -120 725 -120 734 -122 c 0,65,66
 787 -152 787 -152 819 -218 c 128,-1,67
 851 -284 851 -284 851 -361 c 0,68,69
 851 -439 851 -439 809 -490 c 128,-1,70
 767 -541 767 -541 702 -543 c 0,0,1
259 -369 m 0,71,72
 233 -369 233 -369 217.5 -385.5 c 128,-1,73
 202 -402 202 -402 202 -424 c 0,74,75
 202 -478 202 -478 264 -478 c 0,76,77
 296 -478 296 -478 314 -462 c 128,-1,78
 332 -446 332 -446 332 -424 c 256,79,80
 332 -402 332 -402 314 -386 c 0,81,82
 293 -369 293 -369 259 -369 c 0,71,72
EndSplineSet
Validated: 33
Ligature2: "'blwf' Below Base Forms in Telugu lookup 13 subtable" Gha Halanth
EndChar

StartChar: NgaOttu
Encoding: 65545 -1 149
Width: 3
GlyphClass: 4
Flags: W
AnchorPoint: "Anchor-0" -20 10 mark 0
LayerCount: 2
Fore
SplineSet
218 -428 m 256,0,1
 214 -452 214 -452 234.5 -466.5 c 128,-1,2
 255 -481 255 -481 284 -481 c 0,3,4
 346 -481 346 -481 374 -453 c 0,5,6
 391 -436 391 -436 399 -401 c 0,7,8
 406 -373 406 -373 416 -373 c 0,9,10
 426 -375 426 -375 432 -405 c 0,11,12
 439 -441 439 -441 452 -457 c 0,13,14
 474 -483 474 -483 525 -481 c 0,15,16
 613 -477 613 -477 613 -425 c 0,17,18
 613 -414 613 -414 601 -404 c 0,19,20
 584 -390 584 -390 582 -386 c 0,21,22
 582 -359 582 -359 605 -359 c 0,23,24
 631 -359 631 -359 644 -382 c 0,25,26
 654 -399 654 -399 654 -425 c 0,27,28
 654 -481 654 -481 616 -515.5 c 128,-1,29
 578 -550 578 -550 522 -550 c 0,30,31
 471 -550 471 -550 447 -537 c 0,32,33
 414 -519 414 -519 406 -473 c 1,34,35
 369 -549 369 -549 284 -549 c 0,36,37
 233 -549 233 -549 199 -519 c 0,38,39
 162 -488 162 -488 162 -436 c 0,40,41
 162 -382 162 -382 219 -341 c 1,42,43
 271 -310 271 -310 324 -279 c 0,44,45
 381 -243 381 -243 381 -202 c 0,46,47
 381 -156 381 -156 307 -156 c 0,48,49
 283 -156 283 -156 264 -168 c 0,50,51
 242 -182 242 -182 242 -207 c 0,52,53
 242 -243 242 -243 284 -263 c 1,54,-1
 229 -302 l 1,55,56
 172 -282 172 -282 172 -225 c 0,57,58
 172 -175 172 -175 216 -143 c 0,59,60
 256 -114 256 -114 309 -111 c 0,61,62
 358 -109 358 -109 393.5 -132 c 128,-1,63
 429 -155 429 -155 429 -198 c 0,64,65
 429 -218 429 -218 416 -244 c 1,66,-1
 492 -244 l 1,67,-1
 492 -118 l 1,68,-1
 546 -118 l 1,69,-1
 546 -246 l 1,70,-1
 654 -246 l 1,71,-1
 654 -302 l 1,72,-1
 372 -302 l 1,73,74
 346 -313 346 -313 289 -355 c 0,75,76
 222 -404 222 -404 218 -428 c 256,0,1
EndSplineSet
Validated: 33
Ligature2: "'blwf' Below Base Forms in Telugu lookup 13 subtable" Telugu_M Halanth
EndChar

StartChar: CaOttu
Encoding: 65546 -1 150
Width: 668
GlyphClass: 4
Flags: W
LayerCount: 2
Fore
SplineSet
390 -262 m 1,0,1
 363 -312 363 -312 357 -319 c 0,2,3
 329 -354 329 -354 276 -360 c 0,4,5
 216 -367 216 -367 171.5 -316.5 c 128,-1,6
 127 -266 127 -266 127 -203 c 0,7,8
 127 -137 127 -137 182 -70 c 1,9,10
 140 -70 140 -70 78 -56 c 1,11,12
 74 -39 74 -39 74 -21 c 0,13,14
 74 32 74 32 111 32 c 0,15,16
 131 32 131 32 192.5 4 c 128,-1,17
 254 -24 254 -24 275 -41 c 1,18,19
 182 -157 182 -157 182 -188 c 0,20,21
 182 -222 182 -222 214 -244 c 0,22,23
 242 -264 242 -264 278 -264 c 0,24,25
 325 -264 325 -264 347 -234 c 0,26,27
 360 -216 360 -216 370 -172 c 0,28,29
 379 -133 379 -133 390 -124 c 1,30,31
 407 -130 407 -130 414 -165 c 0,32,33
 424 -213 424 -213 431 -226 c 0,34,35
 449 -258 449 -258 492 -258 c 0,36,37
 609 -258 609 -258 609 -99 c 0,38,39
 609 152 609 152 434 313 c 0,40,41
 314 424 314 424 278.5 440.5 c 128,-1,42
 243 457 243 457 243 486 c 0,43,44
 243 504 243 504 255.5 517 c 128,-1,45
 268 530 268 530 285 530 c 0,46,47
 289 530 289 530 294 529 c 0,48,49
 444 454 444 454 541 310 c 0,50,51
 670 119 670 119 670 -136 c 0,52,53
 670 -227 670 -227 635 -285 c 0,54,55
 592 -356 592 -356 507 -357 c 0,56,57
 465 -358 465 -358 433.5 -331 c 128,-1,58
 402 -304 402 -304 390 -262 c 1,0,1
EndSplineSet
Validated: 33
Ligature2: "'blwf' Below Base Forms in Telugu lookup 13 subtable" CaNukta Halanth
Ligature2: "'blwf' Below Base Forms in Telugu lookup 13 subtable" Ca Halanth
PairPos2: "'blwm' Below Base Mark in Telugu lookup 8 subtable" TaOttu dx=0 dy=0 dh=0 dv=0 dx=-710 dy=-18 dh=0 dv=0
EndChar

StartChar: ChaOttu
Encoding: 65547 -1 151
Width: 660
GlyphClass: 4
Flags: W
LayerCount: 2
Fore
SplineSet
431 -397 m 0,0,1
 431 -426 431 -426 420 -453 c 0,2,3
 407 -486 407 -486 385 -486 c 0,4,5
 362 -486 362 -486 348 -453 c 0,6,7
 338 -427 338 -427 338 -397 c 0,8,9
 338 -379 338 -379 346 -352 c 0,10,11
 357 -311 357 -311 358 -307 c 1,12,13
 328 -354 328 -354 276 -360 c 0,14,15
 216 -367 216 -367 171.5 -316.5 c 128,-1,16
 127 -266 127 -266 127 -203 c 0,17,18
 127 -137 127 -137 182 -70 c 1,19,20
 140 -70 140 -70 78 -56 c 1,21,22
 74 -39 74 -39 74 -21 c 0,23,24
 74 32 74 32 111 32 c 0,25,26
 131 32 131 32 192.5 4 c 128,-1,27
 254 -24 254 -24 275 -41 c 1,28,29
 182 -157 182 -157 182 -188 c 0,30,31
 182 -222 182 -222 214 -244 c 0,32,33
 242 -264 242 -264 278 -264 c 0,34,35
 325 -264 325 -264 347 -234 c 0,36,37
 360 -216 360 -216 370 -172 c 0,38,39
 379 -133 379 -133 390 -124 c 1,40,41
 407 -130 407 -130 414 -165 c 0,42,43
 424 -213 424 -213 431 -226 c 0,44,45
 449 -258 449 -258 492 -258 c 0,46,47
 609 -258 609 -258 609 -99 c 0,48,49
 609 154 609 154 434 315 c 0,50,51
 314 426 314 426 277 443 c 0,52,53
 244 459 244 459 244 487 c 0,54,55
 244 504 244 504 257.5 518 c 128,-1,56
 271 532 271 532 289 532 c 0,57,58
 293 532 293 532 298 531 c 0,59,60
 448 449 448 449 543 308 c 0,61,62
 670 120 670 120 670 -136 c 0,63,64
 670 -227 670 -227 635 -285 c 0,65,66
 592 -356 592 -356 507 -357 c 0,67,68
 444 -358 444 -358 411 -306 c 1,69,70
 412 -314 412 -314 423 -351 c 0,71,72
 431 -379 431 -379 431 -397 c 0,0,1
EndSplineSet
Validated: 33
Ligature2: "'blwf' Below Base Forms in Telugu lookup 13 subtable" Cha Halanth
PairPos2: "'blwm' Below Base Mark in Telugu lookup 8 subtable" TaOttu dx=0 dy=0 dh=0 dv=0 dx=-710 dy=-18 dh=0 dv=0
EndChar

StartChar: JaOttu
Encoding: 65548 -1 152
Width: 0
GlyphClass: 4
Flags: W
AnchorPoint: "Anchor-0" -42 46 mark 0
LayerCount: 2
Fore
SplineSet
497 -558 m 0,0,1
 460 -558 460 -558 428 -533 c 0,2,3
 400 -511 400 -511 389 -483 c 1,4,5
 344 -559 344 -559 268 -559 c 0,6,7
 217 -559 217 -559 182.5 -521 c 128,-1,8
 148 -483 148 -483 148 -431 c 0,9,10
 148 -381 148 -381 202 -341 c 1,11,12
 202 -341 202 -341 302 -282 c 0,13,14
 356 -251 356 -251 356 -222 c 0,15,16
 356 -167 356 -167 298 -166 c 0,17,18
 244 -165 244 -165 244 -213 c 0,19,20
 244 -243 244 -243 289 -266 c 1,21,-1
 237 -307 l 1,22,23
 211 -305 211 -305 193.5 -281 c 128,-1,24
 176 -257 176 -257 176 -229 c 0,25,26
 176 -177 176 -177 208 -147.5 c 128,-1,27
 240 -118 240 -118 294 -117 c 0,28,29
 404 -114 404 -114 404 -250 c 0,30,31
 404 -268 404 -268 439 -280 c 0,32,33
 465 -288 465 -288 488 -288 c 0,34,35
 520 -288 520 -288 541.5 -270.5 c 128,-1,36
 563 -253 563 -253 562 -227 c 0,37,38
 561 -203 561 -203 526 -186.5 c 128,-1,39
 491 -170 491 -170 490 -159 c 0,40,41
 488 -144 488 -144 497.5 -136.5 c 128,-1,42
 507 -129 507 -129 524 -129 c 0,43,44
 570 -130 570 -130 595 -166 c 0,45,46
 616 -197 616 -197 613 -238 c 0,47,48
 610 -282 610 -282 579 -312 c 0,49,50
 547 -345 547 -345 498 -345 c 0,51,52
 412 -345 412 -345 382 -283 c 1,53,54
 369 -299 369 -299 283 -357 c 0,55,56
 213 -404 213 -404 213 -435 c 0,57,58
 213 -478 213 -478 274 -478 c 0,59,60
 321 -478 321 -478 347 -455 c 0,61,62
 364 -440 364 -440 377 -410 c 0,63,64
 388 -384 388 -384 394 -382 c 0,65,66
 401 -383 401 -383 409 -407 c 0,67,68
 417 -438 417 -438 430 -453 c 0,69,70
 451 -478 451 -478 494 -481 c 0,71,72
 522 -483 522 -483 543 -469 c 0,73,74
 569 -452 569 -452 569 -422 c 0,75,76
 569 -416 569 -416 561.5 -402.5 c 128,-1,77
 554 -389 554 -389 554 -384 c 0,78,79
 554 -364 554 -364 573 -364 c 0,80,81
 593 -364 593 -364 606 -384.5 c 128,-1,82
 619 -405 619 -405 621 -426 c 0,83,84
 625 -471 625 -471 593 -512 c 0,85,86
 557 -558 557 -558 497 -558 c 0,0,1
EndSplineSet
Validated: 33
Ligature2: "'blwf' Below Base Forms in Telugu lookup 13 subtable" JaNukta Halanth
Ligature2: "'blwf' Below Base Forms in Telugu lookup 13 subtable" Ja Halanth
EndChar

StartChar: JhaOttu
Encoding: 65549 -1 153
Width: 3
GlyphClass: 4
Flags: W
AnchorPoint: "Anchor-0" 65 19 mark 0
LayerCount: 2
Fore
SplineSet
156 -326 m 0,0,1
 156 -236 156 -236 213.5 -175 c 128,-1,2
 271 -114 271 -114 358 -118 c 0,3,4
 485 -124 485 -124 524 -213 c 0,5,6
 525 -214 525 -214 557 -375 c 0,7,8
 574 -461 574 -461 648 -462 c 0,9,10
 702 -463 702 -463 736.5 -429 c 128,-1,11
 771 -395 771 -395 771 -334 c 0,12,13
 771 -239 771 -239 686 -170 c 0,14,15
 682 -166 682 -166 682 -159 c 0,16,17
 682 -148 682 -148 692.5 -136.5 c 128,-1,18
 703 -125 703 -125 715 -125 c 0,19,20
 721 -125 721 -125 726 -128 c 0,21,22
 771 -151 771 -151 800 -219 c 0,23,24
 823 -274 823 -274 823 -316 c 0,25,26
 823 -330 823 -330 821 -356 c 128,-1,27
 819 -382 819 -382 819 -394 c 0,28,29
 819 -466 819 -466 905 -466 c 0,30,31
 1016 -466 1016 -466 1016 -342 c 0,32,33
 1016 -242 1016 -242 903 -158 c 0,34,35
 901 -152 901 -152 901 -147 c 0,36,37
 901 -132 901 -132 912 -121 c 128,-1,38
 923 -110 923 -110 934 -111 c 0,39,40
 994 -128 994 -128 1032 -204 c 0,41,42
 1065 -270 1065 -270 1065 -338 c 0,43,44
 1065 -411 1065 -411 1035 -468 c 0,45,46
 996 -539 996 -539 921 -546 c 0,47,48
 884 -549 884 -549 848 -528 c 0,49,50
 809 -506 809 -506 799 -472 c 1,51,52
 800 -478 800 -478 811 -516 c 0,53,54
 820 -545 820 -545 820 -560 c 0,55,56
 820 -643 820 -643 781 -650 c 1,57,58
 744 -634 744 -634 744 -577 c 0,59,60
 744 -528 744 -528 768 -472 c 1,61,62
 748 -501 748 -501 715 -524 c 128,-1,63
 682 -547 682 -547 657 -546 c 0,64,65
 569 -545 569 -545 527 -427 c 1,66,67
 479 -545 479 -545 354 -545 c 0,68,69
 268 -545 268 -545 212 -479 c 128,-1,70
 156 -413 156 -413 156 -326 c 0,0,1
346 -453 m 0,71,72
 420 -453 420 -453 460 -410 c 0,73,74
 496 -373 496 -373 496 -315 c 0,75,76
 496 -254 496 -254 456 -207.5 c 128,-1,77
 416 -161 416 -161 351 -163 c 0,78,79
 285 -165 285 -165 245 -213 c 0,80,81
 208 -257 208 -257 208 -316 c 0,82,83
 208 -373 208 -373 242 -411 c 0,84,85
 280 -453 280 -453 346 -453 c 0,71,72
EndSplineSet
Validated: 33
Ligature2: "'blwf' Below Base Forms in Telugu lookup 13 subtable" Jha Halanth
EndChar

StartChar: NyaOttu
Encoding: 65550 -1 154
Width: 2
GlyphClass: 4
Flags: W
AnchorPoint: "Anchor-0" -40 25 mark 0
LayerCount: 2
Fore
SplineSet
578 -348 m 1,0,1
 562 -401 562 -401 543 -433 c 1,2,3
 568 -469 568 -469 568 -507 c 0,4,5
 568 -561 568 -561 532 -593 c 128,-1,6
 496 -625 496 -625 442 -625 c 0,7,8
 424 -625 424 -625 411.5 -612.5 c 128,-1,9
 399 -600 399 -600 399 -586 c 0,10,11
 399 -568 399 -568 419 -563 c 1,12,13
 511 -563 511 -563 511 -517 c 1,14,15
 511 -517 511 -517 501 -481 c 1,16,17
 434 -541 434 -541 339 -541 c 0,18,19
 277 -541 277 -541 232 -517 c 0,20,21
 175 -488 175 -488 175 -431 c 0,22,23
 175 -377 175 -377 228 -347 c 0,24,25
 272 -322 272 -322 331 -322 c 0,26,27
 403 -322 403 -322 499 -383 c 1,28,29
 533 -330 533 -330 533 -265 c 0,30,31
 533 -199 533 -199 460 -197 c 0,32,33
 411 -195 411 -195 390 -218 c 0,34,35
 376 -232 376 -232 372 -261 c 0,36,37
 368 -285 368 -285 362 -286 c 0,38,39
 341 -288 341 -288 336 -264 c 0,40,41
 326 -224 326 -224 322 -218 c 0,42,43
 306 -192 306 -192 261 -191 c 0,44,45
 208 -190 208 -190 208 -236 c 1,46,47
 208 -236 208 -236 224 -292 c 1,48,-1
 213 -308 l 1,49,50
 151 -295 151 -295 151 -214 c 0,51,52
 151 -173 151 -173 185 -146 c 128,-1,53
 219 -119 219 -119 261 -118 c 256,54,55
 303 -117 303 -117 327 -135 c 0,56,57
 339 -144 339 -144 362 -176 c 1,58,59
 396 -122 396 -122 458 -122 c 0,60,61
 526 -122 526 -122 561 -169 c 0,62,63
 593 -212 593 -212 589 -282 c 1,64,-1
 664 -282 l 1,65,-1
 664 -116 l 1,66,-1
 735 -116 l 1,67,-1
 735 -282 l 1,68,-1
 848 -282 l 1,69,-1
 848 -348 l 1,70,-1
 578 -348 l 1,0,1
331 -381 m 0,71,72
 240 -381 240 -381 240 -425 c 0,73,74
 240 -449 240 -449 281 -461 c 0,75,76
 310 -470 310 -470 341 -470 c 0,77,78
 425 -470 425 -470 463 -429 c 1,79,80
 420 -381 420 -381 331 -381 c 0,71,72
EndSplineSet
Validated: 33
Ligature2: "'blwf' Below Base Forms in Telugu lookup 13 subtable" Nya Halanth
EndChar

StartChar: TTaOttu
Encoding: 65551 -1 155
Width: 1
GlyphClass: 4
Flags: W
AnchorPoint: "Anchor-0" -35 25 mark 0
LayerCount: 2
Fore
SplineSet
510 -507 m 0,0,1
 500 -508 500 -508 490 -508 c 0,2,3
 452 -508 452 -508 425 -485.5 c 128,-1,4
 398 -463 398 -463 392 -434 c 1,5,6
 383 -465 383 -465 350.5 -488 c 128,-1,7
 318 -511 318 -511 286 -508 c 0,8,9
 150 -497 150 -497 150 -317 c 0,10,11
 150 -237 150 -237 189 -179 c 0,12,13
 234 -114 234 -114 310 -113 c 0,14,15
 350 -112 350 -112 381 -136.5 c 128,-1,16
 412 -161 412 -161 412 -200 c 0,17,18
 412 -241 412 -241 382 -267 c 128,-1,19
 352 -293 352 -293 310 -293 c 0,20,21
 231 -293 231 -293 215 -231 c 1,22,23
 204 -271 204 -271 204 -300 c 0,24,25
 205 -356 205 -356 218 -382 c 0,26,27
 237 -419 237 -419 288 -419 c 0,28,29
 336 -419 336 -419 360 -394 c 0,30,31
 374 -380 374 -380 383 -349 c 0,32,33
 390 -326 390 -326 397 -328 c 0,34,35
 406 -331 406 -331 412 -356 c 0,36,37
 420 -388 420 -388 430 -400 c 0,38,39
 448 -423 448 -423 485 -422 c 0,40,41
 577 -419 577 -419 587 -317 c 0,42,43
 590 -285 590 -285 576 -250 c 0,44,45
 558 -203 558 -203 515 -183 c 0,46,47
 476 -165 476 -165 476 -142 c 0,48,49
 476 -130 476 -130 486 -121 c 128,-1,50
 496 -112 496 -112 505 -114 c 0,51,52
 636 -139 636 -139 636 -328 c 0,53,54
 636 -387 636 -387 605 -438 c 0,55,56
 569 -496 569 -496 510 -507 c 0,0,1
305 -240 m 0,57,58
 369 -240 369 -240 369 -196 c 0,59,60
 369 -178 369 -178 355 -166 c 0,61,62
 338 -152 338 -152 313 -154 c 0,63,64
 250 -158 250 -158 250 -199 c 256,65,66
 250 -240 250 -240 305 -240 c 0,57,58
EndSplineSet
Validated: 33
Ligature2: "'blwf' Below Base Forms in Telugu lookup 13 subtable" Lla Halanth
EndChar

StartChar: TTHaOttu
Encoding: 65552 -1 156
Width: 2
GlyphClass: 4
Flags: W
AnchorPoint: "Anchor-0" -55 30 mark 0
LayerCount: 2
Fore
SplineSet
356 -549 m 0,0,1
 261 -549 261 -549 204 -484 c 0,2,3
 150 -423 150 -423 150 -327 c 0,4,5
 150 -236 150 -236 209 -176.5 c 128,-1,6
 268 -117 268 -117 358 -117 c 0,7,8
 454 -117 454 -117 508.5 -174 c 128,-1,9
 563 -231 563 -231 563 -328 c 0,10,11
 563 -426 563 -426 509 -486 c 0,12,13
 453 -549 453 -549 356 -549 c 0,0,1
211 -315 m 0,14,15
 211 -376 211 -376 254 -412 c 128,-1,16
 297 -448 297 -448 359 -448 c 0,17,18
 422 -448 422 -448 462 -408 c 128,-1,19
 502 -368 502 -368 502 -305 c 0,20,21
 502 -246 502 -246 464 -206.5 c 128,-1,22
 426 -167 426 -167 368 -167 c 0,23,24
 299 -167 299 -167 255 -207 c 128,-1,25
 211 -247 211 -247 211 -315 c 0,14,15
352 -363 m 0,26,27
 286 -363 286 -363 286 -298 c 0,28,29
 286 -270 286 -270 305 -247.5 c 128,-1,30
 324 -225 324 -225 352 -225 c 0,31,32
 383 -225 383 -225 405 -242 c 128,-1,33
 427 -259 427 -259 427 -289 c 0,34,35
 427 -363 427 -363 352 -363 c 0,26,27
EndSplineSet
Validated: 1
Ligature2: "'blwf' Below Base Forms in Telugu lookup 13 subtable" TTha Halanth
EndChar

StartChar: DDaOttu
Encoding: 65553 -1 157
Width: 2
GlyphClass: 4
Flags: W
AnchorPoint: "Anchor-0" -47 30 mark 0
LayerCount: 2
Fore
SplineSet
489 -555 m 0,0,1
 445 -556 445 -556 416 -531 c 0,2,3
 390 -509 390 -509 389 -477 c 1,4,5
 377 -509 377 -509 349.5 -531.5 c 128,-1,6
 322 -554 322 -554 291 -553 c 0,7,8
 224 -550 224 -550 185 -489 c 0,9,10
 151 -437 151 -437 151 -366 c 0,11,12
 151 -263 151 -263 224.5 -189.5 c 128,-1,13
 298 -116 298 -116 401 -116 c 0,14,15
 563 -116 563 -116 617 -230 c 1,16,17
 597 -263 597 -263 578 -263 c 0,18,19
 575 -263 575 -263 553 -241 c 0,20,21
 526 -215 526 -215 497 -201 c 0,22,23
 453 -179 453 -179 396 -179 c 0,24,25
 316 -179 316 -179 263 -233 c 128,-1,26
 210 -287 210 -287 210 -367 c 0,27,28
 210 -459 210 -459 299 -459 c 0,29,30
 336 -459 336 -459 356 -434 c 0,31,32
 368 -419 368 -419 377 -386 c 0,33,34
 385 -361 385 -361 392 -360 c 0,35,36
 407 -357 407 -357 410 -384 c 0,37,38
 415 -422 415 -422 426 -437 c 0,39,40
 448 -465 448 -465 508 -464 c 0,41,42
 527 -464 527 -464 551 -453 c 128,-1,43
 575 -442 575 -442 583 -426 c 1,44,45
 549 -442 549 -442 520 -442 c 0,46,47
 487 -442 487 -442 458 -418.5 c 128,-1,48
 429 -395 429 -395 429 -363 c 0,49,50
 429 -321 429 -321 457 -296 c 128,-1,51
 485 -271 485 -271 527 -271 c 0,52,53
 641 -271 641 -271 641 -387 c 0,54,55
 641 -453 641 -453 598 -503 c 128,-1,56
 555 -553 555 -553 489 -555 c 0,0,1
527 -312 m 0,57,58
 474 -312 474 -312 474 -357 c 0,59,60
 474 -401 474 -401 530 -400 c 0,61,62
 594 -399 594 -399 594 -359 c 0,63,64
 594 -340 594 -340 575.5 -326 c 128,-1,65
 557 -312 557 -312 527 -312 c 0,57,58
EndSplineSet
Validated: 33
Ligature2: "'blwf' Below Base Forms in Telugu lookup 13 subtable" DDa Halanth
EndChar

StartChar: DDhaOttu
Encoding: 65554 -1 158
Width: 0
GlyphClass: 4
Flags: W
AnchorPoint: "Anchor-0" -47 30 mark 0
LayerCount: 2
Fore
SplineSet
499 -547 m 0,0,1
 479 -547 479 -547 454.5 -534 c 128,-1,2
 430 -521 430 -521 419 -505 c 1,3,4
 435 -586 435 -586 435 -609 c 0,5,6
 435 -672 435 -672 397 -668 c 0,7,8
 360 -664 360 -664 360 -605 c 0,9,10
 360 -559 360 -559 381 -507 c 1,11,12
 349 -556 349 -556 303 -556 c 0,13,14
 229 -556 229 -556 188 -496 c 0,15,16
 152 -444 152 -444 152 -366 c 0,17,18
 152 -262 152 -262 225 -188.5 c 128,-1,19
 298 -115 298 -115 402 -115 c 0,20,21
 548 -115 548 -115 622 -224 c 1,22,23
 611 -262 611 -262 579 -262 c 0,24,25
 575 -262 575 -262 552 -240 c 0,26,27
 525 -213 525 -213 497 -199 c 0,28,29
 453 -177 453 -177 397 -177 c 0,30,31
 314 -177 314 -177 262.5 -234 c 128,-1,32
 211 -291 211 -291 211 -374 c 0,33,34
 211 -460 211 -460 296 -460 c 0,35,36
 356 -460 356 -460 374 -417 c 0,37,38
 383 -391 383 -391 391 -365 c 1,39,40
 410 -361 410 -361 414 -386 c 0,41,42
 420 -425 420 -425 428 -437 c 0,43,44
 446 -464 446 -464 501 -464 c 0,45,46
 561 -464 561 -464 581 -428 c 1,47,48
 551 -442 551 -442 525 -442 c 0,49,50
 492 -442 492 -442 461 -419 c 128,-1,51
 430 -396 430 -396 430 -364 c 0,52,53
 430 -321 430 -321 458 -295.5 c 128,-1,54
 486 -270 486 -270 530 -270 c 0,55,56
 583 -270 583 -270 613 -302.5 c 128,-1,57
 643 -335 643 -335 643 -388 c 0,58,59
 643 -456 643 -456 607 -500 c 0,60,61
 567 -547 567 -547 499 -547 c 0,0,1
536 -399 m 0,62,63
 595 -397 595 -397 595 -355 c 256,64,65
 595 -313 595 -313 534 -312 c 0,66,67
 476 -310 476 -310 476 -355 c 0,68,69
 476 -401 476 -401 536 -399 c 0,62,63
EndSplineSet
Validated: 33
Ligature2: "'blwf' Below Base Forms in Telugu lookup 13 subtable" DDha Halanth
EndChar

StartChar: NNaOttu
Encoding: 65555 -1 159
Width: 1
GlyphClass: 4
Flags: W
AnchorPoint: "Anchor-0" -35 25 mark 0
LayerCount: 2
Fore
SplineSet
181 -307 m 1,0,1
 149 -264 149 -264 149 -230 c 0,2,3
 149 -182 149 -182 185.5 -150 c 128,-1,4
 222 -118 222 -118 271 -118 c 0,5,6
 362 -118 362 -118 402 -190 c 1,7,8
 444 -118 444 -118 521 -118 c 0,9,10
 642 -118 642 -118 642 -298 c 0,11,12
 642 -518 642 -518 506 -518 c 0,13,14
 459 -518 459 -518 430.5 -485.5 c 128,-1,15
 402 -453 402 -453 402 -406 c 0,16,17
 402 -358 402 -358 429.5 -327 c 128,-1,18
 457 -296 457 -296 505 -296 c 0,19,20
 534 -296 534 -296 558 -310 c 128,-1,21
 582 -324 582 -324 585 -347 c 1,22,-1
 589 -320 l 2,23,24
 591 -308 591 -308 591 -295 c 0,25,26
 591 -195 591 -195 509 -197 c 0,27,28
 473 -198 473 -198 447.5 -225.5 c 128,-1,29
 422 -253 422 -253 415 -290 c 1,30,-1
 388 -290 l 1,31,32
 359 -186 359 -186 283 -186 c 0,33,34
 257 -186 257 -186 235 -199 c 0,35,36
 209 -214 209 -214 209 -238 c 0,37,38
 209 -260 209 -260 228 -283 c 1,39,-1
 357 -283 l 1,40,-1
 357 -330 l 1,41,-1
 225 -330 l 1,42,43
 199 -352 199 -352 199 -387 c 0,44,45
 199 -408 199 -408 216.5 -426.5 c 128,-1,46
 234 -445 234 -445 260 -444 c 0,47,48
 300 -443 300 -443 323 -404 c 0,49,50
 334 -382 334 -382 345 -360 c 1,51,52
 361 -371 361 -371 361 -406 c 0,53,54
 361 -448 361 -448 330.5 -481 c 128,-1,55
 300 -514 300 -514 258 -514 c 0,56,57
 203 -514 203 -514 173 -474 c 0,58,59
 147 -438 147 -438 147 -380 c 0,60,61
 147 -333 147 -333 181 -307 c 1,0,1
506 -455 m 0,62,63
 564 -454 564 -454 564 -400 c 0,64,65
 564 -345 564 -345 500 -345 c 0,66,67
 475 -345 475 -345 460 -361.5 c 128,-1,68
 445 -378 445 -378 445 -401 c 0,69,70
 445 -457 445 -457 506 -455 c 0,62,63
EndSplineSet
Validated: 33
Ligature2: "'blwf' Below Base Forms in Telugu lookup 13 subtable" Telugu_N Halanth
EndChar

StartChar: TaOttu
Encoding: 65556 -1 160
Width: 0
GlyphClass: 4
Flags: W
LayerCount: 2
Fore
SplineSet
-166 -303 m 2,0,-1
 -836 -303 l 1,1,-1
 -836 -224 l 1,2,-1
 -243 -224 l 1,3,4
 -273 -196 -273 -196 -273 -152 c 0,5,6
 -273 -101 -273 -101 -223 -70 c 0,7,8
 -177 -42 -177 -42 -127 -46 c 0,9,10
 4 -59 4 -59 4 -170 c 0,11,12
 4 -238 4 -238 -50 -273 c 0,13,14
 -95 -303 -95 -303 -166 -303 c 2,0,-1
-134 -106 m 0,15,16
 -171 -106 -171 -106 -192 -121.5 c 128,-1,17
 -213 -137 -213 -137 -213 -158 c 0,18,19
 -213 -178 -213 -178 -193.5 -193 c 128,-1,20
 -174 -208 -174 -208 -139 -208 c 0,21,22
 -97 -208 -97 -208 -73.5 -192.5 c 128,-1,23
 -50 -177 -50 -177 -50 -156 c 0,24,25
 -50 -106 -50 -106 -134 -106 c 0,15,16
EndSplineSet
Validated: 33
Ligature2: "'blwf' Below Base Forms in Telugu lookup 13 subtable" Ta Halanth
PairPos2: "Pairwise Positioning (kerning) lookup 13 subtable" SaOttu dx=0 dy=0 dh=0 dv=0 dx=100 dy=-50 dh=18 dv=0
PairPos2: "Pairwise Positioning (kerning) lookup 13 subtable" ShaOttu dx=0 dy=0 dh=0 dv=0 dx=100 dy=-50 dh=18 dv=0
PairPos2: "Pairwise Positioning (kerning) lookup 13 subtable" VaOttu dx=0 dy=0 dh=0 dv=0 dx=100 dy=-50 dh=18 dv=0
PairPos2: "Pairwise Positioning (kerning) lookup 13 subtable" LLaOttu dx=0 dy=0 dh=0 dv=0 dx=100 dy=-50 dh=18 dv=0
PairPos2: "Pairwise Positioning (kerning) lookup 13 subtable" YaOttu dx=0 dy=0 dh=0 dv=0 dx=100 dy=-50 dh=18 dv=0
PairPos2: "Pairwise Positioning (kerning) lookup 13 subtable" MaOttu dx=0 dy=0 dh=0 dv=0 dx=100 dy=-50 dh=18 dv=0
PairPos2: "Pairwise Positioning (kerning) lookup 13 subtable" BhaOttu dx=0 dy=0 dh=0 dv=0 dx=100 dy=-50 dh=18 dv=0
PairPos2: "Pairwise Positioning (kerning) lookup 13 subtable" BaOttu dx=0 dy=0 dh=0 dv=0 dx=100 dy=-50 dh=18 dv=0
PairPos2: "Pairwise Positioning (kerning) lookup 13 subtable" PhaOttu dx=0 dy=0 dh=0 dv=0 dx=100 dy=-50 dh=18 dv=0
PairPos2: "Pairwise Positioning (kerning) lookup 13 subtable" PaOttu dx=0 dy=0 dh=0 dv=0 dx=100 dy=-50 dh=18 dv=0
PairPos2: "Pairwise Positioning (kerning) lookup 13 subtable" NaOttu dx=0 dy=0 dh=0 dv=0 dx=100 dy=-50 dh=18 dv=0
PairPos2: "Pairwise Positioning (kerning) lookup 13 subtable" ChaOttu dx=0 dy=0 dh=0 dv=0 dx=100 dy=-50 dh=18 dv=0
PairPos2: "Pairwise Positioning (kerning) lookup 13 subtable" CaOttu dx=0 dy=0 dh=0 dv=0 dx=100 dy=-50 dh=18 dv=0
PairPos2: "Pairwise Positioning (kerning) lookup 13 subtable" Kaottu dx=0 dy=0 dh=0 dv=0 dx=100 dy=-50 dh=18 dv=0
EndChar

StartChar: ThaOttu
Encoding: 65557 -1 161
Width: 0
GlyphClass: 4
Flags: W
AnchorPoint: "Anchor-0" -45 25 mark 0
LayerCount: 2
Fore
SplineSet
360 -510 m 1,0,1
 328 -558 328 -558 281 -558 c 0,2,3
 211 -558 211 -558 175 -504 c 0,4,5
 145 -458 145 -458 145 -385 c 0,6,7
 145 -279 145 -279 212.5 -199 c 128,-1,8
 280 -119 280 -119 378 -119 c 256,9,10
 476 -119 476 -119 539.5 -193.5 c 128,-1,11
 603 -268 603 -268 603 -372 c 0,12,13
 603 -434 603 -434 575 -490 c 0,14,15
 541 -558 541 -558 484 -558 c 256,16,17
 427 -558 427 -558 399 -510 c 1,18,19
 414 -579 414 -579 414 -599 c 0,20,21
 414 -655 414 -655 377 -670 c 1,22,23
 342 -659 342 -659 342 -599 c 0,24,25
 342 -577 342 -577 360 -510 c 1,0,1
387 -174 m 0,26,27
 307 -174 307 -174 257.5 -227.5 c 128,-1,28
 208 -281 208 -281 208 -361 c 0,29,30
 208 -460 208 -460 278 -460 c 0,31,32
 326 -460 326 -460 344 -441 c 0,33,34
 354 -431 354 -431 360 -402 c 0,35,36
 366 -376 366 -376 379 -369 c 1,37,38
 386 -373 386 -373 389.5 -401 c 128,-1,39
 393 -429 393 -429 404 -442 c 0,40,41
 421 -463 421 -463 464 -460 c 0,42,43
 544 -455 544 -455 544 -364 c 0,44,45
 544 -289 544 -289 504 -235 c 0,46,47
 460 -174 460 -174 387 -174 c 0,26,27
377 -338 m 256,48,49
 348 -338 348 -338 328 -318.5 c 128,-1,50
 308 -299 308 -299 308 -270 c 256,51,52
 308 -241 308 -241 329 -220 c 128,-1,53
 350 -199 350 -199 379 -199 c 0,54,55
 406 -199 406 -199 426 -220 c 128,-1,56
 446 -241 446 -241 446 -268 c 0,57,58
 446 -297 446 -297 426 -317.5 c 128,-1,59
 406 -338 406 -338 377 -338 c 256,48,49
EndSplineSet
Validated: 33
Ligature2: "'blwf' Below Base Forms in Telugu lookup 13 subtable" Tha Halanth
EndChar

